<?xml version="1.0" encoding="utf-8"?>
<!-- Generator: Adobe Illustrator 25.4.1, SVG Export Plug-In . SVG Version: 6.00 Build 0)  -->
<svg version="1.1" id="icons" xmlns="http://www.w3.org/2000/svg" xmlns:xlink="http://www.w3.org/1999/xlink" x="0px" y="0px"
	 viewBox="0 0 340 340" style="enable-background:new 0 0 340 340;" xml:space="preserve">
<style type="text/css">
	.st0{opacity:0.4;fill:#0672B6;}
	.st1{fill:#0672B6;}
	.st2{fill:#494456;}
	.st3{opacity:0.4;fill:#FFBF33;}
	.st4{opacity:0.2;fill:#FFBF33;}
	.st5{fill:#FFBF33;}
</style>
<rect x="109.5" y="37.1" class="st0" width="120.4" height="292.9"/>
<path class="st0" d="M230,37.1h-39.4v46c0,9.7,2.1,20,4.8,28.7c6.3,20.9,18.8,38.9,34.6,48.1L230,37.1z"/>
<rect x="128.2" y="66.4" class="st1" width="30" height="35.1"/>
<rect x="181.8" y="66.4" class="st1" width="30" height="35.1"/>
<rect x="128.2" y="126.2" class="st1" width="30" height="35.1"/>
<rect x="181.8" y="126.2" class="st1" width="30" height="35.1"/>
<rect x="128.2" y="186.1" class="st1" width="30" height="35.1"/>
<rect x="128.2" y="254.3" class="st1" width="83.6" height="75.7"/>
<rect x="181.8" y="186.1" class="st1" width="30" height="35.1"/>
<rect x="10" y="122.2" class="st0" width="99.5" height="207.8"/>
<rect x="29.9" y="215.5" class="st1" width="59.7" height="21.1"/>
<rect x="29.9" y="265.5" class="st1" width="59.7" height="21.1"/>
<rect x="29.9" y="165.5" class="st1" width="59.7" height="21.1"/>
<rect x="230" y="207.2" class="st0" width="100" height="122.8"/>
<rect x="289.1" y="242.5" class="st1" width="17.7" height="87.5"/>
<rect x="253.1" y="242.5" class="st1" width="17.7" height="87.5"/>
<path class="st2" d="M162.2,66.4c0-2.2-1.8-4-4-4h-30c-2.2,0-4,1.8-4,4v35.1c0,2.2,1.8,4,4,4h30c2.2,0,4-1.8,4-4V66.4z M154.2,97.5
	h-22V70.4h22V97.5z"/>
<path class="st2" d="M190.3,70.4c2.2,0,4-1.8,4-4s-1.8-4-4-4h-8.4c-2.2,0-4,1.8-4,4v35.1c0,2.2,1.8,4,4,4h12.1c2.2,0,4-1.8,4-4
	s-1.8-4-4-4h-8.1V70.4H190.3z"/>
<path class="st2" d="M162.2,126.2c0-2.2-1.8-4-4-4h-30c-2.2,0-4,1.8-4,4v35.1c0,2.2,1.8,4,4,4h30c2.2,0,4-1.8,4-4V126.2z
	 M154.2,157.4h-22v-27.1h22V157.4z"/>
<path class="st2" d="M215.8,143.8c0-2.2-1.8-4-4-4s-4,1.8-4,4v13.6h-22v-27.1h11c2.2,0,4-1.8,4-4s-1.8-4-4-4h-15c-2.2,0-4,1.8-4,4
	v35.1c0,2.2,1.8,4,4,4h30c2.2,0,4-1.8,4-4V143.8z"/>
<path class="st2" d="M158.2,182.1h-30c-2.2,0-4,1.8-4,4v35.1c0,2.2,1.8,4,4,4h30c2.2,0,4-1.8,4-4v-35.1
	C162.2,183.9,160.4,182.1,158.2,182.1z M154.2,217.2h-22v-27.1h22V217.2z"/>
<path class="st2" d="M211.8,182.1h-30c-2.2,0-4,1.8-4,4v35.1c0,2.2,1.8,4,4,4h30c2.2,0,4-1.8,4-4v-35.1
	C215.8,183.9,214,182.1,211.8,182.1z M207.8,217.2h-22v-27.1h22V217.2z"/>
<path class="st2" d="M10,334h220c2.2,0,4-1.8,4-4V211.2h92V326h-15.2v-83.5c0-2.2-1.8-4-4-4h-17.7c-2.2,0-4,1.8-4,4V326h-10.3v-83.5
	c0-2.2-1.8-4-4-4h-17.7c-2.2,0-4,1.8-4,4V326h-4.3c-2.2,0-4,1.8-4,4s1.8,4,4,4H330c2.2,0,4-1.8,4-4V207.2c0-2.2-1.8-4-4-4h-96v-49.7
	c0-2.2-1.8-4-4-4s-4,1.8-4,4V326h-10.2v-71.7c0-2.2-1.8-4-4-4h-83.6c-2.2,0-4,1.8-4,4V326h-10.7V41.1h73.7c2.2,0,4-1.8,4-4
	s-1.8-4-4-4h-77.7c-2.2,0-4,1.8-4,4V326H14V126.2h75.6c2.2,0,4-1.8,4-4s-1.8-4-4-4H10c-2.2,0-4,1.8-4,4V330C6,332.2,7.8,334,10,334z
	 M257.1,326v-79.5h9.7V326H257.1z M293.1,326v-79.5h9.7V326H293.1z M132.2,258.3h75.6V326h-75.6L132.2,258.3z"/>
<path class="st2" d="M93.6,215.5c0-2.2-1.8-4-4-4H29.9c-2.2,0-4,1.8-4,4v21.1c0,2.2,1.8,4,4,4h59.7c2.2,0,4-1.8,4-4V215.5z
	 M85.6,232.7H33.9v-13.1h51.7V232.7z"/>
<path class="st2" d="M89.6,261.5H29.9c-2.2,0-4,1.8-4,4v21.1c0,2.2,1.8,4,4,4h59.7c2.2,0,4-1.8,4-4v-21.1
	C93.6,263.3,91.8,261.5,89.6,261.5z M85.6,282.7H33.9v-13.1h51.7V282.7z"/>
<path class="st2" d="M93.6,165.5c0-2.2-1.8-4-4-4H29.9c-2.2,0-4,1.8-4,4v21.1c0,2.2,1.8,4,4,4h59.7c2.2,0,4-1.8,4-4V165.5z
	 M85.6,182.7H33.9v-13.1h51.7V182.7z"/>
<g>
	<path class="st3" d="M266.8,19.2C248,37.1,204.6,29,204.6,29v63.3c0,7.5,1.3,14.9,4,21.9c15.6,39.5,58.2,47.4,58.2,47.4
		s42.6-7.9,58.2-47.4c2.7-7,4.1-14.4,4-21.9V29C329,29,285.6,37.1,266.8,19.2z"/>
	<path class="st4" d="M266.8,19.2c-3,2.8-6.6,5-10.4,6.6l-51.8,51.8v14.6c0,5.7,0.7,11.3,2.3,16.8L287,28.9
		C279.4,27.2,272.1,24.2,266.8,19.2z"/>
	<path class="st4" d="M214.2,125.3c2.2,3.7,4.8,7.1,7.6,10.3L323,34.7v-4.9c-3.3,0.4-7.9,0.8-13,0.9L214.2,125.3z"/>
	<path class="st5" d="M325,114.2c2.7-7,4.1-14.4,4-21.9V29c0,0-43.4,8.1-62.2-9.8v142.4C266.8,161.6,309.4,153.7,325,114.2z"/>
	<path class="st4" d="M204.6,62.9l32.6-32.6c-2.6,0.2-5.1,0.4-7.6,0.4l-25,25V62.9z"/>
	<path class="st2" d="M328.3,25c-0.4,0.1-41.6,7.6-58.7-8.7c-0.1-0.1-0.2-0.1-0.2-0.2c-0.1-0.1-0.2-0.2-0.3-0.3
		c-0.1-0.1-0.2-0.1-0.3-0.2c-0.1-0.1-0.2-0.1-0.4-0.2c-0.1,0-0.2-0.1-0.4-0.1c-0.1,0-0.2-0.1-0.4-0.1c-0.1,0-0.2,0-0.4,0
		s-0.3,0-0.4,0s-0.2,0-0.4,0c-0.1,0-0.3,0-0.4,0.1c-0.1,0-0.2,0.1-0.3,0.1c-0.1,0-0.3,0.1-0.4,0.1c-0.1,0-0.2,0.1-0.3,0.2
		c-0.2,0.1-0.5,0.3-0.7,0.4c-0.1,0.1-0.2,0.1-0.2,0.2c-17.1,16.2-58.3,8.8-58.7,8.7c-2.2-0.4-4.3,1-4.7,3.2c0,0.2-0.1,0.5-0.1,0.7
		v63.3c-0.1,8,1.4,15.9,4.3,23.4c16.3,41.1,59.4,49.5,61.2,49.9h0c0.2,0,0.5,0.1,0.7,0.1h0c0.2,0,0.5,0,0.7-0.1h0
		c1.8-0.3,44.9-8.8,61.2-49.9c2.9-7.5,4.4-15.4,4.3-23.4V29c0-2.2-1.8-4-4-4C328.8,25,328.5,25,328.3,25L328.3,25z M325,92.3
		c0.1,7-1.2,13.9-3.7,20.4c-13.5,34.1-48.9,43.5-54.5,44.8c-5.5-1.3-41-10.7-54.5-44.8c-2.5-6.5-3.8-13.5-3.7-20.4V33.6
		c11.5,1.5,41.2,3.8,58.2-9.2c17.1,13,46.7,10.7,58.2,9.2V92.3z"/>
</g>
</svg>
