<?xml version="1.0" encoding="utf-8"?>
<!-- Generator: Adobe Illustrator 25.4.1, SVG Export Plug-In . SVG Version: 6.00 Build 0)  -->
<svg version="1.1" id="icons" xmlns="http://www.w3.org/2000/svg" xmlns:xlink="http://www.w3.org/1999/xlink" x="0px" y="0px"
	 viewBox="0 0 340 340" style="enable-background:new 0 0 340 340;" xml:space="preserve">
<style type="text/css">
	.st0{opacity:0.4;fill:#FFBF33;}
	.st1{opacity:0.2;fill:#FFBF33;}
	.st2{fill:#FFBF33;}
	.st3{fill:#494456;}
	.st4{fill:#6F6F7F;}
	.st5{opacity:0.4;fill:#0672B6;}
	.st6{fill:#0672B6;}
	.st7{fill:#FFFFFF;}
</style>
<g>
	<path class="st0" d="M268.2,11.3C249.4,29.2,206,21,206,21v63.3c0,7.5,1.3,14.9,4,21.9c15.6,39.5,58.2,47.4,58.2,47.4
		s42.6-7.9,58.2-47.4c2.7-7,4.1-14.4,4-21.9V21C330.4,21,287,29.1,268.2,11.3z"/>
	<path class="st1" d="M268.2,11.3c-3,2.8-6.6,5-10.4,6.6L206,69.7v14.6c0,5.7,0.7,11.3,2.3,16.8L288.4,21
		C280.7,19.3,273.5,16.3,268.2,11.3z"/>
	<path class="st1" d="M215.5,117.4c2.2,3.7,4.8,7.1,7.6,10.3L324.4,26.8v-4.9c-3.3,0.4-7.9,0.8-13,0.9L215.5,117.4z"/>
	<path class="st2" d="M326.4,106.3c2.7-7,4.1-14.4,4-21.9V21c0,0-43.4,8.1-62.2-9.8v142.4C268.2,153.7,310.7,145.8,326.4,106.3z"/>
	<path class="st1" d="M206,55l32.6-32.6c-2.6,0.2-5.1,0.4-7.6,0.4l-25,25V55z"/>
	<path class="st3" d="M329.7,17.1c-0.4,0.1-41.6,7.6-58.7-8.7c-0.1-0.1-0.2-0.1-0.2-0.2c-0.1-0.1-0.2-0.2-0.3-0.2
		c-0.1-0.1-0.2-0.1-0.3-0.2c-0.1-0.1-0.2-0.1-0.4-0.2c-0.1,0-0.2-0.1-0.4-0.1c-0.1,0-0.2-0.1-0.4-0.1s-0.2,0-0.4,0s-0.3,0-0.4,0
		s-0.2,0-0.4,0c-0.1,0-0.3,0-0.4,0.1c-0.1,0-0.2,0.1-0.3,0.1c-0.1,0-0.3,0.1-0.4,0.1c-0.1,0-0.2,0.1-0.3,0.2
		c-0.2,0.1-0.5,0.3-0.7,0.4c-0.1,0.1-0.2,0.1-0.2,0.2c-17.1,16.2-58.3,8.8-58.7,8.7c-2.2-0.4-4.3,1-4.7,3.2c0,0.2-0.1,0.5-0.1,0.7
		v63.3c-0.1,8,1.4,15.9,4.3,23.4c16.3,41.1,59.4,49.5,61.2,49.9h0c0.2,0,0.5,0.1,0.7,0.1h0c0.2,0,0.5,0,0.7-0.1h0
		c1.8-0.3,44.9-8.8,61.2-49.9c2.9-7.5,4.4-15.4,4.3-23.4V21c0-2.2-1.8-4-4-4C330.2,17,329.9,17.1,329.7,17.1L329.7,17.1z
		 M326.4,84.4c0.1,7-1.2,13.9-3.7,20.4c-13.5,34.1-48.9,43.5-54.5,44.8c-5.5-1.3-41-10.7-54.5-44.8c-2.5-6.5-3.8-13.5-3.7-20.4V25.7
		c11.5,1.5,41.2,3.8,58.2-9.2c17.1,13,46.7,10.7,58.2,9.2V84.4z"/>
</g>
<g>
	<path class="st4" d="M34.1,293.9h49l0,0v21.6c0,7.3-5.9,13.2-13.2,13.2h0H47.3c-7.3,0-13.2-5.9-13.2-13.2l0,0L34.1,293.9
		L34.1,293.9z"/>
	<path class="st5" d="M50.8,204.9c0,0-18.7,0.7-32.3-2.2c-5.2-1.1-8.9-5.7-8.9-11.1v-4.2c0-3.6,1.7-7,4.6-9.1
		c3.5-2.5,7.3-4.4,11.3-5.8c5.5-1.9,11.6,1,13.5,6.6c0.3,0.8,0.5,1.7,0.5,2.5c0.1,1.3,0.2,2.7,0.3,4.1c0.1,3.3,2.5,6.2,5.8,6.8
		c2.8,0.5,5.6,0.8,8.4,0.8L50.8,204.9z"/>
	<path class="st4" d="M246.2,328.7h-22.6c-7.3,0-13.2-5.9-13.2-13.2v0v-21.6l0,0h49l0,0v21.6C259.4,322.8,253.5,328.7,246.2,328.7
		C246.2,328.7,246.2,328.7,246.2,328.7z"/>
	<path class="st5" d="M242.6,204.9c0,0,18.7,0.7,32.3-2.2c5.2-1.1,8.9-5.7,8.9-11.1v-4.2c0-3.6-1.7-7-4.6-9.1
		c-3.5-2.5-7.3-4.4-11.3-5.8c-5.5-1.9-11.6,1-13.5,6.6c-0.3,0.8-0.5,1.7-0.5,2.5c-0.1,1.3-0.2,2.7-0.3,4.1c-0.1,3.3-2.5,6.2-5.8,6.8
		c-2.8,0.5-5.6,0.8-8.4,0.8L242.6,204.9z"/>
	<path class="st6" d="M262.8,219.4l-10.2-10.6c-1.4-1.4-2.5-3.1-3.4-4.9c-4.2-8.9-18.3-37.9-30.8-54.9c-2.3-3.1-5.5-5.5-9.2-6.9
		c-10.5-3.9-34.8-11.5-62.4-11.5s-51.9,7.6-62.4,11.5c-3.7,1.3-6.9,3.7-9.2,6.9c-12.5,17-26.6,46-30.8,54.9c-0.9,1.8-2,3.5-3.4,4.9
		l-10.2,10.6c-5.5,5.7-8.5,13.3-8.5,21.2v40.8c0,7.8,5.3,14.5,12.9,16.3c39.2,9.1,111.7,6.9,111.7,6.9s72.5,2.2,111.7-6.9
		c7.6-1.8,12.9-8.6,12.9-16.3v-40.8C271.3,232.6,268.3,225.1,262.8,219.4z"/>
	<path class="st7" d="M37.1,242.7v9c0,4.5,2.7,8.5,6.9,10.2c5,1.9,10.3,2.9,15.6,3.2c2.9,0.2,5.8-1,7.8-3.1c3.3-3.4,7.3-6,11.7-7.7
		c3.2-1.3,5.2-4.3,5.2-7.7v-5.9c-11.9-1.8-23.7-4.4-35.3-7.8c-2.8-0.9-5.9-0.1-8,1.9c-1.3,1.3-2.4,2.8-3.2,4.5
		C37.4,240.3,37.1,241.5,37.1,242.7z"/>
	<path class="st7" d="M256.3,242.7v9c0,4.5-2.7,8.5-6.9,10.2c-5,1.9-10.3,2.9-15.6,3.2c-2.9,0.2-5.8-1-7.8-3.1
		c-3.3-3.4-7.3-6-11.7-7.7c-3.2-1.3-5.2-4.3-5.2-7.7v-5.9c11.9-1.8,23.7-4.4,35.3-7.8c2.8-0.9,5.9-0.1,8,1.9
		c1.3,1.3,2.4,2.8,3.2,4.5C256.1,240.3,256.3,241.5,256.3,242.7z"/>
	<path class="st4" d="M188.6,296c-3.8-4.2-9.2-6.5-14.9-6.5h-53.9c-5.7,0-11.1,2.4-14.9,6.5l-7.6,8.3c26.8,1,49.5,0.3,49.5,0.3
		s22.7,0.7,49.5-0.3L188.6,296z"/>
	<path class="st4" d="M208.5,160.2c-2.1-3.1-5.2-5.3-8.8-6.2c-10-2.6-32.2-7.8-53-7.8s-43,5.2-53,7.8c-3.6,0.9-6.7,3.1-8.8,6.2
		c-9.6,14.1-16.7,31.4-19.4,38.4c-0.4,1.1,0.1,2.3,1.2,2.8c0.3,0.1,0.6,0.2,1,0.1c35.2-3.1,79-2.5,79-2.5s43.8-0.6,79,2.5
		c1.2,0.1,2.2-0.8,2.3-2c0-0.3,0-0.6-0.1-1C225.2,191.5,218.1,174.3,208.5,160.2z"/>
	<path class="st3" d="M35.4,208.7l-7.6,7.9c-6.2,6.4-9.7,15-9.7,24v40.8c0,8.1,4.6,15.4,12,18.8v15.3c0,9.5,7.7,17.2,17.2,17.2h22.6
		c9.5,0,17.2-7.7,17.2-17.2v-7.6c21.4,1.1,41.8,1,53.1,0.9c4.4-0.1,8.9-0.1,13.2,0c4.8,0.1,11.4,0.2,18.4,0.2
		c8.5,0,17.6-0.2,24.7-0.7c3.4-0.1,6.7-0.3,10-0.4v7.6c0,9.5,7.7,17.2,17.2,17.2h22.6c9.5,0,17.2-7.7,17.2-17.2v-15.3
		c7.3-3.4,12-10.8,12-18.8v-40.8c0-8.9-3.4-17.5-9.7-23.9l-7.6-7.9c5.9-0.2,11.8-0.9,17.7-2.1c7-1.5,12.1-7.8,12.1-15v-4.2
		c0-4.9-2.3-9.5-6.3-12.4c-3.8-2.7-8-4.8-12.4-6.3c-7.6-2.6-15.9,1.4-18.6,9c-0.4,1.1-0.6,2.3-0.7,3.5c-0.1,1.4-0.2,2.9-0.3,4.3
		c-0.1,2.2,1.6,4.1,3.9,4.1c2.2,0.1,4.1-1.6,4.1-3.9c0-1.3,0.1-2.6,0.2-3.9c0.2-2,1.3-3.9,3-5c1.7-1.1,3.8-1.4,5.7-0.7
		c3.7,1.2,7.1,3,10.3,5.2c1.9,1.4,3,3.6,3,5.9v4.2c0,3.4-2.4,6.4-5.7,7.2c-7.2,1.3-14.6,2-21.9,2.1c-4.7-9.9-18.4-37.7-30.6-54.4
		c-2.8-3.8-6.6-6.6-11.1-8.3c-11.9-4.4-36.1-11.7-63.8-11.7s-51.9,7.4-63.8,11.7c-4.4,1.6-8.3,4.5-11.1,8.3
		c-12.3,16.6-25.9,44.5-30.6,54.4c-7.4-0.1-14.7-0.8-21.9-2.1c-3.4-0.7-5.7-3.7-5.7-7.2v-4.2c0-2.3,1.1-4.5,3-5.9
		c3.1-2.2,6.6-4,10.3-5.2c1.9-0.7,4-0.4,5.7,0.7c1.7,1.1,2.9,3,3,5c0.1,1.3,0.2,2.6,0.2,3.9c0.1,2.2,1.9,3.9,4.1,3.9
		s3.9-1.9,3.9-4.1c-0.1-1.4-0.1-2.9-0.3-4.3c-0.7-8-7.8-14-15.9-13.2c-1.2,0.1-2.4,0.4-3.5,0.7c-4.4,1.5-8.6,3.6-12.4,6.3
		c-3.9,2.9-6.2,7.5-6.3,12.4v4.2c0,7.2,5,13.5,12.1,15C23.5,207.8,29.4,208.5,35.4,208.7z M79.1,315.5c0,5.1-4.1,9.2-9.2,9.2H47.3
		c-5.1,0-9.2-4.1-9.2-9.2v-13c12.1,2.5,26.5,4,41,5L79.1,315.5z M153.6,300.8c-2.6-0.1-5.2-0.1-7.8-0.1c-1.9,0-3.8,0-5.7,0
		c-6.5,0.1-19.1,0.2-33.9-0.2l1.7-1.8c3.1-3.3,7.4-5.2,11.9-5.2h53.9c4.5,0,8.9,1.9,11.9,5.2l1.9,2
		C175.8,301.2,161.9,301,153.6,300.8L153.6,300.8z M246.2,324.7h-22.6c-5.1,0-9.2-4.1-9.2-9.2v-8.1c16.4-1.1,30.1-2.7,41-4.9v13
		C255.4,320.6,251.2,324.7,246.2,324.7L246.2,324.7z M78.3,151.3c1.9-2.5,4.4-4.4,7.4-5.5c9.2-3.4,33.6-11.2,61-11.2
		s51.8,7.9,61,11.2c2.9,1.1,5.5,3,7.4,5.5c12.4,16.8,26.4,45.8,30.4,54.2c1,2.2,2.4,4.2,4.1,6l10.2,10.6c4.8,4.9,7.4,11.5,7.4,18.4
		v40.8c0,5.9-4,11.1-9.8,12.4c-14.1,3.3-34.2,5.4-59.6,6.4l-6.4-6.9c-4.6-5-11.1-7.8-17.8-7.8h-53.9c-6.8,0-13.2,2.8-17.8,7.8
		l-6.4,6.9c-20.4-0.8-43.2-2.6-59.7-6.4c-5.8-1.3-9.8-6.5-9.8-12.4v-40.8c0-6.9,2.6-13.5,7.4-18.4l10.2-10.6c1.7-1.8,3.1-3.8,4.1-6
		C51.9,197.1,66,168.1,78.3,151.3z"/>
	<path class="st3" d="M34.3,237.5c-0.8,1.6-1.2,3.4-1.1,5.2v9c0,6.1,3.7,11.7,9.4,13.9c5.4,2,11.1,3.2,16.8,3.5c0.3,0,0.5,0,0.8,0
		c3.9,0,7.6-1.6,10.2-4.4c2.9-2.9,6.4-5.2,10.3-6.7c4.7-1.8,7.8-6.4,7.8-11.4v-5.9c0-2-1.4-3.6-3.4-4c-11.7-1.8-23.4-4.3-34.8-7.6
		c-4.2-1.3-8.8-0.2-12,2.8C36.7,233.5,35.3,235.4,34.3,237.5z M41.1,242.6c0-0.6,0.1-1.2,0.4-1.7c0.6-1.2,1.4-2.3,2.4-3.3
		c0.8-0.7,1.8-1.1,2.9-1.1c0.4,0,0.8,0.1,1.2,0.2c10.7,3.1,21.5,5.6,32.5,7.3v2.5c0,1.8-1.1,3.3-2.7,4c-5,1.9-9.5,4.9-13.2,8.7
		c-1.2,1.3-2.9,2-4.7,1.9c-4.9-0.2-9.8-1.2-14.4-2.9c-2.6-1.1-4.3-3.6-4.3-6.5L41.1,242.6z"/>
	<path class="st3" d="M185.8,239.5L185.8,239.5c-11.3,1.1-66.8,1.1-78.1,0c-5.7-0.5-10.7,3.6-11.2,9.3c0,0.3,0,0.7,0,1
		c0,3.3,0.9,6.6,2.7,9.4c0.9,1.4,1.9,2.8,2.8,4.1c4.4,5.8,11,9.7,18.2,10.7c3.1,0.4,14.8,0.7,26.5,0.7s23.4-0.2,26.5-0.7
		c7.3-1,13.8-4.9,18.2-10.7c1-1.3,1.9-2.7,2.8-4.1c1.8-2.8,2.7-6.1,2.7-9.4c0-5.7-4.6-10.3-10.3-10.3
		C186.5,239.4,186.1,239.4,185.8,239.5z M187.6,254.9c-0.8,1.3-1.7,2.5-2.5,3.6c-3.1,4.1-7.8,6.9-13,7.6c-5.5,0.8-45.3,0.8-50.8,0
		c-5.2-0.7-9.8-3.5-13-7.6c-0.9-1.2-1.7-2.4-2.5-3.6c-1-1.5-1.5-3.3-1.5-5.1c0-1.3,1-2.3,2.3-2.3c0.1,0,0.2,0,0.2,0
		c11.9,1.1,67.8,1.1,79.7,0c1.3-0.1,2.4,0.8,2.5,2.1c0,0.1,0,0.2,0,0.2C189.1,251.6,188.6,253.4,187.6,254.9L187.6,254.9z"/>
	<path class="st3" d="M205,240.6v5.9c0,5,3.1,9.6,7.8,11.4c3.9,1.5,7.4,3.8,10.3,6.7c2.6,2.8,6.3,4.4,10.2,4.4c0.3,0,0.5,0,0.8,0
		c5.8-0.3,11.4-1.5,16.8-3.5c5.7-2.3,9.4-7.8,9.4-13.9v-9c0-1.8-0.4-3.6-1.1-5.2c-1-2.1-2.4-4-4-5.6c-3.2-3-7.7-4.1-12-2.8
		c-11.4,3.3-23,5.9-34.8,7.6C206.5,237,205,238.7,205,240.6z M213,244c11-1.8,21.8-4.2,32.5-7.3c1.4-0.4,3-0.1,4.1,1
		c1,1,1.8,2.1,2.4,3.3c0.2,0.5,0.4,1.1,0.4,1.7v9c0,2.8-1.7,5.4-4.3,6.5c-4.6,1.7-9.5,2.7-14.4,2.9c-1.8,0.1-3.5-0.6-4.7-1.9
		c-3.7-3.8-8.2-6.8-13.2-8.7c-1.6-0.6-2.7-2.2-2.7-4V244z"/>
	<path class="st3" d="M207.7,200.2c0.1-2.2-1.6-4.1-3.8-4.2l-1.4-0.1c-2.2-0.1-4.1,1.6-4.2,3.8s1.6,4.1,3.8,4.2l1.4,0.1
		c0.1,0,0.1,0,0.2,0C205.8,204,207.6,202.4,207.7,200.2z"/>
	<path class="st3" d="M64.7,205.8c35.1-3.3,81.5-2.8,82-2.7h0.1c0.2,0,17.6-0.2,39,0.4c0,0,0.1,0,0.1,0c2.2,0,4-1.7,4.1-3.9
		c0-2.2-1.7-4-3.9-4.1c-21-0.6-38.2-0.4-39.3-0.4c-1.8,0-42.5-0.5-76.4,2.2c3.2-8,9.6-22.7,17.9-34.8c1.6-2.3,3.9-3.9,6.5-4.6
		c8.7-2.3,31.3-7.7,51.9-7.7s43.2,5.4,51.9,7.7c2.7,0.7,5,2.3,6.5,4.6c8.2,12.1,14.7,26.8,17.9,34.8c-1.5-0.1-3-0.2-4.5-0.3
		c-2.2-0.2-4.1,1.5-4.3,3.7s1.5,4.1,3.7,4.3c3.8,0.3,7.4,0.6,10.7,0.9c0.1,0,0.3,0,0.4,0c2.2,0,4-1.8,4-4c0-0.5-0.1-0.9-0.2-1.3
		c-0.3-1-8.6-24.2-21.1-42.5c-2.6-3.9-6.6-6.6-11.1-7.8c-11.2-3-33.2-8-54-8s-42.8,5-54,8c-4.5,1.2-8.5,4-11.1,7.8
		c-12.5,18.4-20.7,41.6-21.1,42.5c-0.7,2.1,0.4,4.4,2.4,5.1C63.6,205.8,64.1,205.8,64.7,205.8L64.7,205.8z"/>
	<path class="st5" d="M186.2,243.5c-11.7,1.1-67.2,1.1-78.9,0c-3.5-0.3-6.5,2.2-6.9,5.7c0,0.2,0,0.4,0,0.6c0,2.6,0.7,5.1,2.1,7.3
		c0.7,1.1,1.6,2.5,2.7,3.9c3.8,5,9.4,8.3,15.6,9.2c5.9,0.9,46,0.9,51.9,0c6.2-0.9,11.8-4.2,15.6-9.2c1-1.4,1.9-2.7,2.7-3.9
		c1.4-2.2,2.1-4.7,2.1-7.3c0-3.5-2.8-6.3-6.3-6.3C186.6,243.4,186.4,243.4,186.2,243.5z"/>
</g>
</svg>
