<?xml version="1.0" encoding="utf-8"?>
<!-- Generator: Adobe Illustrator 25.4.1, SVG Export Plug-In . SVG Version: 6.00 Build 0)  -->
<svg version="1.1" id="icons" xmlns="http://www.w3.org/2000/svg" xmlns:xlink="http://www.w3.org/1999/xlink" x="0px" y="0px"
	 viewBox="0 0 340 340" style="enable-background:new 0 0 340 340;" xml:space="preserve">
<style type="text/css">
	.st0{fill:#EDEDF2;}
	.st1{fill:#A0A0BA;}
	.st2{fill:#0672B6;}
	.st3{fill:#C9C9D6;}
	.st4{fill:#494456;}
	.st5{opacity:0.4;fill:#FFBF33;}
	.st6{opacity:0.2;fill:#FFBF33;}
	.st7{fill:#FFBF33;}
</style>
<polygon class="st0" points="77.7,7.7 243.4,7.7 283.8,48 283.8,326.8 77.7,326.8 "/>
<path class="st1" d="M243.4,7.7v31.4c0,4.9,4,8.9,8.9,8.9h31.5L243.4,7.7z"/>
<path class="st2" d="M321.9,327.7h-13.3c-4,0-7.3-3.3-7.3-7.3c0,0,0,0,0,0V161.2c0-3.1,0.8-6.2,2.3-9l8.1-15.1l8.1,15.1
	c1.5,2.8,2.3,5.9,2.3,9V327.7z"/>
<path class="st3" d="M144.8,262.5v-77.9c0-0.8-0.6-1.4-1.4-1.4c-0.1,0-0.3,0-0.4,0.1c-33.4,10.3-59.5,1.1-65.2-1.3v144.8h34.4
	c15.7-10.5,24.1-26.7,28.4-38.9C143.4,279.7,144.8,271.1,144.8,262.5z"/>
<path class="st4" d="M118.8,326.8c0,2.2,1.8,4,4,4h161c2.2,0,4-1.8,4-4V63.2c0-2.2-1.8-4-4-4s-4,1.8-4,4v259.6h-157
	C120.6,322.8,118.8,324.6,118.8,326.8z"/>
<path class="st4" d="M287.5,49.5c0.6-1.5,0.3-3.2-0.9-4.4l-33.9-33.8c-4.9-4.9-11.5-7.7-18.5-7.6H77.7c-2.2,0-4,1.8-4,4v156.1
	c0,2.2,1.8,4,4,4s4-1.8,4-4V11.7h152.5c4.8,0,9.4,1.9,12.8,5.3l27.1,27h-21.8c-2.7,0-4.9-2.2-4.9-4.9V27.9c0-2.2-1.8-4-4-4
	s-4,1.8-4,4v11.2c0,7.1,5.8,12.9,12.9,12.9h31.5C285.4,52,286.9,51,287.5,49.5z"/>
<path class="st4" d="M334.5,275.4c-2.2,0-4,1.8-4,4v38.8c0,2.7-2,5-4.7,5.4V161.2c0-3.8-0.9-7.5-2.7-10.9l-8.1-15.1
	c-1-1.9-3.5-2.7-5.4-1.6c-0.7,0.4-1.3,0.9-1.6,1.6l-8.1,15.1c-1.8,3.4-2.7,7.1-2.7,10.9v159.2c0,6.3,5.1,11.3,11.3,11.3H325
	c7.5,0,13.5-6,13.5-13.5v-38.8C338.5,277.2,336.8,275.4,334.5,275.4z M305.2,320.4V161.2c0-2.5,0.6-4.9,1.8-7.1l4.5-8.5l4.5,8.5
	c1.2,2.2,1.8,4.6,1.8,7.1v162.5h-9.3C306.7,323.7,305.2,322.2,305.2,320.4z"/>
<path class="st4" d="M132.9,73.1h95.7c2.2,0,4-1.8,4-4s-1.8-4-4-4h-95.7c-2.2,0-4,1.8-4,4S130.7,73.1,132.9,73.1z"/>
<path class="st4" d="M251.8,103.4H132.9c-2.2,0-4,1.8-4,4s1.8,4,4,4h118.9c2.2,0,4-1.8,4-4S254,103.4,251.8,103.4z"/>
<path class="st4" d="M251.8,126.5H109.7c-2.2,0-4,1.8-4,4c0,2.2,1.8,4,4,4h142.1c2.2,0,4-1.8,4-4S254,126.5,251.8,126.5z"/>
<path class="st4" d="M109.7,157.6h142.1c2.2,0,4-1.8,4-4s-1.8-4-4-4H109.7c-2.2,0-4,1.8-4,4S107.5,157.6,109.7,157.6z"/>
<path class="st4" d="M255.8,176.7c0-2.2-1.8-4-4-4h-71c-2.2,0-4,1.8-4,4s1.8,4,4,4h71C254,180.7,255.8,178.9,255.8,176.7z"/>
<path class="st4" d="M248.5,244.9h-43.7c-2.2,0-4,1.8-4,4s1.8,4,4,4h43.7c2.2,0,4-1.8,4-4S250.7,244.9,248.5,244.9L248.5,244.9z"/>
<path class="st4" d="M167.7,277.4h80.9c2.2,0,4-1.8,4-4s-1.8-4-4-4h-80.9c-2.2,0-4,1.8-4,4S165.5,277.4,167.7,277.4z"/>
<g>
	<path class="st5" d="M71.5,191.8c-18.8,17.9-62.2,9.8-62.2,9.8v63.3c0,7.5,1.3,14.9,4,21.9c15.6,39.5,58.2,47.4,58.2,47.4
		s42.6-7.9,58.2-47.4c2.7-7,4.1-14.4,4-21.9v-63.3C133.7,201.6,90.3,209.7,71.5,191.8z"/>
	<path class="st6" d="M71.5,191.8c-3,2.8-6.6,5-10.4,6.6L9.2,250.3v14.6c0,5.7,0.7,11.3,2.3,16.8l80.2-80.2
		C84,199.8,76.8,196.9,71.5,191.8z"/>
	<path class="st6" d="M18.8,297.9c2.2,3.7,4.8,7.1,7.6,10.3l101.2-100.9v-4.9c-3.3,0.4-7.9,0.8-13,0.9L18.8,297.9z"/>
	<path class="st7" d="M129.7,286.8c2.7-7,4.1-14.4,4-21.9v-63.3c0,0-43.4,8.1-62.2-9.8v142.4C71.5,334.2,114,326.3,129.7,286.8z"/>
	<path class="st6" d="M9.2,235.5l32.6-32.6c-2.6,0.2-5.1,0.4-7.6,0.4l-25,25V235.5z"/>
	<path class="st4" d="M133,197.6c-0.4,0.1-41.6,7.6-58.7-8.7c-0.1-0.1-0.2-0.1-0.2-0.2c-0.1-0.1-0.2-0.2-0.3-0.2
		c-0.1-0.1-0.2-0.1-0.3-0.2c-0.1-0.1-0.2-0.1-0.4-0.2c-0.1,0-0.2-0.1-0.4-0.1c-0.1,0-0.2-0.1-0.4-0.1s-0.2,0-0.4,0
		c-0.1,0-0.3,0-0.4,0s-0.2,0-0.4,0c-0.1,0-0.3,0-0.4,0.1c-0.1,0-0.2,0.1-0.3,0.1c-0.1,0-0.3,0.1-0.4,0.1c-0.1,0-0.2,0.1-0.3,0.2
		c-0.2,0.1-0.5,0.3-0.7,0.4c-0.1,0.1-0.2,0.1-0.2,0.2c-17.1,16.2-58.3,8.8-58.7,8.7c-2.2-0.4-4.3,1-4.7,3.2c0,0.2-0.1,0.5-0.1,0.7
		v63.3c-0.1,8,1.4,15.9,4.3,23.4c16.3,41.1,59.4,49.5,61.2,49.9h0c0.2,0,0.5,0.1,0.7,0.1h0c0.2,0,0.5,0,0.7-0.1h0
		c1.8-0.3,44.9-8.8,61.2-49.9c2.9-7.5,4.4-15.4,4.3-23.4v-63.3c0-2.2-1.8-4-4-4C133.4,197.6,133.2,197.6,133,197.6L133,197.6z
		 M129.7,264.9c0.1,7-1.2,13.9-3.7,20.4c-13.5,34.1-48.9,43.5-54.5,44.8c-5.5-1.3-41-10.7-54.5-44.8c-2.5-6.5-3.8-13.5-3.7-20.4
		v-58.7c11.5,1.5,41.2,3.8,58.2-9.2c17.1,13,46.7,10.7,58.2,9.2V264.9z"/>
</g>
</svg>
