<?xml version="1.0" encoding="utf-8"?>
<!-- Generator: Adobe Illustrator 25.4.1, SVG Export Plug-In . SVG Version: 6.00 Build 0)  -->
<svg version="1.1" id="icons" xmlns="http://www.w3.org/2000/svg" xmlns:xlink="http://www.w3.org/1999/xlink" x="0px" y="0px"
	 viewBox="0 0 340 340" style="enable-background:new 0 0 340 340;" xml:space="preserve">
<style type="text/css">
	.st0{fill:#FF8585;}
	.st1{fill:#A7A7B5;}
	.st2{fill:#E0E0E0;}
	.st3{fill:#E05F5F;}
	.st4{fill:#FFFFFF;}
	.st5{fill:#494456;}
	.st6{opacity:0.4;fill:#FFBF33;}
	.st7{opacity:0.2;fill:#FFBF33;}
	.st8{fill:#FFBF33;}
</style>
<path class="st0" d="M292.2,204.5c-5.8-9-16.4-18.5-35.5-18.5c-26.2,0-36.5,17.5-40.3,28.6c-0.4,1.2-1.7,1.8-3,1.4
	c-0.7-0.2-1.2-0.8-1.4-1.4c-3.8-11.1-14.1-28.6-40.3-28.6c-19.1,0-29.7,9.5-35.5,18.5c-5.2,8.3-7.6,18-6.9,27.8
	c2.2,38.7,38.7,63.3,49.8,69.9c3.4,2,6.7,4.1,10,6.3c9.9,6.7,17.1,12,21.2,15.1c2.3,1.8,5.6,1.8,7.9,0c4.1-3.1,11.3-8.4,21.2-15.1
	c3.3-2.2,6.6-4.3,10-6.3c11-6.6,47.5-31.1,49.8-69.9C299.8,222.6,297.4,212.8,292.2,204.5z"/>
<path class="st0" d="M184.4,125.1h-10.3v-10.3c0-3.1-2.5-5.7-5.7-5.7c0,0,0,0,0,0h-16.6c-3.1,0-5.7,2.5-5.7,5.7c0,0,0,0,0,0v10.3
	h-10.3c-3.1,0-5.7,2.5-5.7,5.7c0,0,0,0,0,0v16.6c0,3.1,2.5,5.7,5.7,5.7c0,0,0,0,0,0h10.3v10.3c0,3.1,2.5,5.7,5.7,5.7c0,0,0,0,0,0
	h16.6c3.1,0,5.7-2.5,5.7-5.7V153h10.3c3.1,0,5.7-2.5,5.7-5.7v-16.6C190.1,127.7,187.5,125.1,184.4,125.1L184.4,125.1z"/>
<path class="st1" d="M48.9,181.3c-22.2,0-40.4-17-40.4-39.1V78c0-12.9,10.4-23.3,23.3-23.3h5.6c3.3,0,6,2.7,6,6c0,3.3-2.7,6-6,6
	h-5.6c-6.2,0-11.3,5.1-11.3,11.3v64.2c0,13.5,9.5,24.1,22.2,26.6c2,0.3,4,0.4,5.9,0.3c3.3,0,6,4,6,7.4S52.2,181.3,48.9,181.3z"/>
<path class="st2" d="M36.6,56.4v17.2h5.7c4.4,0,7.9-3.5,7.9-7.9v-9.8c0-4.4-3.5-7.9-7.9-7.9c0,0,0,0,0,0h-5.7L36.6,56.4z"/>
<path class="st1" d="M71.6,181.3c22.2,0,40.4-17,40.4-39.1V78c0-12.9-10.4-23.3-23.3-23.3h-5.6c-3.3,0-6,2.7-6,6c0,3.3,2.7,6,6,6
	h5.6c6.2,0,11.3,5.1,11.3,11.3v64.2c0,13.5-9.5,24.1-22.2,26.6c-2,0.3-4,0.4-5.9,0.3c-3.3,0-6,4-6,7.4S68.3,181.3,71.6,181.3z"/>
<path class="st2" d="M83.9,56.4v17.2h-5.7c-4.4,0-7.9-3.5-7.9-7.9c0,0,0,0,0,0v-9.8c0-4.4,3.5-7.9,7.9-7.9c0,0,0,0,0,0h5.7V56.4z"/>
<path class="st3" d="M193.4,257.5c0.5,19.5-10.8,32.8-20.6,40.7c2.5,1.7,4.7,3.1,6.3,4c2.4,1.4,4.8,3,7.2,4.5
	c8.3-8.6,12.7-19.5,14.9-26.9c1.5-4.9,4-9.4,7.2-13.3c7.6-9.6,4-20.6,4-20.6L193.4,257.5z"/>
<circle class="st4" cx="193.4" cy="247.6" r="19"/>
<path class="st1" d="M136.3,317h-18.9c-34.8,0-63.1-28.3-63.1-63.1v-66.4c0-3.3,2.7-6,6-6s6,2.7,6,6v66.4
	c0,28.2,22.9,51.1,51.1,51.1h18.9c32.5,0,51.1-27.1,51.1-55.3c0-3.3,2.7-6,6-6s6,2.7,6,6C199.4,284.5,177,317,136.3,317z"/>
<path class="st2" d="M42.8,168.7v9c0,2.9,2.3,5.2,5.2,5.2h3.5v5.9c0,2.7,2.2,5,5,5c0,0,0,0,0,0H64c2.7,0,5-2.2,5-5l0,0v-5.9h3.5
	c2.9,0,5.2-2.3,5.2-5.2v-9H42.8z"/>
<path class="st5" d="M151.9,173h16.6c5.3,0,9.7-4.3,9.7-9.7V157h6.3c5.3,0,9.7-4.3,9.7-9.7v-16.6c0-5.3-4.3-9.7-9.7-9.7h-6.3v-6.3
	c0-5.3-4.3-9.7-9.7-9.7h-16.6c-5.3,0-9.7,4.3-9.7,9.7v6.3h-6.3c-5.3,0-9.7,4.3-9.7,9.7v16.6c0,5.3,4.3,9.7,9.7,9.7h6.3v6.3
	C142.2,168.6,146.5,173,151.9,173z M135.9,149c-0.9,0-1.7-0.8-1.7-1.7v-16.6c0-0.9,0.8-1.7,1.7-1.7h10.3c2.2,0,4-1.8,4-4v-10.3
	c0-0.9,0.8-1.7,1.7-1.7h16.6c0.9,0,1.7,0.8,1.7,1.7v10.3c0,2.2,1.8,4,4,4h10.3c0.9,0,1.7,0.8,1.7,1.7v16.6c0,0.9-0.8,1.7-1.7,1.7
	h-10.3c-2.2,0-4,1.8-4,4v10.3c0,0.9-0.8,1.7-1.7,1.7h-16.6c-0.9,0-1.7-0.8-1.7-1.7V153c0-2.2-1.8-4-4-4H135.9z"/>
<path class="st5" d="M42.1,184.7c1.5,1.3,3.4,2,5.4,2.2v1.9c0,2.4,1,4.7,2.7,6.4v58.7c0,37,30.1,67.1,67.1,67.1h18.9
	c15.2,0,30-5.2,41.9-14.7c3.1,1.8,5.8,3.6,8.4,5.3c16.1,10.8,25,18.1,25.1,18.2c1.5,1.2,3.6,1.2,5.1,0c0.1-0.1,9.1-7.4,25.1-18.2
	c2.9-1.9,6-3.9,9.5-6c11.5-6.9,49.3-32.4,51.7-73.1c0.8-10.6-1.9-21.2-7.5-30.2c-5.9-9.3-17.5-20.4-38.9-20.4
	c-25.6,0-37.3,15.5-42.5,27.4c-5.2-12-16.9-27.4-42.5-27.4c-21.3,0-32.9,11.1-38.9,20.4c-5.6,9-8.3,19.6-7.5,30.2
	c1.1,19.3,10.7,38.2,27.6,54.6c1.6,1.5,4.1,1.5,5.7,0c1.5-1.6,1.5-4.1,0-5.7c0,0,0,0,0,0c-15.7-15.2-24.2-31.8-25.2-49.3
	c-0.7-8.9,1.5-17.8,6.3-25.4c7.1-11.1,17.9-16.7,32.1-16.7c34.2,0,38.4,32.6,38.5,33.9c0.2,2.2,2.2,3.8,4.4,3.5
	c1.9-0.2,3.3-1.7,3.5-3.5c0.9-6.1,3.1-11.9,6.3-17.1c7-11.2,17.8-16.9,32.2-16.9c14.2,0,25,5.6,32.1,16.7c4.7,7.6,6.9,16.5,6.3,25.4
	c-2.1,36.7-37.1,60.3-47.8,66.7c-3.6,2.2-6.9,4.2-9.9,6.2c-11.6,7.8-19.5,13.7-23.2,16.6c-3.8-2.9-11.6-8.9-23.2-16.6
	c-2.1-1.4-4.3-2.8-6.7-4.3c8.6-8.8,14.5-19.7,17.3-31.6c11.9-4.6,17.8-17.9,13.2-29.7c-4.6-11.9-17.9-17.8-29.7-13.2
	c-11.9,4.6-17.8,17.9-13.2,29.7c1.8,4.7,5.2,8.8,9.5,11.4c-5.9,20-24.3,33.7-45.2,33.7h-18.9c-26,0-47.1-21.1-47.1-47.1v-58.7
	c1.7-1.7,2.7-4,2.7-6.4v-1.9c2-0.1,3.9-0.9,5.4-2.2c21.8-3.2,37.6-20.9,37.6-42.6V78c0-15.1-12.2-27.3-27.3-27.3h-0.8v-2.8
	c0-2.2-1.8-4-4-4h-5.7c-6.6,0-11.9,5.3-11.9,11.9v9.8c0,6.6,5.3,11.9,11.9,11.9h5.7c2.2,0,4-1.8,4-4v-2.8h0.8c4,0,7.3,3.3,7.3,7.3
	v64.2c0.1,6.7-2.9,13.1-8,17.4c-1.7,1.4-1.9,3.9-0.5,5.6s3.9,1.9,5.6,0.5c0,0,0,0,0.1-0.1c6.9-5.9,10.9-14.5,10.8-23.5V78
	c0-8.4-6.8-15.3-15.3-15.3h-0.8v-4h0.8c10.6,0,19.3,8.6,19.3,19.3v64.2c0,16.2-10.7,29.6-26.2,33.8v-7.2c0-2.2-1.8-4-4-4H43.2
	c-10.8-2.1-18.7-11.5-18.7-22.6V78c0-4,3.3-7.3,7.3-7.3h0.8v2.8c0,2.2,1.8,4,4,4h5.7c6.6,0,11.9-5.3,11.9-11.9v-9.8
	c0-6.6-5.3-11.9-11.9-11.9h-5.7c-2.2,0-4,1.8-4,4v2.8h-0.8C16.8,50.7,4.6,62.9,4.5,78v64.2C4.5,163.9,20.2,181.6,42.1,184.7z
	 M79.9,69.5h-1.7c-2.2,0-3.9-1.8-3.9-3.9v-9.8c0-2.2,1.8-3.9,3.9-3.9h1.7V69.5z M178.3,247.6c0-8.3,6.7-15,15-15s15,6.7,15,15
	c0,4.4-1.9,8.5-5.2,11.4c0.1-1.7,0.2-3.4,0.2-5.1c0-5.5-4.5-10-10-10s-10,4.5-10,10c0,1.6-0.1,3.1-0.2,4.7
	C180.1,255.7,178.3,251.8,178.3,247.6L178.3,247.6z M117.4,309h18.9c25.7,0,48-17.8,53.7-42.9c0-0.1,0-0.2,0.1-0.3
	c0.9-3.9,1.3-7.9,1.3-11.9c0-1.1,0.9-2,2-2s2,0.9,2,2c0,32.6-26.5,59.1-59.1,59.1h-18.9c-32.6,0-59.1-26.5-59.1-59.1v-56.1h4v56.1
	C62.3,284.3,86.9,309,117.4,309L117.4,309z M73.7,177.7c0,0.3-0.1,0.6-0.3,0.8c0,0,0,0,0,0.1c-0.2,0.2-0.6,0.4-0.9,0.4H69
	c-2.2,0-4,1.8-4,4v5.9c0,0.5-0.4,1-1,1h-7.6c-0.5,0-1-0.4-1-1v-5.9c0-2.2-1.8-4-4-4H48c-0.7,0-1.2-0.6-1.2-1.2v-5h26.9V177.7z
	 M40.6,51.9h1.7c2.2,0,3.9,1.8,3.9,3.9v9.8c0,2.2-1.8,3.9-3.9,3.9h-1.7L40.6,51.9z M12.5,78c0-10.6,8.6-19.3,19.3-19.3h0.8v4h-0.8
	c-8.4,0-15.3,6.8-15.3,15.3v64.2c0,13.8,9,25.9,22.2,29.7v4.1c-15.5-4.2-26.2-17.6-26.2-33.8V78z"/>
<g>
	<path class="st6" d="M259.2,13.8c-18.8,17.9-62.2,9.8-62.2,9.8v63.3c0,7.5,1.3,14.9,4,21.9c15.6,39.5,58.2,47.4,58.2,47.4
		s42.6-7.9,58.2-47.4c2.7-7,4.1-14.4,4-21.9V23.6C321.5,23.6,278.1,31.7,259.2,13.8z"/>
	<path class="st7" d="M259.2,13.8c-3,2.8-6.6,5-10.4,6.6L197,72.3v14.6c0,5.7,0.7,11.3,2.3,16.8l80.2-80.2
		C271.8,21.8,264.5,18.8,259.2,13.8z"/>
	<path class="st7" d="M206.6,119.9c2.2,3.7,4.8,7.1,7.6,10.3L315.5,29.3v-4.9c-3.3,0.4-7.9,0.8-13,0.9L206.6,119.9z"/>
	<path class="st8" d="M317.4,108.8c2.7-7,4.1-14.4,4-21.9V23.6c0,0-43.4,8.1-62.2-9.8v142.4C259.2,156.2,301.8,148.3,317.4,108.8z"
		/>
	<path class="st7" d="M197,57.5l32.6-32.6c-2.6,0.2-5.1,0.4-7.6,0.4l-25,25V57.5z"/>
	<path class="st5" d="M320.7,19.6c-0.4,0.1-41.6,7.6-58.7-8.7c-0.1-0.1-0.2-0.1-0.2-0.2c-0.1-0.1-0.2-0.2-0.3-0.2
		c-0.1-0.1-0.2-0.1-0.3-0.2c-0.1-0.1-0.2-0.1-0.4-0.2c-0.1,0-0.2-0.1-0.4-0.1c-0.1,0-0.2-0.1-0.4-0.1c-0.1,0-0.2,0-0.4,0
		s-0.3,0-0.4,0s-0.2,0-0.4,0c-0.1,0-0.3,0-0.4,0.1c-0.1,0-0.2,0.1-0.3,0.1c-0.1,0-0.3,0.1-0.4,0.1c-0.1,0-0.2,0.1-0.3,0.2
		c-0.2,0.1-0.5,0.3-0.7,0.4c-0.1,0.1-0.2,0.1-0.2,0.2c-17.1,16.2-58.3,8.8-58.7,8.7c-2.2-0.4-4.3,1-4.7,3.2c0,0.2-0.1,0.5-0.1,0.7
		v63.3c-0.1,8,1.4,15.9,4.3,23.4c16.3,41.1,59.4,49.5,61.2,49.9h0c0.2,0,0.5,0.1,0.7,0.1h0c0.2,0,0.5,0,0.7-0.1h0
		c1.8-0.3,44.9-8.8,61.2-49.9c2.9-7.5,4.4-15.4,4.3-23.4V23.6c0-2.2-1.8-4-4-4C321.2,19.6,321,19.6,320.7,19.6L320.7,19.6z
		 M317.5,86.9c0.1,7-1.2,13.9-3.7,20.4c-13.5,34.1-48.9,43.5-54.5,44.8c-5.5-1.3-41-10.7-54.5-44.8c-2.5-6.5-3.8-13.5-3.7-20.4V28.2
		c11.5,1.5,41.2,3.8,58.2-9.2c17.1,13,46.7,10.7,58.2,9.2V86.9z"/>
</g>
</svg>
