<?xml version="1.0" encoding="utf-8"?>
<!-- Generator: Adobe Illustrator 25.4.1, SVG Export Plug-In . SVG Version: 6.00 Build 0)  -->
<svg version="1.1" id="icons" xmlns="http://www.w3.org/2000/svg" xmlns:xlink="http://www.w3.org/1999/xlink" x="0px" y="0px"
	 viewBox="0 0 340 340" style="enable-background:new 0 0 340 340;" xml:space="preserve">
<style type="text/css">
	.st0{fill:#D3D3D3;}
	.st1{fill:#F2F2F2;}
	.st2{fill:#0672B6;}
	.st3{fill:#94B554;}
	.st4{fill:#6F6F7F;}
	.st5{opacity:0.4;fill:#0672B6;}
	.st6{fill:#494456;}
	.st7{opacity:0.4;fill:#FFBF33;}
	.st8{opacity:0.2;fill:#FFBF33;}
	.st9{fill:#FFBF33;}
</style>
<rect x="157.6" y="213.5" class="st0" width="92.4" height="116.3"/>
<polygon class="st1" points="25.9,205.4 25.9,329.8 157.6,329.8 157.6,209.1 89.3,140.9 "/>
<polygon class="st2" points="266.3,217.2 160.4,217.2 169.9,207.3 272.7,207.3 "/>
<polygon class="st2" points="89.3,130.2 169.9,207.3 272.7,207.3 192.1,130.2 "/>
<path class="st3" d="M221.4,329.8c0,0,1.6-13.7,8.8-21.7c1.9-2.1,5.2-2.3,7.3-0.4c0.5,0.5,0.9,1.1,1.2,1.7l1.1,2.5
	c2.3-7.4,7-13.8,13.5-18.1c3.1-2.1,7.4-1.3,9.5,1.8c0.5,0.8,0.9,1.7,1.1,2.7l0.2,1c0,0,5.6-5.9,17.1-5c3.5,0.2,6.1,3.3,5.9,6.8
	c0,0.7-0.2,1.4-0.5,2l-1.4,3.3c0,0,16,4,20.5,23.4L221.4,329.8z"/>
<rect x="65" y="245.6" class="st4" width="48.6" height="84.2"/>
<rect x="183.7" y="250.4" class="st4" width="40.1" height="34.3"/>
<polygon class="st0" points="25.9,225.6 89.3,165.6 157.6,231.4 157.6,209.1 89.3,140.9 25.9,205.4 "/>
<polygon class="st5" points="89.3,130.2 8.7,207.3 18.2,217.2 89.3,149.2 160.4,217.2 169.9,207.3 "/>
<path class="st6" d="M25.9,225.7c-2.2,0-4,1.8-4,4v100.1c0,2.2,1.8,4,4,4h195.5c0.3,0,0.5,0,0.8-0.1c0.1,0,0.2,0,0.2-0.1
	c0.2,0,0.3-0.1,0.5-0.2c0.1,0,0.2-0.1,0.3-0.1c0.1-0.1,0.3-0.1,0.4-0.2c0.1-0.1,0.2-0.1,0.3-0.2c0.1-0.1,0.2-0.2,0.3-0.3
	c0.1-0.1,0.1-0.2,0.2-0.2c0.1-0.1,0.2-0.2,0.3-0.3c0.1-0.1,0.1-0.2,0.2-0.3c0.1-0.1,0.1-0.2,0.2-0.4c0-0.1,0.1-0.2,0.1-0.3
	c0-0.1,0.1-0.3,0.1-0.4c0-0.1,0.1-0.2,0.1-0.4c0-0.1,0-0.1,0-0.2c0.4-3.5,2.6-13.7,7.8-19.5c0.3-0.3,0.7-0.4,1-0.4
	c0.4,0.1,0.7,0.3,0.9,0.7l1.1,2.5c0.9,2,3.3,2.9,5.3,2c1.1-0.5,1.9-1.5,2.2-2.7c2.1-6.4,6.2-12,11.9-15.7c1.3-0.9,3.1-0.5,3.9,0.8
	c0.2,0.3,0.4,0.7,0.4,1.1l0.2,1c0.2,1.5,1.3,2.7,2.8,3.2c1.4,0.4,3,0,4-1.1c0.2-0.2,4.6-4.5,14-3.8c0.8,0.1,1.4,0.5,1.8,1.1
	c0.4,0.6,0.5,1.4,0.2,2.1l-1.4,3.3c-0.9,2,0.1,4.4,2.1,5.2c0.2,0.1,0.4,0.1,0.6,0.2c0.1,0,11,2.9,16.1,15.5h-61.7c-2.2,0-4,1.8-4,4
	s1.8,4,4,4h67.2c2.2,0,4-1.8,4-4c0-0.3,0-0.6-0.1-0.9c-3.5-15.2-13.4-22-19.2-24.7c1.9-5.4-0.9-11.3-6.3-13.2
	c-0.9-0.3-1.8-0.5-2.7-0.6c-5.3-0.5-10.7,0.5-15.5,2.9c-3.4-4.8-10-5.9-14.9-2.7c-5.1,3.4-9.2,7.9-12.2,13.3
	c-3.8-2.4-8.8-1.8-11.8,1.6c-5.6,6.2-8.2,15.4-9.2,20.4h-56.5v-90.4c0-2.2-1.8-4-4-4s-4,1.8-4,4v90.4h-36v-80.2c0-2.2-1.8-4-4-4H65
	c-2.2,0-4,1.8-4,4v80.2H29.9v-96.1C29.9,227.5,28.1,225.7,25.9,225.7z M69,249.6h40.6v76.2H69V249.6z"/>
<path class="st6" d="M18.2,221.2c1,0,2-0.4,2.8-1.1l68.3-65.3l68.3,65.3c0,0,0,0,0,0c0.2,0.2,0.4,0.3,0.6,0.4c0,0,0.1,0.1,0.1,0.1
	c0.2,0.1,0.3,0.2,0.5,0.2c0.1,0,0.1,0.1,0.2,0.1c0.2,0.1,0.3,0.1,0.5,0.1c0.1,0,0.1,0,0.2,0c0.2,0,0.4,0.1,0.6,0.1H246v58.6
	c0,2.2,1.8,4,4,4s4-1.8,4-4v-58.6h12.4c1.4,0,2.6-0.7,3.4-1.8l6.3-9.9v0c0.1-0.2,0.3-0.5,0.4-0.7c0,0,0,0,0,0
	c0.1-0.2,0.2-0.5,0.2-0.8c0-0.3,0-0.5,0.1-0.8c0-0.1,0-0.2,0-0.3c0-0.1,0-0.3-0.1-0.4c0-0.1,0-0.1-0.1-0.2c-0.1-0.4-0.3-0.8-0.6-1.2
	c0,0-0.1-0.1-0.1-0.1c-0.1-0.2-0.3-0.4-0.4-0.5l0,0l-80.6-77c-0.7-0.7-1.7-1.1-2.8-1.1H89.3c-0.2,0-0.5,0-0.7,0.1
	c-0.1,0-0.1,0-0.2,0c-0.2,0-0.3,0.1-0.5,0.1c-0.1,0-0.2,0.1-0.2,0.1c-0.2,0.1-0.3,0.1-0.4,0.2c-0.1,0-0.1,0.1-0.2,0.1
	c-0.2,0.1-0.4,0.3-0.5,0.4c0,0,0,0,0,0l-80.6,77c-1.6,1.5-1.7,4.1-0.1,5.7c0,0,0,0,0,0l9.5,9.9C16.1,220.7,17.1,221.2,18.2,221.2z
	 M267.5,207.9l-3.4,5.3h-94.4l3-3.1c1.5-1.6,1.5-4.1-0.1-5.7c0,0,0,0,0,0l-73.4-70.2h91.2L267.5,207.9z M89.3,135.8l74.9,71.6
	l-3.9,4.1l-68.2-65.2c-1.5-1.5-4-1.5-5.5,0l-68.2,65.2l-3.9-4.1L89.3,135.8z"/>
<path class="st6" d="M223.8,288.7c2.2,0,4-1.8,4-4v-34.3c0-2.2-1.8-4-4-4h-40.1c-2.2,0-4,1.8-4,4v34.3c0,2.2,1.8,4,4,4H223.8z
	 M187.7,254.4h32.1v26.3h-32.1L187.7,254.4z"/>
<g>
	<path class="st7" d="M263.6,14.7c-18.8,17.9-62.2,9.8-62.2,9.8v63.3c0,7.5,1.3,14.9,4,21.9c15.6,39.5,58.2,47.4,58.2,47.4
		s42.6-7.9,58.2-47.4c2.7-7,4.1-14.4,4-21.9V24.5C325.9,24.5,282.5,32.6,263.6,14.7z"/>
	<path class="st8" d="M263.6,14.7c-3,2.8-6.6,5-10.4,6.6l-51.8,51.8v14.6c0,5.7,0.7,11.3,2.3,16.8l80.2-80.2
		C276.2,22.7,268.9,19.7,263.6,14.7z"/>
	<path class="st8" d="M211,120.8c2.2,3.7,4.8,7.1,7.6,10.3L319.9,30.2v-4.9c-3.3,0.4-7.9,0.8-13,0.9L211,120.8z"/>
	<path class="st9" d="M321.8,109.7c2.7-7,4.1-14.4,4-21.9V24.5c0,0-43.4,8.1-62.2-9.8v142.4C263.6,157.1,306.2,149.2,321.8,109.7z"
		/>
	<path class="st8" d="M201.4,58.4L234,25.8c-2.6,0.2-5.1,0.4-7.6,0.4l-25,25V58.4z"/>
	<path class="st6" d="M325.1,20.5c-0.4,0.1-41.6,7.6-58.7-8.7c-0.1-0.1-0.2-0.1-0.2-0.2c-0.1-0.1-0.2-0.2-0.3-0.2
		c-0.1-0.1-0.2-0.1-0.3-0.2c-0.1-0.1-0.2-0.1-0.4-0.2c-0.1,0-0.2-0.1-0.4-0.1c-0.1,0-0.2-0.1-0.4-0.1c-0.1,0-0.2,0-0.4,0
		s-0.3,0-0.4,0s-0.2,0-0.4,0c-0.1,0-0.3,0-0.4,0.1c-0.1,0-0.2,0.1-0.3,0.1c-0.1,0-0.3,0.1-0.4,0.1c-0.1,0-0.2,0.1-0.3,0.2
		c-0.2,0.1-0.5,0.3-0.7,0.4c-0.1,0.1-0.2,0.1-0.2,0.2c-17.1,16.2-58.3,8.8-58.7,8.7c-2.2-0.4-4.3,1-4.7,3.2c0,0.2-0.1,0.5-0.1,0.7
		v63.3c-0.1,8,1.4,15.9,4.3,23.4c16.3,41.1,59.4,49.5,61.2,49.9h0c0.2,0,0.5,0.1,0.7,0.1h0c0.2,0,0.5,0,0.7-0.1h0
		c1.8-0.3,44.9-8.8,61.2-49.9c2.9-7.5,4.4-15.4,4.3-23.4V24.5c0-2.2-1.8-4-4-4C325.6,20.5,325.4,20.5,325.1,20.5L325.1,20.5z
		 M321.9,87.8c0.1,7-1.2,13.9-3.7,20.4c-13.5,34.1-48.9,43.5-54.5,44.8c-5.5-1.3-41-10.7-54.5-44.8c-2.5-6.5-3.8-13.5-3.7-20.4V29.1
		c11.5,1.5,41.2,3.8,58.2-9.2c17.1,13,46.7,10.7,58.2,9.2V87.8z"/>
</g>
</svg>
