<?xml version="1.0" encoding="utf-8"?>
<!-- Generator: Adobe Illustrator 25.4.1, SVG Export Plug-In . SVG Version: 6.00 Build 0)  -->
<svg version="1.1" id="icons" xmlns="http://www.w3.org/2000/svg" xmlns:xlink="http://www.w3.org/1999/xlink" x="0px" y="0px"
	 viewBox="0 0 340 340" style="enable-background:new 0 0 340 340;" xml:space="preserve">
<style type="text/css">
	.st0{fill:#FFBF33;}
	.st1{opacity:0.4;fill:#FFBF33;}
	.st2{fill:#EF7C2E;}
	.st3{fill:#FFD2E4;}
	.st4{opacity:0.2;fill:#FFBF33;}
	.st5{fill:#494456;}
</style>
<path class="st0" d="M210.8,302h95.4l0,0v20.8c0,4-3.2,7.2-7.2,7.2c0,0,0,0,0,0h-88.2l0,0V302L210.8,302z"/>
<rect x="210.8" y="274.1" class="st0" width="95.4" height="28"/>
<path class="st0" d="M210.8,246.1H299c4,0,7.2,3.2,7.2,7.2c0,0,0,0,0,0v20.8l0,0h-95.4l0,0L210.8,246.1L210.8,246.1z"/>
<path class="st1" d="M19.2,302h95.4l0,0v28l0,0H26.5c-4,0-7.2-3.2-7.2-7.2l0,0V302L19.2,302z"/>
<rect x="19.2" y="274.1" class="st1" width="95.4" height="28"/>
<rect x="19.2" y="246.1" class="st1" width="95.4" height="28"/>
<rect x="19.2" y="218.1" class="st1" width="95.4" height="28"/>
<path class="st1" d="M26.5,190.2h88.2l0,0v28l0,0H19.2l0,0v-20.8C19.2,193.4,22.5,190.2,26.5,190.2
	C26.5,190.2,26.5,190.2,26.5,190.2z"/>
<path class="st0" d="M97.8,190.6c-7.1,8.4-12.6,18.1-16.1,28.5c-9.5,1-16.7,9-16.7,18.5v33.9c0,10.3,8.3,18.6,18.6,18.6h5.2
	c1.2,2,2.4,3.9,3.7,5.8c0.6,0.8,0.9,1.7,0.9,2.7V330h21.3V190.2H97.8L97.8,190.6z"/>
<path class="st1" d="M62,71.9l6.4,17.8c2.2,6.2,6.6,11.3,12.3,14.6l8.5,4.9l-8.5,4.9c-5.7,3.3-10,8.4-12.3,14.6L62,146.3l-6.3-17.4
	c-2.3-6.4-6.9-11.7-12.9-14.9l-9.1-4.9l9.1-4.9c6-3.2,10.5-8.5,12.9-14.9L62,71.9z"/>
<path class="st0" d="M292.8,161.9l5.2,14.4c1.8,5,5.4,9.2,10,11.9l6.9,3.9l-6.9,3.9c-4.6,2.6-8.2,6.8-10,11.9l-5.2,14.4l-5.1-14.2
	c-1.9-5.2-5.6-9.5-10.4-12.1l-7.4-4l7.4-4c4.8-2.6,8.6-6.9,10.4-12.1L292.8,161.9z"/>
<path class="st2" d="M210.8,246.1V330H235v-33.5c10.1-14.4,15.6-31.6,15.7-49.2v-1.2L210.8,246.1z"/>
<path class="st3" d="M250,229c-0.1-4.9-3-9.3-7.5-11.3c-2.5-1.2-5.2-1.5-7.9-0.8c-16.6-39.1-61.6-57.3-100.7-40.8
	c-0.2,0.1-0.3,0.1-0.5,0.2c-3.5,1.5-7.6,1.3-10.9-0.6c-4.5-2.3-9.4-3.6-14.5-3.8c-1,0-1.9,0.8-1.9,1.8c0,0.1,0,0.2,0,0.3l2.1,20
	c-9.3,9.8-15.9,21.9-19,35.1h-5.7c-4.7,0-8.6,3.8-8.6,8.6v33.9c0,4.7,3.8,8.6,8.6,8.6c0,0,0,0,0,0h11.2c1.7,3.5,3.7,6.9,5.9,10.2
	c1.7,2.5,2.6,5.4,2.7,8.4V321c0,5,4,9,9,9c0,0,0,0,0,0h12.2c4.9,0,9-4,9-9c0,0,0,0,0,0v-3.8c19.6,8.5,41.9,8.4,61.5-0.2v4.1
	c0,5,4,9,9,9H216c4.9,0,9-4,9-9c0,0,0,0,0,0v-27.8c10.2-13.3,15.7-29.7,15.7-46.5c0-1.9-0.1-3.7-0.2-5.6
	C246.1,239.8,250,234.8,250,229z"/>
<path class="st1" d="M258.5,10c-18.8,17.9-62.2,9.8-62.2,9.8v63.3c0,7.5,1.3,14.9,4,21.9c15.6,39.5,58.2,47.4,58.2,47.4
	s42.6-7.9,58.2-47.4c2.7-7,4.1-14.4,4-21.9V19.8C320.8,19.8,277.4,27.9,258.5,10z"/>
<path class="st4" d="M258.5,10c-3,2.8-6.6,5-10.4,6.6l-51.8,51.8v14.6c0,5.7,0.8,11.3,2.3,16.8l80.2-80.2
	C271.1,18,263.8,15,258.5,10z"/>
<path class="st4" d="M205.9,116.1c2.2,3.7,4.8,7.1,7.6,10.3L314.8,25.5v-4.9c-3.3,0.4-7.9,0.8-13,0.9L205.9,116.1z"/>
<path class="st0" d="M316.7,105c2.7-7,4.1-14.4,4-21.9V19.8c0,0-43.4,8.1-62.2-9.8v142.4C258.5,152.4,301.1,144.5,316.7,105z"/>
<path class="st4" d="M196.3,53.7l32.6-32.6c-2.6,0.2-5.1,0.4-7.6,0.4l-25,25V53.7z"/>
<path class="st5" d="M26.5,334h61.8c2.2,0,4-1.8,4-4s-1.8-4-4-4H26.5c-1.8,0-3.2-1.4-3.2-3.2V306h60.4c2.2,0,4-1.8,4-4s-1.8-4-4-4
	H23.2v-20h34.9c2.2,0,4-1.8,4-4s-1.8-4-4-4H23.2v-20h34.2c2.2,0,4-1.8,4-4s-1.8-4-4-4H23.2v-20h43.5c2.2,0,4-1.8,4-4s-1.8-4-4-4
	H23.2v-16.8c0-1.8,1.4-3.2,3.2-3.2h60c2.2,0,4-1.8,4-4s-1.8-4-4-4h-60c-6.2,0-11.2,5-11.2,11.2v125.4C15.2,329,20.3,334,26.5,334z"
	/>
<path class="st5" d="M256.1,270.1c-2.2,0-4,1.8-4,4s1.8,4,4,4h46.1v20h-57.6c-2.2,0-4,1.8-4,4s1.8,4,4,4h57.6v16.8
	c0,1.8-1.4,3.2-3.2,3.2h-54.4c-2.2,0-4,1.8-4,4s1.8,4,4,4H299c6.2,0,11.2-5,11.2-11.2v-69.5c0-6.2-5-11.2-11.2-11.2h-38.5
	c-2.2,0-4,1.8-4,4s1.8,4,4,4H299c1.8,0,3.2,1.4,3.2,3.2v16.8H256.1z"/>
<path class="st5" d="M244.2,214c-2.2-1.1-4.7-1.6-7.1-1.5c-18.5-39.5-65.1-57.2-105.2-39.9c-2.4,1-5.1,0.9-7.4-0.4
	c-5.8-3-12.3-4.5-18.8-4.3c-2.2,0.1-3.9,2-3.7,4.2c0,0.1,0,0.1,0,0.2l2.1,20.2c-8.4,9.3-14.5,20.4-17.9,32.4h-2.6
	c-6.9,0-12.6,5.6-12.6,12.6v33.9c0,6.9,5.6,12.6,12.6,12.6h8.7c1.5,2.9,3.2,5.7,5.1,8.4c1.3,1.8,1.9,3.9,2,6.1V321
	c0,7.2,5.8,13,13,13h12.2c6.4,0,11.8-4.7,12.8-11c17.4,6.1,36.4,6,53.8-0.2c0.9,6.4,6.4,11.2,12.8,11.2H216c7.2,0,13-5.8,13-13
	v-26.5c10.2-13.8,15.7-30.6,15.7-47.8c0-0.9,0-1.8-0.1-2.8c5.8-2.7,9.4-8.6,9.4-14.9C253.9,222.5,250.1,216.7,244.2,214z M246,229
	c0,3.9-2.7,7.4-6.5,8.3c-1.9,0.5-3.2,2.2-3.1,4.2c0.1,2,0.2,3.7,0.2,5.3c0,15.9-5.2,31.4-14.9,44c-0.5,0.7-0.8,1.5-0.8,2.4V321
	c0,2.7-2.2,5-5,5h-12.2c-2.7,0-5-2.2-5-5V317c0-2.2-1.8-4-4-4c-0.6,0-1.1,0.1-1.6,0.3c-18.6,8.2-39.7,8.3-58.3,0.2
	c-2-0.9-4.4,0.1-5.3,2.1c-0.2,0.5-0.3,1-0.3,1.6v3.8c0,2.7-2.2,5-5,5h-12.2c-2.7,0-5-2.2-5-5v-22.5c0-3.8-1.2-7.5-3.4-10.6
	c-2.1-3.1-4-6.3-5.6-9.6c-0.7-1.4-2.1-2.3-3.6-2.3H83.5c-2.5,0-4.6-2.1-4.6-4.6v-33.9c0-2.5,2.1-4.6,4.6-4.6h5.7
	c1.9,0,3.5-1.3,3.9-3.1c3-12.5,9.2-23.9,18-33.2c0.8-0.8,1.2-2,1.1-3.2l-1.8-17.4c3.6,0.4,7,1.4,10.2,3.1c4.4,2.5,9.8,2.8,14.5,0.8
	c36.9-15.9,79.8,1.1,95.7,38c0.1,0.1,0.1,0.3,0.2,0.4c0.8,1.8,2.7,2.8,4.6,2.3c1.8-0.5,3.6-0.3,5.3,0.5
	C243.9,222.6,245.9,225.6,246,229z"/>
<path class="st5" d="M91.2,105.6l-8.5-4.9c-4.9-2.8-8.6-7.2-10.5-12.5l-6.4-17.8c-0.8-2.1-3-3.2-5.1-2.4c-1.1,0.4-2,1.3-2.4,2.4
	L52,87.9c-2,5.5-5.9,10-11,12.8l-9.1,4.9c-1.9,1-2.7,3.5-1.6,5.4c0.4,0.7,0.9,1.2,1.6,1.6l9.1,4.9c5.1,2.8,9,7.3,11,12.8l6.3,17.4
	c0.8,2.1,3,3.2,5.1,2.4c1.1-0.4,2-1.3,2.4-2.4l6.4-17.8c1.9-5.3,5.6-9.7,10.5-12.5l8.5-4.9c1.9-1.1,2.6-3.5,1.5-5.5
	C92.4,106.5,91.9,106,91.2,105.6L91.2,105.6z M78.8,110.5c-6.5,3.7-11.5,9.6-14.1,16.7l-2.7,7.4l-2.6-7c-2.6-7.3-7.9-13.4-14.7-17.1
	l-2.5-1.4l2.5-1.4c6.8-3.7,12.1-9.8,14.7-17.1l2.6-7l2.7,7.4c2.6,7.1,7.5,13,14.1,16.7l2.4,1.4L78.8,110.5z"/>
<path class="st5" d="M275.3,199.7c4,2.1,7,5.7,8.6,10l5.1,14.2c0.8,2.1,3,3.2,5.1,2.4c1.1-0.4,2-1.3,2.4-2.4l5.2-14.4
	c1.5-4.1,4.4-7.6,8.2-9.7l6.9-3.9c1.9-1.1,2.6-3.5,1.5-5.5c-0.4-0.6-0.9-1.1-1.5-1.5l-6.9-3.9c-3.8-2.2-6.7-5.6-8.2-9.7l-5.2-14.4
	c-0.8-2.1-3-3.2-5.1-2.4c-1.1,0.4-2,1.3-2.4,2.4l-5.1,14.2c-1.5,4.3-4.6,7.8-8.6,10l-7.4,4c-1.9,1-2.7,3.5-1.6,5.4
	c0.4,0.7,0.9,1.2,1.6,1.6L275.3,199.7z M279.1,191.7c5.7-3.1,10.1-8.2,12.3-14.3l1.4-3.8l1.5,4.1c2.1,5.9,6.3,10.8,11.8,14l0.8,0.5
	l-0.8,0.5c-5.4,3.1-9.6,8.1-11.7,14l-1.5,4.1l-1.4-3.8c-2.2-6.1-6.6-11.2-12.3-14.3l-0.8-0.5L279.1,191.7z"/>
<path class="st5" d="M178.8,186.4c-9.6-3.3-20-3.3-29.5,0c-2,0.8-3,3.2-2.2,5.2c0.8,2,3.1,3,5.2,2.2c7.7-2.6,16.1-2.6,23.8,0
	c2.1,0.8,4.4-0.3,5.1-2.4C182,189.4,180.9,187.2,178.8,186.4L178.8,186.4z"/>
<path class="st5" d="M323.3,16.7c-0.9-0.8-2.1-1.1-3.3-0.9c-0.4,0.1-41.6,7.5-58.7-8.7C261.2,7,261.1,7,261,6.9
	c-0.1-0.1-0.2-0.2-0.3-0.2s-0.2-0.1-0.3-0.2s-0.2-0.1-0.3-0.2c-0.1,0-0.3-0.1-0.4-0.1c-0.1,0-0.2-0.1-0.4-0.1s-0.3,0-0.4,0
	s-0.2,0-0.4,0s-0.3,0-0.4,0s-0.2,0-0.4,0c-0.1,0-0.3,0.1-0.4,0.1c-0.1,0-0.2,0.1-0.4,0.1c-0.1,0.1-0.2,0.1-0.4,0.2
	c-0.1,0.1-0.2,0.1-0.3,0.2c-0.1,0.1-0.2,0.2-0.3,0.3c-0.1,0.1-0.2,0.1-0.2,0.2c-17.1,16.2-58.3,8.8-58.7,8.7c-2.2-0.4-4.3,1-4.7,3.2
	c0,0.2-0.1,0.5-0.1,0.7v63.3c-0.1,8,1.4,15.9,4.3,23.4c16.3,41.1,59.4,49.5,61.2,49.9h0c0.2,0,0.5,0.1,0.7,0.1h0
	c0.2,0,0.5,0,0.7-0.1h0c1.8-0.3,44.9-8.8,61.2-49.9c2.9-7.5,4.4-15.4,4.3-23.4V19.8C324.8,18.6,324.2,17.4,323.3,16.7z M316.8,83.1
	c0.1,7-1.2,13.9-3.7,20.4c-13.5,34.2-49,43.5-54.5,44.8c-5.5-1.3-40.9-10.6-54.5-44.8c-2.5-6.5-3.8-13.5-3.7-20.4V24.4
	c11.5,1.5,41.1,3.8,58.2-9.2c17.1,13,46.7,10.7,58.2,9.2V83.1z"/>
<circle class="st5" cx="120.2" cy="228.8" r="4"/>
</svg>
