<?xml version="1.0" encoding="utf-8"?>
<!-- Generator: Adobe Illustrator 25.4.1, SVG Export Plug-In . SVG Version: 6.00 Build 0)  -->
<svg version="1.1" id="icons" xmlns="http://www.w3.org/2000/svg" xmlns:xlink="http://www.w3.org/1999/xlink" x="0px" y="0px"
	 viewBox="0 0 340 340" style="enable-background:new 0 0 340 340;" xml:space="preserve">
<style type="text/css">
	.st0{fill:#0672B6;}
	.st1{opacity:0.4;fill:#0672B6;}
	.st2{fill:#494456;}
	.st3{opacity:0.4;fill:#FFBF33;}
	.st4{opacity:0.2;fill:#FFBF33;}
	.st5{fill:#FFBF33;}
</style>
<path class="st0" d="M84.3,102.1l143.9,121.6c4.9,4.2,11.2,6.5,17.6,6.5h31.4c8.2,0,16,3,22,8.5l16.7,15.2l-63.3,19.7
	c-21.5,6.7-44.8,1.9-62-12.5L20.3,117.8C8,107.4,13.9,87.3,29.9,85.2c5.9-0.8,12-0.7,17.9,0.2C61.3,87.4,73.9,93.2,84.3,102.1z"/>
<path class="st1" d="M102.6,175.1c-1.3-1.1-3.3-1-4.4,0.3c-0.5,0.6-0.8,1.4-0.8,2.2l3.9,87.3c0.4,7.4,3.6,14.4,9,19.6l30,28.5
	l5.7-94c0.2-3.3-1.1-6.6-3.6-8.8L102.6,175.1z"/>
<path class="st1" d="M125,142.7l66.5,13.5c4.7,1,9.2,2.8,13.2,5.3l16.7,10.7l-52.6,10.6L125,142.7z"/>
<path class="st2" d="M189.7,178.7c0.4,1.9,2,3.2,3.9,3.2c0.3,0,0.5,0,0.8-0.1l27.9-5.6c2.2-0.4,3.6-2.5,3.1-4.7
	c-0.2-1.1-0.9-2-1.8-2.6l-16.7-10.7c-4.4-2.8-9.4-4.8-14.5-5.9L136.5,141L86.9,99C76,89.7,62.6,83.6,48.4,81.4
	c-5.3-0.8-10.7-1-16.1-0.5h0h0c-1,0.1-1.9,0.2-2.8,0.3c-0.5,0.1-1,0.2-1.5,0.3c-0.1,0-0.2,0.1-0.4,0.1c-0.4,0.1-0.8,0.2-1.3,0.3
	L26,81.9c-2.6,0.7-5,1.9-7.2,3.5l-0.1,0c-0.4,0.3-0.7,0.5-1.1,0.8c-0.1,0.1-0.2,0.2-0.3,0.2c-0.3,0.2-0.5,0.5-0.8,0.7
	c-0.4,0.4-0.7,0.7-1.1,1.1l-0.1,0.1c-0.3,0.3-0.5,0.6-0.7,0.9l-0.1,0.1c-1.9,2.3-3.2,5-4.1,7.9c-2.6,8.6,0.2,17.8,7.1,23.5
	l75.7,63.7l3.8,80.6c0.4,8.5,4,16.5,10.2,22.3l30,28.5c1.6,1.5,4.1,1.5,5.7-0.1c0.6-0.7,1-1.6,1.1-2.5l5-81.9l39,32.8
	c18.2,15.4,43,20.4,65.8,13.3l63.3-19.7c2.1-0.7,3.3-2.9,2.6-5c-0.2-0.7-0.6-1.3-1.1-1.8L302,235.7c-6.8-6.1-15.6-9.6-24.7-9.5
	h-31.4c-5.5,0-10.8-2-15.1-5.5l-81.6-69l41.5,8.4c4.2,0.9,8.2,2.5,11.8,4.8l8.4,5.3l-18.2,3.7C190.6,174.4,189.2,176.5,189.7,178.7
	C189.7,178.7,189.7,178.7,189.7,178.7z M23,92.4C23,92.4,23,92.3,23,92.4c0.3-0.2,0.5-0.4,0.7-0.5c0.1-0.1,0.2-0.2,0.4-0.3
	c0.2-0.1,0.4-0.2,0.5-0.3s0.4-0.2,0.6-0.3c0.1-0.1,0.3-0.2,0.4-0.2c0.2-0.1,0.5-0.2,0.8-0.4c0.1-0.1,0.2-0.1,0.3-0.2
	c0.3-0.1,0.6-0.2,0.9-0.3c0.1,0,0.2-0.1,0.3-0.1c0.3-0.1,0.7-0.2,1.1-0.3c0.1,0,0.1,0,0.2-0.1c0.4-0.1,0.8-0.2,1.3-0.2h0h0
	c0.6,0.9,1.3,1.7,2,2.5c0.8,0.9,1.7,1.7,2.7,2.5l16.3,12.4l-5.8,4.8c-1.2,1-3.1,1-4.3,0l-15-12.3l0,0c-1.9-1.4-3.5-3.2-4.9-5.1
	C21.9,93.4,22.4,92.9,23,92.4z M245.9,234.2h31.4c7.2,0,14.1,2.7,19.4,7.5l11.5,10.5l-56.6,17.6c-20.1,6.3-42.1,1.9-58.2-11.8
	l-45-37.9c0,0,0,0-0.1,0c-0.1-0.1-0.2-0.2-0.4-0.2c-0.1-0.1-0.2-0.1-0.3-0.2c-0.1-0.1-0.2-0.1-0.4-0.2c-0.1,0-0.2-0.1-0.4-0.1
	s-0.2,0-0.3-0.1c-0.1,0-0.3-0.1-0.4-0.1c0,0-0.1,0-0.1,0c-0.1,0-0.2,0-0.3,0c-0.1,0-0.3,0-0.4,0c-0.1,0-0.3,0-0.4,0.1
	c-0.1,0-0.2,0-0.3,0.1c-0.1,0-0.3,0.1-0.4,0.2c-0.1,0-0.2,0.1-0.3,0.2c-0.1,0.1-0.2,0.1-0.4,0.2c-0.1,0.1-0.2,0.1-0.3,0.2
	c-0.1,0.1-0.2,0.2-0.3,0.3c-0.1,0.1-0.1,0.1-0.2,0.2c0,0,0,0,0,0.1c-0.1,0.1-0.2,0.2-0.3,0.4c-0.1,0.1-0.1,0.2-0.2,0.3
	c-0.1,0.1-0.1,0.2-0.2,0.4c-0.1,0.1-0.1,0.2-0.1,0.4c0,0.1,0,0.2-0.1,0.3c0,0.1-0.1,0.3-0.1,0.4c0,0,0,0.1,0,0.1l-4.9,81.3
	l-23.8-22.6c-4.7-4.4-7.4-10.5-7.7-16.9l-3.4-73.2l25.2,21.2c1.7,1.4,4.2,1.2,5.6-0.5c1.4-1.7,1.2-4.2-0.5-5.6l0,0L22.9,114.7
	c-3.7-3.1-5.6-7.8-5.1-12.6c1.1,1.1,2.2,2.2,3.5,3.1l15,12.3c4.2,3.5,10.3,3.4,14.5-0.1l9.6-8.1c1.7-1.4,1.9-3.9,0.5-5.6
	c-0.2-0.2-0.4-0.4-0.6-0.6L41.3,88.8c2,0.1,3.9,0.3,5.9,0.6c12.8,1.9,24.7,7.4,34.5,15.8l143.9,121.6
	C231.3,231.6,238.4,234.2,245.9,234.2L245.9,234.2z"/>
<path class="st2" d="M100.8,172.3c2.3,2.2,5.4,3.4,8.6,3.4c0.1,0,0.3,0,0.4,0c3.3-0.1,6.5-1.5,8.7-4l12.1-12.9
	c1.5-1.6,1.4-4.1-0.2-5.7c0,0,0,0,0,0l-3.8-3.5c-5.1-4.7-13-4.5-17.7,0.6c0,0,0,0,0,0l-12.1,12.9c-1.5,1.6-1.4,4.1,0.2,5.7
	c0,0,0,0,0,0L100.8,172.3z M114.8,155.7c1.7-1.8,4.6-1.9,6.4-0.2c0,0,0,0,0,0l0.8,0.8l-9.3,10c-1.7,1.8-4.6,1.9-6.4,0.2c0,0,0,0,0,0
	l-0.8-0.8L114.8,155.7z"/>
<path class="st2" d="M123.7,187.9c0,1.1,0.5,2.1,1.3,2.8l3.8,3.5c2.3,2.2,5.4,3.4,8.6,3.4c0.1,0,0.3,0,0.4,0c3.3-0.1,6.5-1.5,8.7-4
	l12.1-12.9c1.5-1.6,1.4-4.1-0.2-5.7l-3.8-3.5c-5.1-4.7-13-4.5-17.7,0.6c0,0,0,0,0,0l-12.1,12.9C124.1,185.8,123.7,186.9,123.7,187.9
	z M142.7,177.6c0.8-0.9,2-1.4,3.2-1.4c1.2,0,2.4,0.4,3.3,1.2l0.8,0.8l-9.3,10c-1.7,1.8-4.6,1.9-6.4,0.2l-0.8-0.8L142.7,177.6z"/>
<path class="st2" d="M150.9,212.5c0,1.1,0.5,2.1,1.3,2.8l3.8,3.5c2.3,2.2,5.4,3.4,8.6,3.4c0.1,0,0.3,0,0.4,0c3.3-0.1,6.5-1.5,8.7-4
	l12.1-12.9c1.5-1.6,1.4-4.1-0.2-5.7l-3.8-3.5c-5.1-4.7-13-4.5-17.7,0.6L152,209.6C151.3,210.4,150.9,211.4,150.9,212.5z
	 M169.9,202.1c1.7-1.8,4.6-1.9,6.4-0.2l0.8,0.8l-9.3,10c-1.7,1.8-4.6,1.9-6.4,0.2c0,0,0,0,0,0l-0.8-0.8L169.9,202.1z"/>
<g>
	<path class="st3" d="M262.4,18c-18.8,17.9-62.2,9.8-62.2,9.8V91c0,7.5,1.3,14.9,4,21.9c15.6,39.5,58.2,47.4,58.2,47.4
		s42.6-7.9,58.2-47.4c2.7-7,4.1-14.4,4-21.9V27.7C324.6,27.7,281.2,35.8,262.4,18z"/>
	<path class="st4" d="M262.4,18c-3,2.8-6.6,5-10.4,6.6l-51.8,51.8V91c0,5.7,0.7,11.3,2.3,16.8l80.2-80.2C274.9,26,267.7,23,262.4,18
		z"/>
	<path class="st4" d="M209.7,124c2.2,3.7,4.8,7.1,7.6,10.3L318.6,33.4v-4.9c-3.3,0.4-7.9,0.8-13,0.9L209.7,124z"/>
	<path class="st5" d="M320.6,112.9c2.7-7,4.1-14.4,4-21.9V27.7c0,0-43.4,8.1-62.2-9.8v142.4C262.4,160.4,305,152.5,320.6,112.9z"/>
	<path class="st4" d="M200.2,61.7l32.6-32.6c-2.6,0.2-5.1,0.4-7.6,0.4l-25,25V61.7z"/>
	<path class="st2" d="M323.9,23.8c-0.4,0.1-41.6,7.6-58.7-8.7c-0.1-0.1-0.2-0.1-0.2-0.2c-0.1-0.1-0.2-0.2-0.3-0.2
		c-0.1-0.1-0.2-0.1-0.3-0.2c-0.1-0.1-0.2-0.1-0.4-0.2c-0.1,0-0.2-0.1-0.4-0.1c-0.1,0-0.2-0.1-0.4-0.1c-0.1,0-0.2,0-0.4,0
		s-0.3,0-0.4,0s-0.2,0-0.4,0c-0.1,0-0.3,0-0.4,0.1c-0.1,0-0.2,0.1-0.3,0.1c-0.1,0-0.3,0.1-0.4,0.1c-0.1,0-0.2,0.1-0.3,0.2
		c-0.2,0.1-0.5,0.3-0.7,0.4c-0.1,0.1-0.2,0.1-0.2,0.2c-17.1,16.2-58.3,8.8-58.7,8.7c-2.2-0.4-4.3,1-4.7,3.2c0,0.2-0.1,0.5-0.1,0.7
		V91c-0.1,8,1.4,15.9,4.3,23.4c16.3,41.1,59.4,49.5,61.2,49.9h0c0.2,0,0.5,0.1,0.7,0.1h0c0.2,0,0.5,0,0.7-0.1h0
		c1.8-0.3,44.9-8.8,61.2-49.9c2.9-7.5,4.4-15.4,4.3-23.4V27.7c0-2.2-1.8-4-4-4C324.4,23.7,324.1,23.7,323.9,23.8L323.9,23.8z
		 M320.6,91c0.1,7-1.2,13.9-3.7,20.4c-13.5,34.1-48.9,43.5-54.5,44.8c-5.5-1.3-41-10.7-54.5-44.8c-2.5-6.5-3.8-13.5-3.7-20.4V32.4
		c11.5,1.5,41.2,3.8,58.2-9.2c17.1,13,46.7,10.7,58.2,9.2V91z"/>
</g>
<path class="st1" d="M124,152.5l3.8,3.5l-12.1,12.9c-3.2,3.5-8.6,3.6-12.1,0.4c0,0,0,0,0,0l-3.8-3.5l12.1-12.9
	C115.1,149.5,120.5,149.3,124,152.5C124,152.5,124,152.5,124,152.5z"/>
<path class="st1" d="M151.9,174.4l3.8,3.5l-12.1,12.9c-3.2,3.5-8.6,3.6-12.1,0.4c0,0,0,0,0,0l-3.8-3.5l12.1-12.9
	C143,171.4,148.4,171.2,151.9,174.4C151.9,174.4,151.9,174.4,151.9,174.4z"/>
<path class="st1" d="M179.1,199l3.8,3.5l-12.1,12.9c-3.2,3.5-8.6,3.6-12.1,0.4c0,0,0,0,0,0l-3.8-3.5l12.1-12.9
	C170.2,195.9,175.6,195.7,179.1,199C179.1,199,179.1,199,179.1,199z"/>
<path class="st1" d="M23.8,102.2l15,12.3c2.7,2.3,6.7,2.2,9.4,0l9.6-8.1L37.6,91c-0.8-0.6-1.5-1.2-2.1-2c-1.1-1.2-2.1-2.6-2.8-4.1
	c-0.9,0.1-1.8,0.2-2.7,0.3c-5.5,0.7-10.3,3.7-13.3,8.4C17.6,95.8,19.6,98.8,23.8,102.2z"/>
</svg>
