<?xml version="1.0" encoding="utf-8"?>
<!-- Generator: Adobe Illustrator 25.4.1, SVG Export Plug-In . SVG Version: 6.00 Build 0)  -->
<svg version="1.1" id="icons" xmlns="http://www.w3.org/2000/svg" xmlns:xlink="http://www.w3.org/1999/xlink" x="0px" y="0px"
	 viewBox="0 0 340 340" style="enable-background:new 0 0 340 340;" xml:space="preserve">
<style type="text/css">
	.st0{fill:#FFD6BB;}
	.st1{fill:#E9F4FF;}
	.st2{fill:#CAD8E5;}
	.st3{opacity:0.4;fill:#FFBF33;}
	.st4{fill:#FFBF33;}
	.st5{fill:#F4A28C;}
	.st6{fill:#EF913C;}
	.st7{fill:#FF7676;}
	.st8{opacity:0.2;fill:#FFBF33;}
	.st9{fill:#494456;}
	.st10{fill:#FFE1EB;}
	.st11{fill:#E271A0;}
	.st12{fill:#F2B8D0;}
	.st13{fill:#6F6F7F;}
</style>
<path class="st0" d="M22,268.9c-5.1,20-8,40.5-8.7,61.1h22.8l3.9-56.5L22,268.9z"/>
<path class="st0" d="M127.2,268.9c5.1,20,8,40.5,8.7,61.1h-22.8l-3.9-56.5L127.2,268.9z"/>
<path class="st1" d="M127.2,268.9c-13.1-44-42.8-56.6-42.8-56.6H64.8c0,0-29.6,12.5-42.8,56.6l14,8.5L32.7,330h83.8l-3.3-52.6
	L127.2,268.9z"/>
<path class="st2" d="M84.4,212.4H64.8c-4.5,2.2-8.8,5-12.6,8.3c9.2,10.3,29.3,25.9,63.3,21.6C101.5,219.6,84.4,212.4,84.4,212.4z"/>
<path class="st0" d="M64.8,189.6h19.7l0,0v22.7c0,5.4-4.4,9.8-9.8,9.8l0,0l0,0c-5.4,0-9.8-4.4-9.8-9.8l0,0V189.6L64.8,189.6z"/>
<path class="st3" d="M116.5,330l-3.3-52.6l0,0c0,0-14.5-16.3-8-48.8c-4.9-5.5-10.6-10.3-17-14.2c-1.4,20.2-7.5,31.9-11.1,37
	c-1,1.4-2.9,1.8-4.3,0.8c-0.3-0.2-0.6-0.5-0.8-0.8c-3.5-5.2-9.7-16.8-11.1-37c-6.3,3.9-12,8.7-17,14.2c6.5,32.5-8,48.8-8,48.8
	L32.7,330H116.5z"/>
<path class="st4" d="M36.1,277.4l-0.9,14.9h79l-0.9-14.9l0,0c-0.5-0.6-1-1.2-1.4-1.9H37.5C37,276.2,36.6,276.8,36.1,277.4z"/>
<polygon class="st4" points="33.8,313.2 32.7,330 74.6,330 116.5,330 115.4,313.2 "/>
<path class="st5" d="M64.8,204.9c6.3,2.9,12.9,5,19.7,6.2v-21.5H64.8V204.9z"/>
<path class="st4" d="M70.6,249.1V330h8v-80.9c-0.5,0.9-1,1.7-1.5,2.3c-1,1.4-2.9,1.7-4.3,0.8c-0.3-0.2-0.6-0.5-0.8-0.8
	C71.6,250.8,71.1,250,70.6,249.1z"/>
<path class="st0" d="M104,156.2v13.2c0,16.3-13.2,29.4-29.4,29.4l0,0c-16.3,0-29.4-13.2-29.4-29.4v-30H104L104,156.2z"/>
<rect x="45.2" y="139.5" class="st5" width="58.9" height="15.5"/>
<path class="st3" d="M111.2,133v-3.1c0-20.2-16.4-36.6-36.6-36.6c0,0,0,0,0,0l0,0c-20.2,0-36.6,16.4-36.6,36.6c0,0,0,0,0,0v3.1
	H111.2z"/>
<path class="st3" d="M38,133h73.2c3.6,0,6.5,2.9,6.5,6.5l0,0c0,3.6-2.9,6.5-6.5,6.5H38c-3.6,0-6.5-2.9-6.5-6.5l0,0
	C31.5,135.9,34.4,133,38,133z"/>
<path class="st6" d="M74.6,93.3L74.6,93.3c-6.1,0-12.2,1.5-17.5,4.5V133h35.1V97.8C86.8,94.9,80.7,93.3,74.6,93.3z"/>
<path class="st3" d="M71.4,87.7h6.4c3.1,0,5.6,2.5,5.6,5.6V133l0,0H65.8l0,0V93.3C65.8,90.2,68.3,87.7,71.4,87.7
	C71.4,87.7,71.4,87.7,71.4,87.7z"/>
<path class="st6" d="M38,128.7v4.3h73.2v-4.3c0-1.6-0.1-3.3-0.2-4.9H38.2C38.1,125.4,38,127,38,128.7z"/>
<path class="st7" d="M59.2,172.2c-0.2,5,2.2,9.7,6.4,12.4c5.5,3.6,12.5,3.6,18,0c4.2-2.7,6.6-7.4,6.4-12.4H59.2z"/>
<path class="st8" d="M103.5,243c0.1-4.9,0.7-9.7,1.7-14.5c-4.9-5.5-10.6-10.3-17-14.2c-0.5,8.8-2.3,17.4-5.3,25.7
	C89.6,242,96.6,243,103.5,243z"/>
<path class="st8" d="M61,214.4c-3.1,1.9-6,4-8.8,6.3c3.3,3.7,7.1,7,11.2,9.9C62.2,225.3,61.4,219.8,61,214.4z"/>
<path class="st9" d="M131.9,330.1c0.1,2.2,1.8,3.9,4,3.9c0,0,0.1,0,0.1,0c2.2-0.1,3.9-1.9,3.9-4.1c0,0,0,0,0,0
	c-0.7-20.9-3.7-41.7-8.9-62c0,0,0,0,0,0s0,0,0,0c-11.5-38.4-34.9-53.8-42.6-57.9v-10c11.9-5.4,19.6-17.3,19.6-30.4V150h3.2
	c5.8,0,10.5-4.7,10.5-10.5c0-4.2-2.6-8.1-6.5-9.7c-0.1-17.5-11.3-33-28-38.5c-0.9-4.5-4.8-7.7-9.4-7.7h-6.4c-4.6,0-8.5,3.2-9.4,7.7
	c-16.6,5.5-27.9,21-28,38.5c-5.3,2.2-7.9,8.3-5.7,13.7c1.6,3.9,5.4,6.5,9.7,6.5h3.2v19.5c0,13.1,7.7,25,19.6,30.4v10
	c-7.7,4.1-31.1,19.5-42.6,57.9c0,0,0,0,0,0s0,0,0,0c-5.2,20.3-8.2,41.1-8.9,62c-0.1,2.2,1.6,4.1,3.9,4.1c0,0,0,0,0,0
	c0,0,0.1,0,0.1,0c2.2,0,3.9-1.7,4-3.9c0.7-18.5,3.2-36.9,7.3-55l7.3,4.4l-3.2,50.2c0,0.3,0,0.5,0,0.8c0,0,0,0,0,0
	c0,0.3,0.1,0.5,0.2,0.7c0,0.1,0.1,0.1,0.1,0.2c0.1,0.2,0.2,0.4,0.3,0.5c0,0.1,0.1,0.1,0.2,0.2c0.1,0.1,0.2,0.3,0.3,0.4c0,0,0,0,0,0
	c0.1,0.1,0.1,0.1,0.2,0.2c0.1,0.1,0.2,0.2,0.4,0.3c0.1,0.1,0.2,0.1,0.3,0.2c0.1,0.1,0.3,0.2,0.4,0.2c0.1,0,0.2,0.1,0.3,0.1
	c0.1,0.1,0.3,0.1,0.4,0.1c0.1,0,0.3,0,0.4,0.1c0.1,0,0.2,0,0.3,0c0.1,0,0.2,0,0.3,0h83.8c0.1,0,0.2,0,0.3,0c0.1,0,0.2,0,0.3,0
	c0.1,0,0.3,0,0.4-0.1c0.1,0,0.3-0.1,0.4-0.1c0.1,0,0.2-0.1,0.3-0.1c0.1-0.1,0.3-0.1,0.4-0.2c0.1-0.1,0.2-0.1,0.3-0.2
	c0.1-0.1,0.2-0.2,0.4-0.3c0.1-0.1,0.1-0.1,0.2-0.2c0,0,0,0,0,0c0.1-0.1,0.2-0.3,0.3-0.4c0.1-0.1,0.1-0.1,0.2-0.2
	c0.1-0.2,0.2-0.4,0.3-0.5c0-0.1,0.1-0.1,0.1-0.2c0.1-0.2,0.1-0.5,0.2-0.7c0,0,0,0,0,0c0-0.3,0-0.5,0-0.8l-2.4-37.7l0,0l-0.8-12.5
	l7.3-4.4C128.8,293.2,131.2,311.6,131.9,330.1z M57.7,221.5c2.7,20.4,10,31.1,12.9,34.6v15.4H44.3c3.8-8.1,7.6-22,4.1-41.7
	C51.2,226.8,54.3,224,57.7,221.5z M83.2,223.2c-2,12.5-5.9,20.5-8.6,24.8c-2.7-4.3-6.6-12.3-8.6-24.8
	C71,227.2,78.2,227.2,83.2,223.2L83.2,223.2z M39.4,287.4l0.5-7.8h30.7v8.8H39.4L39.4,287.4z M37.5,317.2h22.9c2.2,0,4-1.8,4-4
	s-1.8-4-4-4H38.1l0.8-12.9h31.7V326H37L37.5,317.2z M111.2,309.2H78.6v-12.9h31.7L111.2,309.2z M78.6,317.2h33.1l0.6,8.8H78.6
	L78.6,317.2z M90.4,279.5h18.9l0.2,2.8l0.4,6H78.6v-32.2c2.9-3.6,10.3-14.3,12.9-34.6c3.3,2.5,6.5,5.3,9.3,8.4
	c-3.5,19.6,0.3,33.5,4.1,41.7H90.4c-2.2,0-4,1.8-4,4S88.2,279.5,90.4,279.5L90.4,279.5z M79.4,129h-9.6V97.7c3.2-0.5,6.4-0.5,9.6,0
	V129z M61.8,100V129H42C42.4,116.3,50.1,105,61.8,100L61.8,100z M35.5,139.5c0-1.4,1.1-2.5,2.5-2.5h45.4c2.2,0,4-1.8,4-4V100
	c11.7,5,19.4,16.3,19.8,29.1H98c-2.2,0-4,1.8-4,4s1.8,4,4,4h13.2c1.4,0,2.5,1.1,2.5,2.5s-1.1,2.5-2.5,2.5l0,0H38
	C36.7,142,35.5,140.9,35.5,139.5z M49.2,169.5V150H100v19.5c0.1,14-11.2,25.5-25.3,25.6c-14,0.1-25.5-11.2-25.6-25.3
	C49.2,169.7,49.2,169.6,49.2,169.5L49.2,169.5z M74.6,202.9c2,0,3.9-0.2,5.8-0.5v10c0,3.2-2.7,5.8-5.9,5.8c-3.2,0-5.7-2.6-5.8-5.8
	v-10C70.7,202.7,72.7,202.9,74.6,202.9z M41.4,238.2c1.7,17.9-3.5,29.1-6.4,33.9l-8.2-4.9C30.1,256.8,35,247,41.4,238.2z
	 M114.3,272.1c-2.9-4.8-8.1-16-6.4-33.9c6.4,8.8,11.3,18.6,14.6,28.9L114.3,272.1z"/>
<path class="st9" d="M85.8,187.9c5.3-3.4,8.4-9.4,8.2-15.7c0-2.2-1.8-4-4-4H59.2c-2.2,0-4,1.8-4,4c-0.2,6.3,2.9,12.3,8.2,15.7
	C70.2,192.4,79,192.4,85.8,187.9L85.8,187.9z M67.8,181.2c-1.9-1.2-3.3-2.9-4-5h21.6c-0.7,2.1-2.2,3.8-4,5
	C77.3,183.9,72,183.9,67.8,181.2z"/>
<circle class="st9" cx="65.4" cy="160" r="4"/>
<circle class="st9" cx="83.8" cy="160" r="4"/>
<path class="st10" d="M197.8,265.7c-1.1-9.6-3.9-19-8.4-27.6c-5.7-10.7-12.5-20.7-20.3-29.9l-10.2-0.9l0,0l-10.2,0.9
	c-7.8,9.3-14.6,19.3-20.3,29.9c-4.5,8.6-7.4,17.9-8.4,27.6c-1.7,14.9-4.3,42.7-4.3,67.3h86.4C202.1,308.4,199.4,280.6,197.8,265.7z"
	/>
<path class="st11" d="M168.6,306.4c0.3-0.4,0.4-0.9,0.4-1.4l-4.5-64.5c-0.2-2.9-2.6-5.2-5.6-5.2l0,0c-2.9,0-5.4,2.3-5.6,5.2
	l-4.5,64.5c0,0.5,0.1,1,0.4,1.4l9,12.8c0.3,0.4,0.8,0.5,1.2,0.2c0.1-0.1,0.2-0.1,0.2-0.2L168.6,306.4z"/>
<path class="st12" d="M189.4,238.1c-5.7-10.7-12.5-20.7-20.3-29.9l-10.2-0.9l0,0l-10.2,0.9c0,0-2.1,2.4-5.2,6.5
	c0,0,11.7,21.8,46.7,25C189.9,239.2,189.6,238.7,189.4,238.1z"/>
<path class="st0" d="M158.9,188.3h-10.2v19.9c0,3.1,1.4,6.1,3.9,8.1l0.5,0.4c3.4,2.7,8.2,2.7,11.6,0l0.5-0.4c2.5-2,3.9-4.9,3.9-8.1
	v-19.9H158.9z"/>
<path class="st5" d="M148.7,188.3v13.7c5.7,4.8,12.5,8.2,19.8,9.7c0.4-1.1,0.6-2.3,0.6-3.4v-19.9H148.7z"/>
<path class="st13" d="M158.9,150.8h-29.4c-1.9-4.7-4.3-9.2-7-13.5c-3.8-5.8-5.6-12.7-5-19.7c0.7-8.3,2.9-19.1,9.5-28.2
	c0.6-0.9,1.8-1,2.7-0.4c0.1,0.1,0.2,0.2,0.3,0.3l11.2,13.7c0,0,4.9-8,12.3-10.8c1-0.4,2.1,0.1,2.5,1.1c0,0,0,0,0,0
	c1.1,3.1,4.5,10,13.3,14.9c2.1,1.1,4.2,2,6.5,2.7c3.2,1,10.5,3.9,15.7,9.6c5.4,5.8,6.9,14.3,3.8,21.6c-1.4,3.4-3.8,6.2-6.9,8.1
	L158.9,150.8z"/>
<path class="st0" d="M152,130.8L152,130.8c-4.2,3.1-9.8,3.3-14.2,0.4l-1-0.7c-2.2-1.5-5.1-0.9-6.6,1.3c-0.5,0.8-0.8,1.7-0.8,2.6
	v34.3c0,16.3,13.2,29.4,29.4,29.4l0,0c16.3,0,29.4-13.2,29.4-29.4v-18.4c0-6.5-3.7-12.4-9.6-15.2l-12.1-5.8
	C161.8,127.1,156.2,127.6,152,130.8z"/>
<path class="st7" d="M143.4,169.8c-0.2,5,2.2,9.7,6.4,12.4c5.5,3.6,12.5,3.6,18,0c4.2-2.7,6.6-7.4,6.4-12.4H143.4z"/>
<path class="st9" d="M124.8,236.3c-4.7,9-7.7,18.9-8.8,29c-1.6,14.6-4.3,42.7-4.3,67.5c0,2.1,1.5,3.9,3.6,4.1
	c2.2,0.2,4.2-1.4,4.4-3.6c0-0.1,0-0.3,0-0.4c0-24.5,2.7-52.4,4.3-66.8c1-9.1,3.7-18,8-26.1c4.5-8.3,9.6-16.2,15.4-23.6
	c0.8,1.1,1.7,2.2,2.8,3.1l0.5,0.4c4.8,3.9,11.7,3.9,16.6,0l0.5-0.4c1.1-0.9,2-1.9,2.8-3.1c5.8,7.4,10.9,15.4,15.4,23.6
	c4.3,8.1,7,17,8,26.1c1.6,14.4,4.3,42.2,4.3,66.6c0,2.1,1.5,3.9,3.6,4.2c2.2,0.2,4.2-1.4,4.4-3.6c0-0.1,0-0.3,0-0.4
	c0-24.9-2.7-53.1-4.3-67.7c-1.1-10.1-4.1-20-8.8-29c-5.6-10.5-12.3-20.4-19.9-29.5v-7.7c11.7-5.5,19.2-17.3,19.3-30.3v-16.3
	c2.9-2.2,5.2-5.2,6.6-8.6c3.7-8.8,1.9-18.9-4.6-25.9c-5.8-6.3-13.4-9.4-17.4-10.7c-2-0.6-3.9-1.4-5.8-2.4
	c-9.8-5.5-11.8-13.6-11.8-13.9c-0.5-2.2-2.6-3.5-4.7-3.1c0,0,0,0-0.1,0c-5.9,1.3-10.6,5.5-13.5,8.8L131.5,85
	c-0.8-0.9-1.9-1.5-3.1-1.5l0,0c-1.2,0-2.4,0.6-3.1,1.5c-8.6,10.4-11.2,23.3-11.9,32.3c-0.6,7.8,1.4,15.6,5.7,22.2
	c1.3,2,2.5,4,3.6,6.1c1.9,3.6,2.8,7.6,2.8,11.7v11.4c0,13,7.5,24.8,19.3,30.3v7.7C137.1,215.9,130.4,225.8,124.8,236.3z M121.3,118
	c0.5-6.7,2.2-15.8,7.3-23.9l9.4,11.5c1.4,1.7,3.9,2,5.6,0.6c0.3-0.3,0.6-0.6,0.9-1c0-0.1,3.5-5.6,8.5-8.3c3,6.4,8,11.6,14.2,14.9
	c2.3,1.2,4.7,2.3,7.2,3c2.7,0.9,9.3,3.4,14,8.5c4.3,4.7,5.6,11.5,3.1,17.4c-0.2,0.6-0.5,1.2-0.9,1.7c-2-4.8-5.6-8.6-10.2-10.9
	l-12.1-5.8c-6.1-3-13.4-2.2-18.8,1.8c-2.8,2.1-6.6,2.2-9.5,0.3l-1-0.7c-4-2.7-9.5-1.6-12.1,2.5c-1,1.4-1.5,3.1-1.5,4.8v0.1
	C122.3,129.7,120.9,123.8,121.3,118z M133.4,168.8v-34.3c0-0.3,0.1-0.5,0.4-0.7c0.1-0.1,0.2-0.1,0.4-0.1c0.1,0,0.3,0,0.4,0.1l1,0.7
	c5.7,3.8,13.2,3.6,18.8-0.5l0,0c3-2.3,7.1-2.7,10.5-1l12.1,5.8c4.5,2.2,7.3,6.7,7.3,11.6v18.4c0,14-11.4,25.4-25.4,25.4
	C144.8,194.2,133.4,182.8,133.4,168.8L133.4,168.8z M158.9,202.2c2.1,0,4.1-0.2,6.2-0.6v6.6c0,1.9-0.9,3.8-2.4,5l-0.5,0.4
	c-1.9,1.5-4.7,1.5-6.6,0l-0.5-0.4c-1.5-1.2-2.4-3-2.4-5v-6.6C154.7,202,156.8,202.2,158.9,202.2L158.9,202.2z"/>
<path class="st9" d="M158.9,324.2c1.3,0,2.5-0.6,3.3-1.7l10.2-14.5c0.5-0.8,0.8-1.7,0.7-2.6l-4.6-65.3c-0.4-5.3-4.9-9.3-10.2-8.9
	c-4.8,0.3-8.6,4.1-8.9,8.9l-4.6,65.3c-0.1,0.9,0.2,1.8,0.7,2.6l10.2,14.5C156.3,323.6,157.6,324.2,158.9,324.2z M157.3,240.7
	c0.1-0.9,0.8-1.5,1.7-1.5c0.8,0.1,1.4,0.7,1.5,1.5l4.5,63.9l-6.1,8.7l-6.1-8.7L157.3,240.7z"/>
<path class="st9" d="M170.1,185.5c5.3-3.4,8.4-9.4,8.2-15.7c0-2.2-1.8-4-4-4h-30.8c-2.2,0-4,1.8-4,4c-0.2,6.3,2.9,12.3,8.2,15.7
	C154.5,189.9,163.3,189.9,170.1,185.5z M152.1,178.8c-1.9-1.2-3.3-2.9-4-5h21.6c-0.7,2.1-2.2,3.9-4,5
	C161.5,181.5,156.2,181.5,152.1,178.8L152.1,178.8z"/>
<circle class="st9" cx="149.6" cy="152.3" r="4"/>
<circle class="st9" cx="168.1" cy="152.3" r="4"/>
<g>
	<path class="st3" d="M261.4,16.5c-18.8,17.9-62.2,9.8-62.2,9.8v63.3c0,7.5,1.3,14.9,4,21.9c15.6,39.5,58.2,47.4,58.2,47.4
		s42.6-7.9,58.2-47.4c2.7-7,4.1-14.4,4-21.9V26.2C323.6,26.2,280.2,34.3,261.4,16.5z"/>
	<path class="st8" d="M261.4,16.5c-3,2.8-6.6,5-10.4,6.6l-51.8,51.8v14.6c0,5.7,0.7,11.3,2.3,16.8l80.2-80.2
		C274,24.5,266.7,21.5,261.4,16.5z"/>
	<path class="st8" d="M208.8,122.5c2.2,3.7,4.8,7.1,7.6,10.3L317.6,32v-4.9c-3.3,0.4-7.9,0.8-13,0.9L208.8,122.5z"/>
	<path class="st4" d="M319.6,111.5c2.7-7,4.1-14.4,4-21.9V26.2c0,0-43.4,8.1-62.2-9.8v142.4C261.4,158.9,304,151,319.6,111.5z"/>
	<path class="st8" d="M199.2,60.2l32.6-32.6c-2.6,0.2-5.1,0.4-7.6,0.4l-25,25V60.2z"/>
	<path class="st9" d="M322.9,22.3c-0.4,0.1-41.6,7.6-58.7-8.7c-0.1-0.1-0.2-0.1-0.2-0.2c-0.1-0.1-0.2-0.2-0.3-0.2
		c-0.1-0.1-0.2-0.1-0.3-0.2c-0.1-0.1-0.2-0.1-0.4-0.2c-0.1,0-0.2-0.1-0.4-0.1c-0.1,0-0.2-0.1-0.4-0.1c-0.1,0-0.2,0-0.4,0
		s-0.3,0-0.4,0s-0.2,0-0.4,0c-0.1,0-0.3,0-0.4,0.1c-0.1,0-0.2,0.1-0.3,0.1c-0.1,0-0.3,0.1-0.4,0.1c-0.1,0-0.2,0.1-0.3,0.2
		c-0.2,0.1-0.5,0.3-0.7,0.4c-0.1,0.1-0.2,0.1-0.2,0.2c-17.1,16.2-58.3,8.8-58.7,8.7c-2.2-0.4-4.3,1-4.7,3.2c0,0.2-0.1,0.5-0.1,0.7
		v63.3c-0.1,8,1.4,15.9,4.3,23.4c16.3,41.1,59.4,49.5,61.2,49.9h0c0.2,0,0.5,0.1,0.7,0.1h0c0.2,0,0.5,0,0.7-0.1h0
		c1.8-0.3,44.9-8.8,61.2-49.9c2.9-7.5,4.4-15.4,4.3-23.4V26.2c0-2.2-1.8-4-4-4C323.4,22.2,323.1,22.2,322.9,22.3L322.9,22.3z
		 M319.6,89.5c0.1,7-1.2,13.9-3.7,20.4c-13.5,34.1-48.9,43.5-54.5,44.8c-5.5-1.3-41-10.7-54.5-44.8c-2.5-6.5-3.8-13.5-3.7-20.4V30.9
		c11.5,1.5,41.2,3.8,58.2-9.2c17.1,13,46.7,10.7,58.2,9.2V89.5z"/>
</g>
</svg>
