<?xml version="1.0" encoding="utf-8"?>
<!-- Generator: Adobe Illustrator 25.4.1, SVG Export Plug-In . SVG Version: 6.00 Build 0)  -->
<svg version="1.1" id="Layer_1" xmlns="http://www.w3.org/2000/svg" xmlns:xlink="http://www.w3.org/1999/xlink" x="0px" y="0px"
	 viewBox="0 0 2340 1560" style="enable-background:new 0 0 2340 1560;" xml:space="preserve">
<style type="text/css">
	.st0{fill:#E2E8F0;}
	.st1{fill:none;stroke:#0672B6;stroke-width:7;stroke-miterlimit:10;}
	.st2{opacity:0.4;enable-background:new    ;}
	.st3{fill:#0672B6;}
	.st4{fill:#CFF0FF;}
	.st5{fill:#FFBF33;}
	.st6{fill:#E9F3FD;}
	.st7{fill:none;stroke:#063573;stroke-width:4;stroke-miterlimit:10;}
	.st8{fill:none;stroke:#63C2E9;stroke-width:4;stroke-miterlimit:10;}
	.st9{fill:#063573;}
	.st10{fill:none;stroke:#063573;stroke-width:4;stroke-linecap:round;stroke-linejoin:round;stroke-miterlimit:10;}
	.st11{opacity:0.4;fill:none;stroke:#0672B6;stroke-miterlimit:10;enable-background:new    ;}
</style>
<image style="overflow:visible;" width="8358" height="5366" id="XMLID_3_" xlink:href="F057E813.png"  transform="matrix(0.24 0 0 0.24 234.48 175.44)">
</image>
<path id="XMLID_1_" class="st0" d="M2152.3,1391.3H187.7c-9.8,0-17.7-7.9-17.7-17.7V159c0-9.8,7.9-17.7,17.7-17.7h1964.5
	c9.8,0,17.7,7.9,17.7,17.7v1214.5C2170,1383.3,2162.1,1391.3,2152.3,1391.3z"/>
<g>
	<path class="st1" d="M380.5,959.5H213.9l25.2-119l268.8-282.8h91l-60.2,282.8h58.8l-25.2,119h-58.8l-18.2,86.8h-133L380.5,959.5z
		 M421.1,840.5l18.2-84l-69.3,84H421.1z"/>
	<path class="st1" d="M804.7,964.4c-28,0-52.4-7-73.2-20.9c-20.8-14-36.8-33.1-47.9-57.3c-11.2-24.2-16.8-52.1-16.8-83.7
		c0-35.2,6.3-68.3,18.9-99.1c12.6-30.9,29.6-58,51.1-81.3c21.5-23.3,45.9-41.5,73.2-54.6c27.3-13,55.9-19.6,85.8-19.6
		c28,0,52.4,7,73.1,20.9c20.8,14,36.8,33.2,47.9,57.6c11.2,24.5,16.8,52.5,16.8,84.1c0,35.2-6.3,68.3-18.9,99.2
		c-12.6,30.9-29.6,57.9-51.1,81c-21.5,23.1-46,41.2-73.5,54.2C862.6,957.9,834.1,964.4,804.7,964.4z M830.6,842.6
		c8.4,0,16.4-3.1,24.1-9.3s14.8-14.9,21.4-26c6.5-11.1,11.7-23.7,15.4-37.7c3.7-14,5.6-28.8,5.6-44.4c0-16.5-2.3-29.8-7-40.1
		c-4.7-10.2-11.4-15.4-20.3-15.4c-8.9,0-17.5,3.2-25.9,9.7s-15.8,15.2-22,26.4c-6.3,11.1-11.3,23.8-15.1,38.1
		c-3.7,14.2-5.6,28.9-5.6,44.1c0,16.5,2.6,29.7,7.7,39.7C814,837.6,821.3,842.6,830.6,842.6z"/>
	<path class="st1" d="M1208.9,1046.3 M1310.8,1046.3 M1329,959.5 M1371.9,757.1l-17.8,83.4h52 M1208.9,1046.3h-31.1l18.2-86.8
		h-166.6l25.2-119l202.3-212.9 M1236.6,840.5l18.2-84l-69.3,84H1236.6z"/>
</g>
<g class="st2">
	<path class="st3" d="M1761.7,1219.9c-9,4.1-13.1,15.2-10,24c2.8,7.9,10.3,10.7,11,11c7.9,2.9,18.1,0.2,23-8c5.1-8.6,2.3-19.5-5-25
		C1775.2,1217.8,1767.7,1217.1,1761.7,1219.9z"/>
	<path class="st3" d="M1751.7,1176.9c9,0.3,18,0.7,27,1c-0.1-33.9,0.5-68.9,2-105c2.6-63.7,7.5-124.1,14-181c-17,0.3-34,0.7-51,1"/>
</g>
<path class="st3" d="M1426.7,558.9c2.6-2.7,10.4,1.1,12.3,2c3.4,1.6,9,5,14.1,12.4c6.2-4.9,14.3-4.8,18.2-0.8
	c3.7,3.8,2.5,9.6,2.3,10.3c1.7,5.5,3.3,10.9,5,16.4c2.8,2.1,6.8,5.6,10.3,11c4,6.3,5.4,12.3,5.9,16c6.8,2,14-0.9,16.9-6.4
	c2.1-4,1.6-9-1.3-12.9c2.7-4.7,2.4-10.3-0.7-14.1c-3.8-4.8-10-4.6-10.7-4.6c7.2-0.8,13.3-5.1,15.9-11.1c2.4-5.8,0.6-11,0-12.4
	c10.6-12.3,9.1-20.7,8.7-22.4c-3-13.8-27-24.5-59.3-18.4c7.7-10.5,8.9-23.1,3.3-32.4c-1.1-1.8-6.3-10.4-16.9-11.2
	c-9.7-0.7-16.7,5.7-17.8,6.8c-1-1.2-4.8-5.3-11.5-6.3c-7.8-1.2-13.7,2.6-14.9,3.4c-1-1.9-3.3-5.3-7.5-7c-6.7-2.7-15.5,0.2-21.4,7.6
	c1.5-7.8-2-14.4-7-16c-4.5-1.4-8.7,1.8-9,2c-4.4,3.4-5.8,10.4-3,17c1.6-6.4-0.4-12.9-5-16c-6.5-4.4-15.6-0.5-20,5
	c-5.3,6.6-3.3,14.9-3,16c-1.3-0.9-8.9-5.7-16-3c-8.5,3.2-14,16.1-9,30c-5,0.5-12.1,1.7-20,5c-2.9,1.2-11.1,4.7-18,11
	c-13.2,12.1-23.6,36.1-14.3,54.7c1.8,3.5,5.4,9.2,13.3,14.3c-1.4,1-11.8,8.3-13,22c-1.1,12.1,5.7,20.4,7,22
	c-10.3,8.3-12.5,21.5-7.1,29.3c5,7.2,14.8,7.6,16.1,7.7c-4.2,11.2-0.3,23.6,9,30c8.2,5.6,19.3,5.6,28,0c-1-1.3-2.2-3.3-3-6
	c-1-3.3-1.1-6.2-0.9-8c5.1-5.4,5.4-8.9,4.9-11c-1.3-5.5-9.3-5.5-16-15c-1.7-2.4-4.2-6-3-9c1.1-2.9,4.6-2.8,6-6c1.4-3.3-1.4-5.3-1-9
	c0.7-5.9,9-10.7,16-12c7.1-1.3,7.8,2,17,2c10,0,21.7-4,23-10c0.5-2.3-0.5-5.1,1-6c0.9-0.6,2,0.1,5,0.2c0.8,0,1.8,0,3-0.2
	c0,0,4.8-0.8,8.9-3.8c10.4-7.5,8.2-25.5,8.1-26.2c-1.4-10.3-7.2-17.1-10-20c14,3.9,21.2,8.6,25.2,12.3c1.9,1.8,6.9,6.8,12.4,5.9
	c1.9-0.3,2.9-1.1,4-0.7c2,0.7,3.4,4.5,1.9,16.7c2-0.6,7.6-2.5,11.5-7.9c4.4-6.1,4.8-14.3,1.1-21.2c2-2.5,4.4-6.3,4.9-11.1
	C1427.3,564.2,1424.8,560.8,1426.7,558.9z"/>
<path class="st4" d="M1309.7,722.9c-2.7,1.6-2.6,11.3,4,16c4.8,3.4,11.5,3,16-1C1316.6,723.9,1311.6,721.7,1309.7,722.9z"/>
<path class="st4" d="M1324.7,733.9c-1.2,0.8,1.7,13,10,15c6.4,1.6,13.4-3.6,13-5c-0.3-1-4.4,0.6-10-1
	C1329.1,740.5,1325.7,733.2,1324.7,733.9z"/>
<path class="st5" d="M1391.7,1050.9c-1.9,0.5-11.2,2.6-23.8,5.8c-11.3,2.9-20.6,5.4-27.2,7.2c8.1,19.2,16.1,39.2,24,60
	c9.2,24.3,17.5,48.1,25,71c25.7,0.3,78.4-3.1,124-39c9.4-7.4,17.4-15.3,24-23c12.7-23.3,25.3-46.7,38-70c19-35,38-70,57-105
	c-30.9,18.8-57.5,31.7-76,40C1498.1,1024.1,1445.7,1037.4,1391.7,1050.9z"/>
<path class="st6" d="M1302.7,1035.9c-3,1.7,3.1,31.1,26,49c8.7,6.9,17.6,10.2,24,12c-4-11-8-22-12-33c-3.9-1.7-9.2-4.2-15-8
	C1309.7,1045.4,1304.6,1034.9,1302.7,1035.9z"/>
<path class="st6" d="M1302.7,1210.9c9.4-3,28.8-10.5,45.9-28.9c14-15,20.4-30.7,23.3-39.8c-7.7,6.7-23.7,18.6-47.2,23.6
	c-15.7,3.4-29.2,2.5-38.1,1.1C1292,1181.6,1297.3,1196.3,1302.7,1210.9z"/>
<path class="st6" d="M1936.7,782.9c1.3,3.8,5.4,14,16,21c5.7,3.8,11.3,5.3,15,6c4.3-6.3,8.7-12.7,13-19
	C1966,788.3,1951.3,785.6,1936.7,782.9z"/>
<g>
	<path class="st7" d="M1480.2,616.4c-2.5,1.4-9.6,5.1-19,4c-12.5-1.5-19.6-10.3-21-12"/>
	<path class="st7" d="M1429.5,630.6c-0.8,3.5-2.2,11.7,1.1,21.1c4.9,14,16.5,20.2,19,21.5c-2.4,5.3-4.9,10.6-7.3,15.8"/>
	<path class="st7" d="M1378.2,658.4c0.7,6,1.3,12,2,18"/>
	<path class="st7" d="M1461.2,637.4c0.7,6.3,1.3,12.7,2,19"/>
	<path class="st7" d="M1380.2,631.4c-3,3.6-8.2,9-16.2,13.4c-9.1,5-17.5,6.4-22.4,6.8"/>
	<path class="st7" d="M1324.2,715.6c-2.1-6.7-0.9-12.3,1.9-13.7c3.7-1.8,9.4,4.2,10.6,5.5c5.6,5.9,8.9,15.4,6.1,18
		c-1.7,1.6-5.6,0.3-7.8-1.2c-4.5-3.1-6.3-10.3-4-17.8"/>
	<path class="st7" d="M1315.3,687.9c-3.5,1.9-9.8,6.1-11.5,13.2c-3.3,14,14,27.5,18.8,31.3c13.1,10.3,27.5,12.4,35.4,12.8"/>
	<path class="st7" d="M1498.8,641.7c6,25.1,6.6,46,6.1,60c-0.8,22.7-1.9,43.7-15.6,63.3c-4.2,6-11.5,16.1-24.8,21.7
		c-16.9,7.1-33,2.6-44.2-0.7c-29.1-8.3-48-27.5-57.2-38.5"/>
	<path class="st7" d="M1483.6,771.5c3.6,9,7.2,18,10.7,26.9c2.7,6.8,5.4,13.6,8.1,20.4"/>
	<path class="st7" d="M1383.2,767.4c10.1,13.2,16.3,25.3,20,34c7.8,18.1,7.1,26.1,6,31c-1.3,5.8-4,10.2-6,13"/>
	<path class="st8" d="M1365.7,573.1c1.1,0.9,14,12,12.4,28.4c-0.3,3.5-2,14.4-11.6,20.8c-8.5,5.6-17.4,3.9-19.5,3.5
		c-1.8-0.3-11.6-2.2-12.2-7c-0.5-3.9,5.4-9.1,9.4-8c5.3,1.4,8.9,14.1,5.4,21.5c-4.4,9.4-21.4,12.8-42.2,7.1"/>
	<path class="st8" d="M1306.6,645.1c-5.9,0-11.1,2.9-12.8,7.3c-3.3,8.5,7.5,19.2,11.4,18.1c2.3-0.7,3.7-5.8,1.9-8.3
		c-2.8-4.1-15.1-2.8-17.7,2.8c-2.2,4.7,1.8,13.7,11.8,19"/>
	<path class="st8" d="M1368.5,517.1c2.9-2.2,11.4-8,22.4-6.8c16.1,1.8,28.5,17.3,29.3,31.4c0.1,1.8,0.6,12.6-6,16.4
		c-7,3.9-19.1-1.6-20-8.2c-0.7-5.3,5.7-11.8,11.9-12.3c10.5-0.8,23.2,15.6,21.5,30.2c-1.1,8.8-7.6,19.1-16.3,19.4
		c-5.3,0.2-11.8-3.3-12.6-7.9c-0.9-5.8,7.4-12.8,14-12.1c9,1,17,16.1,12.9,27.1c-2.4,6.5-8.2,9.6-10.4,10.6"/>
	<path class="st8" d="M1478.7,580.8c0.2-1.8,1.1-9.1-3-12.8c-7.5-6.7-26.2,3.6-25.7,9.2c0.3,3.3,7.8,6.5,10.2,4.6
		c3.2-2.6-0.6-16-9.3-23.2c-5.6-4.7-11.9-5.6-14.9-5.9"/>
	<path class="st8" d="M1479.7,525.5c3.5-1.9,12.1-5.8,22.6-3.6c12.5,2.5,28.1,13.7,26.9,28c-1,11.5-12.4,21.2-23,21
		c-5.4-0.1-12.5-2.7-13.1-6.6c-0.9-5.3,10.1-13.7,17.5-11.3c8.3,2.7,13.6,19.5,6.2,28.7c-4.4,5.6-12.7,7.6-21,5.1"/>
	<path class="st8" d="M1512.7,589.9c0.6,0.7,6.6,8,4.1,15.6c-1.2,3.6-4.8,8.5-8.5,7.7c-3.4-0.7-6.2-6.1-4.6-8.9
		c0.9-1.7,3.4-2.6,5.4-2.2c5.3,1,10.9,11.2,7.4,18.6c-2.1,4.5-7.2,7.2-12.8,7.3"/>
	<path class="st8" d="M1470.2,517.4c0.8-1,10.5-14,5.2-29c-0.6-1.6-5.9-16-18.5-17.4c-11.3-1.3-22.1,8.7-22.8,18.8
		c-0.6,7.6,4.5,15.8,7.2,15.4c2.7-0.4,4.5-10.1,2.2-18.1c-1.9-6.5-7-14.3-15-16.6c-15.2-4.5-32.2,13.3-30.1,21.7
		c1.1,4.5,8.1,7.9,11.8,6c6.9-3.6,6.7-28.4-3.7-33c-5.8-2.6-14.6,2.2-20.9,10.5"/>
	<path class="st8" d="M1297.3,519.6c-11.6-5.2-19.4-3.8-23-2.7c-23.9,7.2-39.3,44.9-26.6,69.8c4.8,9.4,12.8,15.1,18.8,18.3
		c-1.9-0.6-11.1-3.3-18.1,1.8c-9,6.6-8,21.4-3.5,30.5c2.4,4.8,5.8,7.9,8.1,9.7c-2.4,1-8.7,4.1-11.3,11c-3.8,10.1,3.3,21.5,10.7,26.9
		c4.7,3.4,9.5,4.4,12.4,4.8"/>
	<path class="st8" d="M1261.9,698.4c-0.3,1.5-2.2,13.7,5.8,22.4c8,8.7,22.7,10.3,34.4,2.4c-2.5,7.1-0.6,15,4.7,19.7
		c6.3,5.6,14.2,3.9,15.1,3.7c0.2,1.1,1.7,7.6,7.5,11c6,3.4,14,2.1,19.5-3.5"/>
	<path class="st8" d="M1378.9,477.4c0-8.6-4.2-15.2-8.5-16c-4.9-0.9-12.5,5.7-13.1,17.1c-0.3,1.2-2.3,8.6-0.3,9.8
		c1.9,1.1,7.5-3.1,7.5-7.3c0.2-6.6-13-17-24-13c-7.8,2.8-11.7,11.7-11.4,18.6c0.2,4,1.8,9.2,3.7,9.3c2,0.1,5.1-5.4,3.7-9
		c-2.4-6.1-19.2-10.3-27.9-1.8c-5.6,5.4-6.8,15-3.1,23.8"/>
	<path class="st9" d="M1491.4,791c-5,4.2-15.5,11.5-30.3,13.2c-30.5,3.4-52.2-20.1-54.6-22.9c9.2,4.4,17.2,6.7,23.1,8
		c9.5,2.1,16.7,3.7,25.7,1.6c7.5-1.8,12.9-5.4,15.9-7.4c5.7-3.9,9.7-8.2,12.2-11.3C1486,778.5,1488.7,784.8,1491.4,791z"/>
	<path class="st7" d="M1400.2,852.4c7.3,4.3,25.5,13.6,49,11c3.9-0.4,41.6-5.3,57-37c5.8-12.1,6.3-23.5,6-30"/>
	<path class="st7" d="M1379.8,860.4c7.1,5.2,25.1,17.1,51.2,19c7.8,0.6,41.6,2.1,69.3-22c29.1-25.2,28.9-58.8,28.8-64"/>
	<path class="st7" d="M1412.2,739.4c0.5-1,3.1-6,9-8c7.2-2.5,13.3,1.5,14,2"/>
	<path class="st7" d="M1369.1,864.4c-11.9,4.6-34.3,13.2-62.9,24c-38.9,14.7-48.4,18-58.7,27c-16.2,14.1-22.4,31.6-29.9,65
		c-11.7,52-5,72.7-18.1,126c-4.7,19.1-10.1,34.3-13.9,44c21.4,4,40.8,7.3,57.6,10c48.4,7.7,60.3,7.9,72.5,6c14.3-2.2,32-7.5,51.2-20
		"/>
	<path class="st7" d="M1275.5,1177.4c12.4,28.2,24.6,58.2,36.3,90c10.9,29.7,20.5,58.5,28.8,86"/>
	<path class="st7" d="M1290.2,1022.4c4.7,6.3,11.5,14.2,21.3,22c10.6,8.4,21,13.7,28.8,17"/>
	<path class="st7" d="M1314.7,987.4c17.1,45.5,31.5,84.8,42.7,116c28.4,79.1,41.9,116.8,53.3,169c3.7,16.9,6.3,30.9,7.9,40.5"/>
	<path class="st7" d="M1351,1057.4c19.5-3.8,48.9-9.9,84.3-19c54.3-13.9,92.3-24.1,137.1-46.5c24.9-12.5,44.4-25,57.3-34"/>
	<path class="st7" d="M1395.2,1192.4c18.9-2.2,43.7-7,71-18c20.8-8.3,37.8-18.1,51-27"/>
	<path class="st7" d="M1533.2,791.4c1.4-0.3,4.4-1,8.1-1.9c31.1-7.6,41.8-19.1,73.7-27.3c3.4-0.9,5.3-1.4,7.7-1.8
		c16.6-3.1,46-2.2,88,31.5"/>
	<path class="st7" d="M1871.2,871.4c17.7-34.3,35.3-68.7,53-103"/>
	<path class="st7" d="M1976.2,800.4c-9.9,18.5-16.6,53.1-25.5,78.5c-11.9,34-16.5,54-25.5,78.5"/>
	<path class="st7" d="M1934.2,749.4c1.3-9.1,4.6-21.3,14-31c9-9.2,18.5-10.9,30-16c11.7-5.2,27.2-14.8,43-34c1,2.5,2.3,6.7,2,12
		c-0.6,9.7-6.2,16.1-8,18"/>
	<path class="st7" d="M1983.2,715.4c14.1-4.7,25.9-7.4,34-9c14.7-2.9,18.2-2.7,31-6c12.6-3.2,11.5-4.2,29-9c13.8-3.8,22.6-5.5,33-4
		c3.9,0.5,7,1.4,9,2"/>
	<path class="st7" d="M2073.2,703.4c0,0,26.6-7.4,49-13c1.3-0.3,5.3-1.3,10,0c3.5,1,8.2,3.5,8,6c-0.1,0.5-0.4,1.8-3,3"/>
	<path class="st7" d="M2051.2,710.4c0.3,4.4,0.3,10.3-1,17c-1.8,9.3-5.3,16.4-8,21"/>
	<path class="st7" d="M1964.2,788.4c16.3,3.7,28.8,2.6,37,1c17.4-3.4,23.3-10.4,52-23c15.3-6.7,16.4-5.6,34-13
		c15.5-6.5,27.8-12.7,36-17c5.2-3.7,13.3-10,12-13c-1.3-3-11.2-1.6-20,0c-15.2,2.8-37.6,8-67,19"/>
	<path class="st7" d="M2062.2,718.4c15.1-3.1,30.5-6.5,46-10c10.1-2.3,20.1-4.6,30-7c5-0.3,9.1,1.3,10,4c0.9,2.8-2.1,6-5,9
		c-3.7,3.8-7.5,5.9-10,7"/>
	<path class="st7" d="M1649.7,863.9c2.7,13.3,5.3,26.7,8,40"/>
</g>
<path class="st3" d="M1745,1170.8c0,0-10-45-13-148s4-139,4-139s17-5,51-4c0,0-20,220-16,291h-13"/>
<path class="st3" d="M1763.6,1211c-6.6-0.6-13,7.5-15.4,14.1c-2.5,6.8-3.3,18.9,5.1,24.4c7.5,4.9,18.4,2.1,23.1-3.9
	C1785.1,1234.7,1774.1,1211.8,1763.6,1211z"/>
<path class="st10" d="M1408.7,1339.6c117.7-204.6,235.3-409.1,353-613.7c123.8,203.7,247.5,407.4,371.3,611.1
	C1891.5,1337.9,1650.1,1338.8,1408.7,1339.6z"/>
<path class="st11" d="M1166.7,1258.9c0.5,2.2,3.4,14.2,15,21c1.5,0.9,16.3,9.2,29,1c12-7.7,15.8-26.2,10-32
	c-3.1-3.1-9.4-3.3-12.5-0.5c-4.2,3.8-1.9,12.9,1,18c6.7,11.7,22.5,13.6,26,14c29.5,3.5,53.3-27.4,56-31"/>
<path class="st11" d="M1687.7,568.9c3.4,2.5,19.9,14.3,40,10c22.1-4.7,38.6-26.7,35-33c-2.7-4.7-18.6-3.7-24,4
	c-6.8,9.6,2.7,29.7,17,38c12.8,7.4,29.9,5.7,44-4"/>
<path class="st11" d="M2169,1036.7c-5.4,0.5-33.8,3.3-47.5,18.3c-9.3,10.2-10.5,24.6-4.3,26.4c5.8,1.6,21.1-6.9,23.2-16.6
	c2.2-10.1-10.6-18.5-21.3-21.6c-17.5-5.1-42.1-0.1-60,13.1"/>
</svg>
