<svg id="Layer_1" data-name="Layer 1" xmlns="http://www.w3.org/2000/svg" viewBox="0 0 450.87 686.21"><defs><style>.cls-1{font-size:69.94px;fill:#ffbe33;font-family:Raleway-Medium, Raleway;font-weight:500;letter-spacing:-0.03em;}.cls-2{letter-spacing:-0.02em;}.cls-3{letter-spacing:0em;}.cls-4{letter-spacing:-0.01em;}.cls-5{letter-spacing:-0.02em;}.cls-6{letter-spacing:-0.01em;}.cls-7{letter-spacing:-0.02em;}.cls-8{letter-spacing:-0.02em;}.cls-9{letter-spacing:-0.02em;}.cls-10{letter-spacing:-0.01em;}.cls-11{letter-spacing:0em;}.cls-12{fill:#0271b6;}</style></defs><g id="A_P_ASESORES" data-name="A&amp;P ASESORES"><text class="cls-1" transform="translate(183.01 600.54) scale(0.95 1)">A<tspan class="cls-2" x="45.09" y="0">&amp;</tspan><tspan class="cls-3" x="91.19" y="0">P</tspan><tspan class="cls-4"><tspan x="-107.82" y="69.94">A</tspan><tspan class="cls-5" x="-61.32" y="69.94">S</tspan><tspan class="cls-6" x="-19.96" y="69.94">E</tspan><tspan class="cls-7" x="21.69" y="69.94">S</tspan><tspan class="cls-8" x="62.78" y="69.94">O</tspan><tspan class="cls-9" x="113.87" y="69.94">R</tspan><tspan class="cls-10" x="158.33" y="69.94">E</tspan><tspan class="cls-11" x="199.99" y="69.94">S</tspan></tspan></text></g><path class="cls-12" d="M216.64,148.2S151.54,214.28,174.58,276c0,0-3.16-12.33,7.89-32.2,0,0,10.7,108.62,125.64,174.72,0,0,81.78,31.09,83.65,85.18,0,0,.49,22.87-11.18,29.34,0,0,13.16-32.43-45.76-61.58,0,0-95.4-44-107.18-71.45,0,0-7.78,26.73,35,49.38,0,0,28.61,16.93,36.85,16.93,0,0-56.73,2.82-103.12-53.47,0,0-37-49.43-32.25-106.6,0,0-13.1,8.4-39.51,8.77,0,0,10.08-16.78,14.07-52.85C138.64,262.15,152.65,167.41,216.64,148.2Z" transform="translate(-124.57 -6.89)"/><path class="cls-12" d="M365,122.67S169.39,201.73,304.46,386c0,0-172.59-108.12-51.84-264.57,0,0-39.85,14.92-62.43-7.64,0,0,39.68,5.3,64.46-39.5,0,0,24.7-46.88,119.51-7.54,0,0-13-17.05-41.49-26.59,0,0-21.55-5.63-19.14-33.31,0,0,6.08,22.71,71.34,25,0,0,29.68,4,49.24,27.69,0,0-.46-16.29-11.05-26.58,0,0-8-7.28-6.93-23.08,0,0,23.78,33.43,46,31.11,0,0,66.83-2,89.24,93.31,0,0,4.1,11.23-2.05,28.12,0,0-1.89,4-9.91-17,0,0-27.34-49.14-66.53-55.65,0,0-4.09,1,7.2,13.23,0,0,10.25,13.87,10.77,20.51,0,0-5.68.74-12.58-5.46,0,0-44.11-28.2-106.74-21.2,0,0-82.32,5.13-98.37,64.38,0,0,1.86,1.31,14.68-15.46C287.8,145.77,331.61,109.47,365,122.67Z" transform="translate(-124.57 -6.89)"/><path class="cls-12" d="M398.9,238.58S309,193,297.73,293.62c0,0-7-16.39,6.76-48.77,0,0-54.13,56.63-1.33,107.6,0,0,86.14,63.82,85.95,85.41,0,0,1.77,10.24-.39,13.05,0,0,34.31-43.35-49.25-96.88,0,0-43.43-35.87,5.95-69.85,0,0-24.1-9.54-10.9-31.48C334.52,252.7,350,228.1,398.9,238.58Z" transform="translate(-124.57 -6.89)"/><path class="cls-12" d="M543.13,354.21s0,.63,0,1.74c-.41,8.95-4.1,49.55-37.62,49.64,0,0,21.19-21.61,16.48-34.19s7.06,1.14,7.06,1.14S533.71,375.94,543.13,354.21Z" transform="translate(-124.57 -6.89)"/><path class="cls-12" d="M475.39,306.18s-25-20.64-39.82,9.14c0,0-1.09,27.85,22,23.1,0,0,37-13.16,64.22-33,0,0,22.94-20.94,32.71,4.21,0,0,7.89,5,0-14.08,0,0-14.17-16.85,7.81-40.26,0,0,18-19.71,11.76-23.85,0,0-2.69-3.17-16.83,9.5,0,0-4,2.93-10.82-5.93,0,0-4.26-4.13-9.09-1.92,0,0-6.68,1.69-18.71-5.48,0,0-16.45-8.59-11.29,5.84,0,0,4.9,12.85,20.92,13.64,0,0,22-2.09,20.78,25.65,0,0,.23,14.51-26.4,26.27C522.67,299,494.86,317.66,475.39,306.18Z" transform="translate(-124.57 -6.89)"/><path class="cls-12" d="M479.84,189.56l-11-11.86s-47.27-9.53-43-1.1l32.84,19.87s3.75,3.44,10.55,0S480.12,191.8,479.84,189.56Z" transform="translate(-124.57 -6.89)"/><path class="cls-12" d="M545.22,189.49l-11.81-.23s-6.19,9.13,0,9.31c0,0,2.93,2,8.09-2.34S550.83,189.37,545.22,189.49Z" transform="translate(-124.57 -6.89)"/><path class="cls-12" d="M124.57,533" transform="translate(-124.57 -6.89)"/></svg>