<svg id="Layer_1" data-name="Layer 1" xmlns="http://www.w3.org/2000/svg" viewBox="0 0 675 650.2"><defs><style>.cls-1,.cls-2,.cls-3{fill:#fff;}.cls-2{font-size:45.25px;}.cls-2,.cls-3{font-family:Raleway-Medium, Raleway;font-weight:500;}.cls-3{font-size:44.31px;}</style></defs><path class="cls-1" d="M350,26.9A344.6,344.6,0,0,1,480.62,52.3a335.4,335.4,0,0,1,106.64,69.26,321.68,321.68,0,0,1,71.89,102.7,313.19,313.19,0,0,1,0,251.48,321.68,321.68,0,0,1-71.89,102.7A335.4,335.4,0,0,1,480.62,647.7a348.56,348.56,0,0,1-261.24,0,335.4,335.4,0,0,1-106.64-69.26,321.68,321.68,0,0,1-71.89-102.7,313.19,313.19,0,0,1,0-251.48,321.68,321.68,0,0,1,71.89-102.7A335.4,335.4,0,0,1,219.38,52.3,344.6,344.6,0,0,1,350,26.9m0-2C163.6,24.9,12.5,170.45,12.5,350S163.6,675.1,350,675.1,687.5,529.55,687.5,350,536.4,24.9,350,24.9Z" transform="translate(-12.5 -24.9)"/><text class="cls-2" transform="matrix(0.52, -0.9, 0.87, 0.5, 82.61, 206.52)">A</text><text class="cls-2" transform="translate(97.73 180.19) rotate(-53.57) scale(1.04 1)">&amp;</text><text class="cls-2" transform="translate(116.27 155.13) rotate(-47.39) scale(1.04 1)">P</text><text class="cls-2" transform="matrix(0.75, -0.72, 0.69, 0.73, 135.08, 135.02)"> </text><text class="cls-2" transform="translate(141.97 127.9) rotate(-39.49) scale(1.04 1)">A</text><text class="cls-2" transform="matrix(0.86, -0.58, 0.55, 0.83, 165.56, 108.48)">S</text><text class="cls-2" transform="translate(188.75 93.01) rotate(-28.08) scale(1.04 1)">E</text><text class="cls-2" transform="matrix(0.96, -0.4, 0.38, 0.92, 213.17, 79.94)">S</text><text class="cls-2" transform="translate(238.77 69.08) rotate(-16.37) scale(1.04 1)">O</text><text class="cls-2" transform="matrix(1.02, -0.18, 0.17, 0.98, 271.7, 59.48)">R</text><text class="cls-2" transform="translate(301.37 54.26) rotate(-4.4) scale(1.04 1)">E</text><text class="cls-2" transform="translate(329.01 52.1) rotate(0.93) scale(1.04 1)">S</text><text class="cls-2" transform="translate(357.09 52.81) rotate(4.73) scale(1.04 1)"> </text><text class="cls-2" transform="matrix(1.03, 0.16, -0.16, 0.99, 368.42, 53.32)">D</text><text class="cls-2" transform="translate(400.84 58.57) rotate(14.99) scale(1.04 1)">E</text><text class="cls-2" transform="matrix(0.98, 0.34, -0.32, 0.95, 427.71, 66.04)"> </text><text class="cls-2" transform="translate(438.56 69.43) rotate(22.8) scale(1.04 1)">S</text><text class="cls-2" transform="matrix(0.91, 0.49, -0.47, 0.88, 464.29, 80.21)">E</text><text class="cls-2" transform="translate(488.15 92.85) rotate(34.27) scale(1.04 1)">G</text><text class="cls-2" transform="translate(515.19 111.14) rotate(41.06) scale(1.04 1)">U</text><text class="cls-2" transform="translate(541.23 133.93) rotate(47.67) scale(1.04 1)">R</text><text class="cls-2" transform="translate(561.58 156.01) rotate(54.33) scale(1.04 1)">O</text><text class="cls-2" transform="translate(581.45 183.92) rotate(60.87) scale(1.04 1)">S</text><text class="cls-3" transform="matrix(0.66, 0.8, -0.77, 0.64, 83.08, 503.85)">F</text><text class="cls-3" transform="translate(100.95 525.69) rotate(44.54) scale(1.04 1)">O</text><text class="cls-3" transform="matrix(0.82, 0.64, -0.62, 0.79, 127.17, 551.16)">R</text><text class="cls-3" transform="translate(152.26 570.76) rotate(32.64) scale(1.04 1)">T</text><text class="cls-3" transform="translate(174.86 585.38) rotate(27.53) scale(1.04 1)">A</text><text class="cls-3" transform="translate(204.23 600.47) rotate(21.99) scale(1.04 1)">L</text><text class="cls-3" transform="translate(230.77 611.12) rotate(16.8) scale(1.04 1)">E</text><text class="cls-3" transform="translate(259.17 619.63) rotate(11.43) scale(1.04 1)">Z</text><text class="cls-3" transform="translate(289.52 625.72) rotate(5.8) scale(1.04 1)">A</text><text class="cls-3" transform="matrix(1.04, 0.04, -0.04, 1, 320.32, 628.54)"> </text><text class="cls-3" transform="translate(333.26 629.38) rotate(-2.06) scale(1.04 1)">Q</text><text class="cls-3" transform="translate(369.73 627.97) rotate(-8.45) scale(1.04 1)">U</text><text class="cls-3" transform="translate(406 622.3) rotate(-14.33) scale(1.04 1)">E</text><text class="cls-3" transform="translate(434.09 614.81) rotate(-18.07) scale(1.04 1)"> </text><text class="cls-3" transform="translate(445.86 610.96) rotate(-20.31) scale(1.04 1)">I</text><text class="cls-3" transform="matrix(0.94, -0.44, 0.42, 0.91, 458.67, 606.64)">N</text><text class="cls-3" transform="translate(492.57 590.62) rotate(-30.91) scale(1.04 1)">S</text><text class="cls-3" transform="matrix(0.84, -0.62, 0.59, 0.81, 518.15, 575.22)">P</text><text class="cls-3" transform="matrix(0.79, -0.67, 0.65, 0.76, 542.09, 557.19)">I</text><text class="cls-3" transform="translate(552.46 548.76) rotate(-44.42) scale(1.04 1)">R</text><text class="cls-3" transform="matrix(0.66, -0.8, 0.77, 0.64, 575.45, 526.11)">A</text><path class="cls-1" d="M351.05,97.59C205.75,97.59,88,211.05,88,351S205.75,604.43,351.05,604.43,614.13,491,614.13,351,496.34,97.59,351.05,97.59Zm-78.4,97.94s20.28-37.08,98.14-6c0,0-10.66-13.49-34.07-21,0,0-17.7-4.45-15.73-26.35,0,0,5,18,58.6,19.74,0,0,24.37,3.14,40.43,21.91,0,0-.37-12.89-9.08-21,0,0-6.53-5.76-5.68-18.26,0,0,19.53,26.45,37.74,24.61,0,0,54.88-1.59,73.28,73.81,0,0,3.37,8.89-1.68,22.25,0,0-1.55,3.17-8.13-13.44,0,0-22.46-38.88-54.64-44,0,0-3.36.75,5.91,10.46,0,0,8.42,11,8.85,16.23,0,0-4.67.59-10.34-4.32,0,0-36.22-22.31-87.65-16.77,0,0-67.61,4.06-80.79,50.92,0,0,1.53,1,12.06-12.22,0,0,36-28.72,63.37-18.28,0,0-160.62,62.55-49.69,208.35,0,0-141.73-85.54-42.58-209.3,0,0-32.72,11.81-51.26-6C219.71,226.78,252.29,231,272.65,195.53ZM508.22,292c-4.24,3.43-6.65,1.84-6.65,1.84-5.08-.14,0-7.36,0-7.36l9.7.18C515.88,286.54,512.45,288.53,508.22,292ZM376.06,558.38s10.81-25.65-37.58-48.71c0,0-78.35-34.81-88-56.52,0,0-6.4,21.15,28.7,39.06,0,0,23.5,13.4,30.27,13.4,0,0-46.6,2.22-84.69-42.3,0,0-30.35-39.11-26.49-84.33,0,0-10.76,6.65-32.44,6.94,0,0,8.27-13.27,11.56-41.8,0,0,11.5-74.95,64.05-90.15,0,0-53.47,52.27-34.54,101.08,0,0-2.59-9.75,6.47-25.47,0,0,8.79,85.93,103.19,138.21,0,0,67.15,24.6,68.69,67.39C385.24,535.18,385.65,553.27,376.06,558.38ZM347.19,361.54c-40.56,26.88-4.89,55.26-4.89,55.26,68.63,42.34,40.45,76.63,40.45,76.63,1.77-2.22.31-10.32.31-10.32.16-17.08-70.58-67.57-70.58-67.57-43.36-40.31,1.1-85.12,1.1-85.12C302.25,356,308,369,308,369c9.22-79.62,83.07-43.55,83.07-43.55-40.14-8.29-52.87,11.18-52.87,11.18C327.39,354,347.19,361.54,347.19,361.54Zm101.34-84.23,9.05,9.38c.23,1.77-3.13,2.74-8.72,5.46s-8.66,0-8.66,0l-27-15.72C409.71,269.76,448.53,277.31,448.53,277.31Zm61,141c-.34,7.08-3.37,39.2-30.89,39.27,0,0,17.4-17.1,13.53-27s5.8.9,5.8.9,3.86,2.68,11.6-14.5C509.55,416.94,509.55,417.43,509.51,418.31Zm15.83-79.6c-18.06,18.52-6.41,31.84-6.41,31.84,6.47,15.09,0,11.15,0,11.15-8-19.9-26.87-3.34-26.87-3.34-22.32,15.67-52.74,26.09-52.74,26.09-19,3.76-18.1-18.28-18.1-18.28,12.21-23.56,32.7-7.23,32.7-7.23,16,9.08,38.83-5.65,38.83-5.65,21.87-9.3,21.68-20.78,21.68-20.78,1-21.95-17.07-20.29-17.07-20.29-13.15-.62-17.18-10.79-17.18-10.79-4.23-11.41,9.28-4.62,9.28-4.62,9.88,5.68,15.36,4.34,15.36,4.34,4-1.75,7.47,1.52,7.47,1.52,5.63,7,8.88,4.68,8.88,4.68,11.62-10,13.83-7.51,13.83-7.51C540.14,323.12,525.34,338.71,525.34,338.71Z" transform="translate(-12.5 -24.9)"/></svg>