<?xml version="1.0" encoding="utf-8"?>
<!-- Generator: Adobe Illustrator 25.4.1, SVG Export Plug-In . SVG Version: 6.00 Build 0)  -->
<svg version="1.1" id="Layer_1" xmlns="http://www.w3.org/2000/svg" xmlns:xlink="http://www.w3.org/1999/xlink" x="0px" y="0px"
	 viewBox="0 0 545.9 545.9" style="enable-background:new 0 0 545.9 545.9;" xml:space="preserve">
<style type="text/css">
	.st0{fill:#FEBE33;}
	.st1{fill:#F3F6FB;}
	.st2{fill:#0672B6;}
</style>
<g>
	<g>
		<circle class="st0" cx="273" cy="273" r="273"/>
		<g>
			<g>
				<path class="st1" d="M48.1,150.1l1.4-2.5l28.9,3.4l-1.8,3.2l-8.4-1.2l-5.6,10.1l5.4,6.5l-1.8,3.2L48.1,150.1z M65.5,152.7
					l-13.2-1.9l8.6,10.2L65.5,152.7z"/>
				<path class="st1" d="M90.2,134.3l-19,2.8c-1.6,0.2-2.9,0.4-3.9,0.4c-1,0.1-1.9,0-2.6-0.1c-0.7-0.2-1.3-0.4-1.9-0.8
					c-0.9-0.7-1.6-1.5-2-2.5c-0.4-1-0.5-2.1-0.3-3.3c0.2-1.2,0.6-2.3,1.4-3.4c0.7-1,1.5-1.8,2.4-2.3c0.9-0.6,1.9-0.8,2.9-0.9
					c1,0,2,0.3,2.9,0.9c0.9,0.7,1.6,1.5,2,2.5c0.4,1,0.6,2.2,0.6,3.5s0,2.6-0.1,4.1c-0.1,1.2,0,2.3,0,3.4c0.1,1.1,0.3,2,0.6,2.8
					c0.4,0.8,0.9,1.5,1.7,2c0.8,0.6,1.7,0.8,2.6,0.8c0.9,0,1.8-0.3,2.6-0.8c0.8-0.5,1.5-1.2,2.1-2c0.7-1.1,1.2-2.2,1.3-3.5
					c0.2-1.3,0-2.5-0.3-3.8c-0.4-1.3-1-2.6-1.9-3.7c-0.9-1.2-2-2.3-3.3-3.2l1.6-2.3c1.7,1.2,3.1,2.6,4.1,4.1c1,1.5,1.8,3.1,2.2,4.8
					c0.4,1.7,0.5,3.3,0.2,4.9c-0.3,1.6-0.9,3.1-1.9,4.5c-0.9,1.3-2.1,2.4-3.4,3.1c-1.3,0.7-2.6,1.1-4,1c-1.3,0-2.6-0.4-3.8-1.3
					c-1.1-0.8-1.9-1.8-2.4-2.9c-0.5-1.1-0.8-2.3-0.8-3.6c-0.1-1.3-0.1-2.6,0-3.9c0.1-1.3,0.1-2.5,0.1-3.5c0-1-0.1-1.9-0.3-2.7
					c-0.2-0.8-0.6-1.4-1.2-1.8c-0.7-0.5-1.5-0.6-2.3-0.4c-0.8,0.2-1.5,0.7-2.1,1.6c-0.4,0.6-0.7,1.3-0.8,1.9c-0.1,0.7,0,1.3,0.2,1.8
					c0.2,0.6,0.6,1,1.1,1.4c0.3,0.2,0.7,0.4,1.2,0.5c0.5,0.1,1.1,0.1,2,0c0.9-0.1,2-0.2,3.5-0.5l21.6-3.3L90.2,134.3z"/>
				<path class="st1" d="M94.7,128.7l-20.3-17.7l7.4-8.5c0.8-0.9,1.7-1.6,2.7-2c1-0.4,2.1-0.6,3.2-0.6c1.1,0,2.2,0.2,3.2,0.5
					c1,0.4,2,0.9,2.8,1.6c1.1,1,1.9,2.1,2.5,3.5c0.6,1.4,0.8,2.8,0.6,4.2c-0.2,1.4-0.8,2.8-1.8,4l-5.3,6.1l7.3,6.4L94.7,128.7z
					 M87.3,117.7l5.2-5.9c0.6-0.7,1-1.5,1-2.3c0.1-0.9-0.1-1.7-0.5-2.6c-0.4-0.9-1-1.6-1.7-2.3c-0.8-0.7-1.7-1.2-2.6-1.4
					c-0.9-0.2-1.8-0.2-2.7,0c-0.8,0.2-1.6,0.7-2.1,1.4l-5,5.7L87.3,117.7z"/>
				<path class="st1" d="M103.6,80.7l2.2-1.9l26,13.1l-2.7,2.4l-7.5-4l-8.7,7.6l2.9,8l-2.7,2.4L103.6,80.7z M119.1,89l-11.8-6.3
					l4.6,12.5L119.1,89z"/>
				<path class="st1" d="M134.6,63.9c-0.5-0.1-1-0.2-1.6-0.1c-0.6,0-1.2,0.1-1.9,0.3c-0.7,0.1-1.4,0.4-2.1,0.7
					c-0.7,0.3-1.4,0.7-2,1.1c-1.7,1.2-2.7,2.4-3.1,3.6c-0.4,1.2-0.1,2.4,0.6,3.5c0.6,0.8,1.2,1.3,1.9,1.4c0.7,0.2,1.6,0.1,2.7-0.2
					c1.1-0.3,2.4-0.8,3.9-1.4c1.8-0.8,3.4-1.3,4.8-1.6c1.5-0.3,2.8-0.3,3.9,0.1c1.2,0.4,2.2,1.2,3.1,2.5c0.7,1.1,1.2,2.1,1.3,3.2
					c0.1,1.1,0,2.1-0.3,3.1c-0.4,1-1,2-1.8,2.9c-0.8,0.9-1.8,1.8-2.9,2.6c-1.1,0.8-2.3,1.4-3.5,2s-2.5,0.9-3.8,1.1
					c-1.3,0.2-2.6,0.3-3.9,0.2l-0.3-3.3c0.6,0.1,1.3,0.2,2,0.1c0.8,0,1.6-0.1,2.5-0.3c0.9-0.2,1.8-0.5,2.7-0.8
					c0.9-0.4,1.8-0.9,2.6-1.4c1.6-1.1,2.6-2.3,3.1-3.4s0.3-2.3-0.5-3.4c-0.6-0.8-1.3-1.3-2.1-1.5c-0.8-0.2-1.8-0.1-3,0.3
					s-2.6,0.8-4.2,1.5c-1.8,0.7-3.3,1.2-4.6,1.4c-1.3,0.3-2.5,0.2-3.5-0.1c-1-0.4-1.9-1.1-2.8-2.3c-1-1.4-1.5-2.8-1.5-4.3
					c0-1.5,0.4-2.8,1.3-4.2c0.8-1.3,2-2.5,3.5-3.6c1-0.7,2-1.3,3-1.7c1-0.4,2-0.7,3-0.8c1-0.2,2-0.2,3-0.1L134.6,63.9z"/>
				<path class="st1" d="M167,66l1.5,2.6l-15.9,9.1l-13.3-23.4l15.6-8.9l1.5,2.6l-12.6,7.2l4.3,7.6l11-6.3l1.4,2.5l-11,6.3l4.6,8.1
					L167,66z"/>
				<path class="st1" d="M177.9,41c-0.4-0.2-0.9-0.3-1.5-0.4c-0.6-0.1-1.2-0.1-1.9-0.1c-0.7,0-1.4,0.1-2.2,0.3
					c-0.8,0.2-1.5,0.4-2.2,0.7c-1.9,0.8-3.1,1.8-3.7,2.9s-0.6,2.3,0,3.5c0.4,0.9,0.9,1.5,1.6,1.8c0.7,0.3,1.6,0.4,2.7,0.3
					c1.1-0.1,2.5-0.3,4.1-0.6c1.9-0.4,3.6-0.6,5-0.6c1.5,0,2.8,0.3,3.8,0.8c1.1,0.6,1.9,1.6,2.6,3.1c0.5,1.2,0.8,2.3,0.7,3.4
					c-0.1,1.1-0.4,2.1-0.9,3c-0.6,0.9-1.3,1.8-2.3,2.5c-1,0.7-2.1,1.4-3.4,2c-1.2,0.6-2.5,1-3.8,1.2c-1.3,0.3-2.6,0.4-3.9,0.3
					c-1.3,0-2.6-0.2-3.8-0.6l0.3-3.3c0.5,0.2,1.2,0.4,2,0.5s1.6,0.2,2.5,0.2c0.9,0,1.8-0.1,2.8-0.3c1-0.2,1.9-0.5,2.8-0.9
					c1.8-0.8,3-1.7,3.7-2.8c0.7-1.1,0.8-2.2,0.2-3.4c-0.4-0.9-1-1.5-1.8-1.9c-0.8-0.3-1.8-0.4-3-0.3s-2.7,0.3-4.4,0.6
					c-1.9,0.3-3.5,0.5-4.8,0.5c-1.4,0-2.5-0.3-3.4-0.8c-0.9-0.6-1.7-1.5-2.3-2.8c-0.7-1.6-0.9-3.1-0.6-4.5s1-2.7,2.1-3.9
					c1.1-1.2,2.5-2.1,4.2-2.9c1.1-0.5,2.2-0.8,3.3-1c1.1-0.2,2.1-0.3,3.1-0.2c1,0,2,0.2,3,0.5L177.9,41z"/>
				<path class="st1" d="M203.2,54.8c-1.8,0.6-3.6,0.7-5.3,0.5s-3.3-0.8-4.8-1.7c-1.5-0.9-2.7-2-3.8-3.4c-1.1-1.4-1.9-2.9-2.4-4.5
					c-0.5-1.7-0.8-3.4-0.6-5.2c0.1-1.8,0.5-3.4,1.2-5c0.7-1.6,1.7-2.9,2.9-4.1c1.2-1.2,2.7-2,4.5-2.6c1.8-0.6,3.6-0.7,5.3-0.4
					s3.3,0.9,4.8,1.8c1.5,0.9,2.7,2.1,3.8,3.4c1.1,1.4,1.9,2.8,2.4,4.5c0.5,1.7,0.8,3.4,0.7,5.2c-0.1,1.7-0.5,3.4-1.2,5
					c-0.7,1.6-1.7,2.9-2.9,4.1S204.9,54.2,203.2,54.8z M190.2,44.5c0.4,1.3,1,2.5,1.8,3.6c0.8,1.1,1.8,2,2.8,2.7
					c1.1,0.7,2.2,1.1,3.5,1.4c1.3,0.2,2.6,0.1,3.9-0.3c1.4-0.4,2.5-1.1,3.4-2c0.9-0.9,1.6-2,2-3.2c0.5-1.2,0.7-2.5,0.7-3.8
					c0-1.3-0.2-2.6-0.6-3.8c-0.4-1.3-1-2.5-1.8-3.6c-0.8-1.1-1.8-2-2.8-2.7c-1.1-0.7-2.3-1.2-3.5-1.4c-1.2-0.2-2.5-0.1-3.8,0.3
					c-1.4,0.4-2.5,1.1-3.4,2c-0.9,0.9-1.6,2-2,3.2c-0.5,1.2-0.7,2.5-0.7,3.8C189.6,42,189.8,43.3,190.2,44.5z"/>
				<path class="st1" d="M219.2,49.9L214,23.4l11.3-2.2c1.2-0.2,2.3-0.2,3.3,0.1c1.1,0.3,2,0.8,2.9,1.4c0.9,0.7,1.6,1.5,2.2,2.4
					c0.6,0.9,1,1.9,1.2,3c0.2,1.2,0.2,2.4,0,3.6c-0.2,1.2-0.7,2.2-1.4,3.2c-0.7,0.9-1.5,1.7-2.6,2.2l8.4,8.9l-3.8,0.8l-7.9-8.3
					l-7,1.4l1.9,9.5L219.2,49.9z M220.1,36.8l8-1.6c0.9-0.2,1.7-0.6,2.3-1.2c0.6-0.6,1-1.4,1.2-2.3c0.2-0.9,0.2-1.9,0-2.8
					c-0.2-1-0.6-1.9-1.2-2.6c-0.6-0.7-1.3-1.3-2.1-1.6c-0.8-0.4-1.7-0.4-2.5-0.3l-7.8,1.5L220.1,36.8z"/>
				<path class="st1" d="M261.1,40.8l0.3,3l-18.2,1.7l-2.5-26.8l17.9-1.7l0.3,3l-14.5,1.4l0.8,8.7l12.6-1.2l0.3,2.8l-12.6,1.2
					l0.9,9.3L261.1,40.8z"/>
				<path class="st1" d="M281.5,22.6c-0.3-0.4-0.7-0.7-1.2-1c-0.5-0.3-1.1-0.6-1.7-0.9c-0.6-0.3-1.3-0.5-2.1-0.7
					c-0.7-0.2-1.5-0.3-2.3-0.3c-2.1,0-3.6,0.3-4.6,1.1c-1,0.8-1.5,1.8-1.5,3.2c0,1,0.2,1.7,0.7,2.3c0.5,0.6,1.3,1,2.3,1.4
					c1,0.4,2.4,0.8,4,1.2c1.9,0.4,3.5,1,4.8,1.6c1.4,0.6,2.4,1.4,3.1,2.4c0.7,1,1.1,2.3,1,3.9c0,1.3-0.3,2.4-0.8,3.3
					c-0.5,0.9-1.2,1.7-2.1,2.3s-1.9,1-3.1,1.3c-1.2,0.3-2.5,0.4-3.9,0.4c-1.4,0-2.7-0.2-4-0.5c-1.3-0.3-2.5-0.8-3.7-1.3
					c-1.2-0.6-2.2-1.3-3.2-2.1l1.7-2.9c0.4,0.4,0.9,0.9,1.6,1.3c0.6,0.4,1.4,0.8,2.2,1.2c0.8,0.4,1.7,0.7,2.7,0.9
					c1,0.2,1.9,0.4,3,0.4c1.9,0,3.4-0.3,4.5-1c1.1-0.7,1.6-1.7,1.6-3c0-1-0.3-1.8-0.9-2.4c-0.6-0.6-1.5-1.1-2.6-1.6
					c-1.2-0.4-2.6-0.9-4.2-1.3c-1.8-0.5-3.3-1-4.6-1.6c-1.2-0.6-2.2-1.3-2.8-2.2c-0.6-0.9-0.9-2-0.9-3.5c0-1.7,0.5-3.2,1.3-4.3
					s2-2.1,3.5-2.6c1.5-0.6,3.1-0.9,5-0.8c1.2,0,2.3,0.2,3.4,0.4c1,0.3,2,0.6,2.9,1.1c0.9,0.5,1.7,1,2.5,1.7L281.5,22.6z"/>
				<path class="st1" d="M297.2,44.8l4-26.7l9.2,1.4c2.9,0.4,5.1,1.4,6.9,2.9c1.7,1.5,2.9,3.3,3.6,5.5c0.6,2.2,0.8,4.5,0.4,6.9
					c-0.4,2.7-1.3,5-2.6,6.8c-1.4,1.8-3.1,3.2-5.2,4c-2.1,0.8-4.5,1-7.1,0.6L297.2,44.8z M317.9,34.2c0.3-2,0.2-3.8-0.3-5.5
					c-0.5-1.7-1.4-3-2.7-4.1c-1.3-1.1-2.9-1.8-4.9-2.1l-5.9-0.9L301,42.3l5.9,0.9c2.1,0.3,3.8,0.1,5.4-0.6c1.5-0.7,2.8-1.8,3.8-3.2
					C317,37.9,317.6,36.2,317.9,34.2z"/>
				<path class="st1" d="M341.8,50.9l-0.8,2.9l-17.7-4.6l6.8-26.1l17.4,4.6l-0.8,2.9l-14.1-3.7l-2.2,8.4l12.2,3.2l-0.7,2.8
					l-12.2-3.2l-2.4,9L341.8,50.9z"/>
				<path class="st1" d="M376.6,44.7c-0.1-0.4-0.4-0.9-0.7-1.4s-0.8-1-1.2-1.5c-0.5-0.5-1-1-1.7-1.4c-0.6-0.4-1.3-0.8-2.1-1.1
					c-1.9-0.8-3.5-1-4.7-0.7c-1.2,0.3-2.1,1.1-2.6,2.4c-0.4,0.9-0.4,1.7-0.2,2.4c0.3,0.7,0.8,1.4,1.6,2.2c0.8,0.7,1.9,1.6,3.3,2.6
					c1.6,1.1,2.9,2.2,3.9,3.2s1.7,2.2,2,3.4c0.3,1.2,0.1,2.5-0.5,4c-0.5,1.2-1.2,2.1-2,2.8c-0.8,0.7-1.8,1.1-2.8,1.4
					s-2.2,0.2-3.4,0.1c-1.2-0.2-2.5-0.6-3.7-1.1c-1.3-0.5-2.4-1.2-3.5-2s-2.1-1.6-2.9-2.6s-1.6-2-2.2-3.2l2.6-2
					c0.2,0.6,0.5,1.1,1,1.8c0.4,0.6,1,1.3,1.6,1.9c0.6,0.6,1.3,1.3,2.1,1.8c0.8,0.6,1.7,1.1,2.6,1.4c1.8,0.7,3.3,1,4.5,0.8
					c1.2-0.2,2.1-1,2.6-2.2c0.4-0.9,0.4-1.8,0.1-2.6s-0.9-1.6-1.8-2.4c-0.9-0.8-2.1-1.7-3.5-2.8c-1.5-1.1-2.7-2.2-3.7-3.2
					c-0.9-1-1.5-2-1.7-3.1c-0.2-1.1-0.1-2.2,0.5-3.5c0.7-1.6,1.6-2.8,2.8-3.5c1.2-0.8,2.6-1.2,4.2-1.1c1.6,0,3.2,0.4,4.9,1.1
					c1.1,0.5,2.1,1,3,1.7c0.9,0.6,1.6,1.3,2.3,2.1c0.7,0.8,1.2,1.6,1.7,2.5L376.6,44.7z"/>
				<path class="st1" d="M391.9,73.2l-1.4,2.7l-16.1-8.7l12.8-23.7L403,52l-1.4,2.7l-12.8-6.9l-4.1,7.7l11.1,6l-1.4,2.5l-11.1-6
					l-4.4,8.2L391.9,73.2z"/>
				<path class="st1" d="M402.3,83.9c-1.5-1-2.6-2.2-3.4-3.8s-1.3-3.1-1.6-4.8c-0.2-1.7-0.1-3.4,0.3-5.1c0.4-1.7,1.1-3.3,2.1-4.7
					c1-1.5,2.3-2.8,3.7-3.7s3-1.7,4.6-2.1s3.3-0.5,5-0.2c1.7,0.3,3.3,0.9,4.7,1.9c2.2,1.5,3.6,3.1,4.4,5c0.8,1.9,1,3.7,0.8,5.7
					l-3.2,0c0.2-1.7,0-3.3-0.7-4.7c-0.7-1.4-1.7-2.6-3.1-3.5c-1.1-0.8-2.3-1.2-3.6-1.4c-1.2-0.1-2.5,0-3.7,0.3
					c-1.2,0.4-2.4,1-3.4,1.8c-1.1,0.8-2,1.8-2.7,2.9c-0.8,1.2-1.4,2.4-1.7,3.8c-0.3,1.3-0.4,2.6-0.3,3.9c0.2,1.3,0.6,2.5,1.2,3.6
					c0.6,1.1,1.5,2,2.6,2.8c1.3,0.9,2.7,1.4,4.3,1.5s3.4-0.1,5.3-0.8l-2,2.9C408.2,86.2,405,85.8,402.3,83.9z M415.3,79.4l-4.8-3.3
					L412,74l7.2,4.9L411.6,90l-2.4-1.6L415.3,79.4z"/>
				<path class="st1" d="M423.3,100.2c-1.6-1.4-2.7-2.9-3.4-4.4c-0.6-1.5-0.8-3.1-0.7-4.6c0.2-1.5,0.6-3.1,1.4-4.6s1.7-2.9,2.8-4.2
					l9-10.3l2.6,2.2l-9,10.3c-0.9,1-1.6,2-2.2,3.2c-0.6,1.1-1,2.3-1.2,3.4c-0.2,1.1-0.1,2.3,0.3,3.4c0.4,1.1,1.2,2.2,2.3,3.2
					c1.2,1,2.4,1.7,3.5,1.9s2.3,0.2,3.4-0.2c1.1-0.4,2.2-0.9,3.2-1.7c1-0.8,1.9-1.6,2.8-2.6l9-10.3l2.6,2.2l-9,10.3
					c-1.2,1.4-2.5,2.5-3.9,3.5c-1.4,1-2.8,1.6-4.3,1.9c-1.5,0.3-3,0.3-4.6-0.1C426.5,102.5,424.9,101.6,423.3,100.2z"/>
				<path class="st1" d="M435.9,111.5l19.9-18.2l7.8,8.5c0.8,0.9,1.4,1.8,1.7,2.9c0.3,1.1,0.4,2.1,0.3,3.2c-0.1,1.1-0.4,2.1-0.9,3.1
					s-1.1,1.8-1.9,2.6c-0.9,0.8-1.9,1.5-3.1,1.9c-1.1,0.4-2.3,0.6-3.4,0.5c-1.2-0.1-2.2-0.5-3.2-1.1l-3.2,11.8l-2.6-2.9l3-11.1
					l-4.8-5.3l-7.1,6.5L435.9,111.5z M447.6,105.4l5.5,6c0.6,0.7,1.4,1.1,2.2,1.3c0.9,0.2,1.7,0.1,2.6-0.2c0.9-0.3,1.7-0.8,2.4-1.4
					c0.7-0.7,1.3-1.5,1.6-2.4c0.3-0.9,0.4-1.8,0.3-2.7c-0.1-0.9-0.5-1.7-1.1-2.3l-5.4-5.9L447.6,105.4z"/>
				<path class="st1" d="M458.3,138.5c-1.1-1.5-1.8-3.2-2.1-4.8c-0.3-1.7-0.2-3.4,0.1-5.1c0.4-1.7,1.1-3.2,2-4.7
					c1-1.5,2.1-2.7,3.5-3.7c1.5-1.1,3-1.8,4.7-2.2c1.7-0.4,3.4-0.6,5.1-0.4c1.7,0.2,3.3,0.7,4.8,1.5c1.5,0.8,2.8,2,3.9,3.4
					c1.1,1.5,1.8,3.2,2.1,4.9c0.3,1.7,0.2,3.4-0.2,5.1s-1.1,3.2-2,4.7c-1,1.4-2.1,2.7-3.5,3.7c-1.5,1.1-3,1.8-4.7,2.3
					c-1.7,0.4-3.4,0.6-5.1,0.4c-1.7-0.2-3.3-0.7-4.8-1.5S459.4,139.9,458.3,138.5z M464,123c-1.1,0.8-2,1.8-2.8,2.9
					c-0.8,1.1-1.3,2.3-1.6,3.5c-0.3,1.2-0.4,2.5-0.2,3.8c0.2,1.3,0.7,2.5,1.5,3.6c0.8,1.2,1.9,2,3,2.6c1.2,0.6,2.4,0.9,3.7,0.9
					c1.3,0.1,2.6-0.1,3.8-0.5c1.3-0.4,2.4-1,3.5-1.7c1.1-0.8,2-1.8,2.8-2.9c0.8-1.1,1.3-2.3,1.6-3.5c0.3-1.3,0.4-2.5,0.2-3.8
					c-0.2-1.2-0.7-2.4-1.5-3.5c-0.8-1.2-1.8-2-3-2.6s-2.4-0.9-3.7-0.9c-1.3,0-2.6,0.1-3.8,0.5C466.2,121.6,465.1,122.2,464,123z"/>
				<path class="st1" d="M494.3,155.4c0.2-0.4,0.3-1,0.3-1.6c0-0.6,0-1.2-0.1-1.9s-0.2-1.4-0.5-2.1c-0.2-0.7-0.5-1.4-0.9-2.2
					c-1-1.8-2.1-2.9-3.3-3.4c-1.2-0.5-2.3-0.4-3.5,0.3c-0.8,0.5-1.4,1.1-1.6,1.8c-0.2,0.7-0.2,1.6,0,2.7c0.2,1.1,0.6,2.4,1,4
					c0.6,1.8,1,3.5,1.1,5c0.2,1.5,0,2.8-0.5,3.9s-1.4,2.1-2.8,2.9c-1.1,0.6-2.2,1-3.3,1c-1.1,0-2.1-0.2-3.1-0.6
					c-1-0.5-1.9-1.1-2.7-2c-0.8-0.9-1.6-1.9-2.3-3.1c-0.7-1.2-1.2-2.4-1.6-3.7c-0.4-1.3-0.6-2.6-0.7-3.8s0-2.6,0.2-3.9l3.3,0
					c-0.2,0.6-0.3,1.2-0.3,2c0,0.8,0,1.6,0.1,2.5c0.1,0.9,0.3,1.8,0.6,2.7c0.3,0.9,0.7,1.9,1.2,2.7c1,1.7,2,2.8,3.1,3.4
					c1.1,0.6,2.3,0.5,3.4-0.1c0.9-0.5,1.4-1.2,1.7-2c0.2-0.8,0.2-1.8,0-3c-0.2-1.2-0.6-2.6-1.1-4.3c-0.5-1.8-0.8-3.4-1-4.7
					c-0.1-1.3,0-2.5,0.5-3.5c0.5-1,1.3-1.8,2.5-2.5c1.5-0.9,3-1.2,4.4-1.1c1.4,0.1,2.8,0.7,4,1.7c1.3,1,2.3,2.3,3.3,3.9
					c0.6,1.1,1.1,2.1,1.4,3.1c0.3,1,0.5,2.1,0.5,3.1c0.1,1,0,2-0.2,3L494.3,155.4z"/>
			</g>
		</g>
		<g>
			<g>
				<path class="st1" d="M68.5,425.2l20.7-16.4l10.8,13.7l-2.3,1.8l-8.8-11l-6.9,5.5l7.4,9.3l-2.2,1.7l-7.4-9.3l-9.3,7.4L68.5,425.2
					z"/>
				<path class="st1" d="M90.2,450.8c-1.3-1.3-2.2-2.8-2.7-4.4c-0.5-1.6-0.7-3.2-0.6-4.9c0.1-1.7,0.6-3.3,1.3-4.8
					c0.7-1.5,1.7-2.9,2.9-4.1c1.3-1.2,2.7-2.2,4.3-2.8s3.2-1,4.9-1.1c1.7-0.1,3.3,0.2,4.9,0.8c1.6,0.6,3,1.5,4.2,2.8
					c1.3,1.3,2.2,2.8,2.7,4.4c0.5,1.6,0.7,3.3,0.5,5s-0.6,3.3-1.3,4.8c-0.7,1.5-1.7,2.9-2.9,4c-1.3,1.2-2.7,2.2-4.3,2.8
					c-1.6,0.7-3.2,1-4.9,1.1c-1.7,0.1-3.3-0.2-4.9-0.8C92.8,453,91.4,452,90.2,450.8z M93.5,434.9c-1,0.9-1.7,2-2.3,3.2
					c-0.6,1.2-1,2.4-1.1,3.6s0,2.5,0.3,3.7s1,2.3,2,3.3c1,1,2.1,1.7,3.3,2.1c1.2,0.4,2.4,0.5,3.7,0.4c1.3-0.1,2.5-0.5,3.6-1.1
					c1.2-0.6,2.2-1.3,3.1-2.2c1-0.9,1.7-2,2.3-3.2c0.6-1.2,0.9-2.4,1.1-3.7c0.1-1.3,0-2.5-0.3-3.7c-0.4-1.2-1-2.2-2-3.2
					c-1-1-2.1-1.7-3.3-2.1c-1.2-0.4-2.4-0.5-3.7-0.4s-2.5,0.5-3.6,1C95.4,433.3,94.4,434,93.5,434.9z"/>
				<path class="st1" d="M103.8,463.8l16.8-20.4l8.7,7.2c0.9,0.7,1.6,1.6,2,2.6c0.4,1,0.7,2,0.7,3.1c0,1.1-0.1,2.1-0.4,3.2
					c-0.3,1-0.8,1.9-1.5,2.7c-0.8,0.9-1.7,1.7-2.7,2.2c-1,0.5-2.1,0.9-3.3,0.9c-1.1,0.1-2.2-0.1-3.3-0.6l-1.5,11.9l-2.9-2.4
					l1.4-11.1l-5.4-4.5l-6,7.3L103.8,463.8z M114.4,456.3l6.2,5.1c0.7,0.6,1.5,0.9,2.3,0.9c0.8,0,1.7-0.1,2.5-0.5s1.6-1,2.2-1.7
					c0.6-0.8,1-1.6,1.2-2.5c0.2-0.9,0.2-1.8-0.1-2.6c-0.2-0.8-0.7-1.5-1.4-2.1l-6-4.9L114.4,456.3z"/>
				<path class="st1" d="M152.9,471.1l-7.6-5.1l-13.1,19.4l-2.8-1.9l13.1-19.4L135,459l1.7-2.5l17.9,12L152.9,471.1z"/>
				<path class="st1" d="M161.9,472.6l2.5,1.4l-3.3,28.3l-3.1-1.7l1.1-8.2l-10-5.5l-6.3,5.3l-3.1-1.7L161.9,472.6z M159.5,489.6
					l1.8-12.9l-10,8.4L159.5,489.6z"/>
				<path class="st1" d="M165.9,504.4l10.4-24.3l3.1,1.3l-9.2,21.5l13.5,5.8l-1.2,2.7L165.9,504.4z"/>
				<path class="st1" d="M205.4,515.8l-0.9,2.8l-17.1-5.5l8.1-25.1l16.8,5.4l-0.9,2.8l-13.6-4.3l-2.6,8.1l11.8,3.8l-0.9,2.7
					l-11.8-3.8l-2.8,8.7L205.4,515.8z"/>
				<path class="st1" d="M209,517.2l21.1-16.8l-16.3-3.5l0.6-2.9l20.1,4.4l-0.6,2.5l-20.8,16.8l16.4,3.5l-0.6,2.9l-20.5-4.4
					L209,517.2z"/>
				<path class="st1" d="M246,499.8l2.8,0.3l7.8,27.4l-3.5-0.4l-2.1-8l-11.3-1.3l-3.8,7.4l-3.5-0.4L246,499.8z M250.2,516.4
					l-3.3-12.6l-6,11.6L250.2,516.4z"/>
				<path class="st1" d="M281.4,527.8c-1.9,0.1-3.6-0.3-5.1-1c-1.5-0.7-2.9-1.7-4-2.9c-1.1-1.2-2-2.6-2.7-4.2s-1-3.2-1.1-4.9
					c-0.1-1.8,0.2-3.4,0.8-5.1s1.4-3.1,2.5-4.4c1.1-1.3,2.4-2.3,3.9-3.1c1.5-0.8,3.1-1.2,4.9-1.3c1.9-0.1,3.6,0.3,5.1,1s2.9,1.7,4,3
					s2,2.7,2.7,4.2c0.6,1.6,1,3.2,1,4.8c0.1,1.8-0.2,3.4-0.8,5.1c-0.6,1.6-1.4,3.1-2.5,4.4c-1.1,1.3-2.4,2.3-3.9,3.1
					C284.8,527.4,283.2,527.8,281.4,527.8z M281.3,524.8c1.4,0,2.7-0.4,3.8-1c1.1-0.6,2-1.5,2.8-2.5c0.7-1,1.3-2.2,1.7-3.4
					c0.4-1.3,0.5-2.5,0.5-3.8c0-1.3-0.3-2.6-0.8-3.9c-0.5-1.2-1.1-2.3-2-3.3s-1.8-1.7-2.9-2.2s-2.4-0.8-3.7-0.7
					c-1.4,0-2.7,0.4-3.8,1s-2,1.5-2.8,2.5c-0.7,1-1.3,2.1-1.7,3.4c-0.4,1.2-0.6,2.5-0.5,3.8c0,1.3,0.3,2.6,0.8,3.9
					c0.5,1.2,1.1,2.3,1.9,3.3c0.8,0.9,1.8,1.7,2.9,2.2C278.7,524.6,280,524.9,281.3,524.8z M282.6,519l3.3-0.1l7.7,8.4l-3.3,0.1
					L282.6,519z"/>
				<path class="st1" d="M311.1,525.1c-2.1,0.3-3.9,0.2-5.4-0.3c-1.5-0.5-2.8-1.3-3.9-2.4c-1-1.1-1.9-2.4-2.5-3.9
					c-0.6-1.5-1.1-3.1-1.3-4.8l-2-13.2l3.3-0.5l2,13.2c0.2,1.3,0.5,2.5,0.9,3.7c0.4,1.2,1,2.2,1.8,3.1c0.7,0.9,1.6,1.5,2.7,1.9
					s2.4,0.5,3.9,0.3c1.5-0.2,2.7-0.7,3.7-1.4s1.6-1.6,2-2.7c0.4-1.1,0.7-2.2,0.8-3.4c0.1-1.2,0-2.5-0.2-3.7l-2-13.2l3.3-0.5l2,13.2
					c0.3,1.8,0.3,3.5,0.1,5.1c-0.2,1.6-0.6,3.1-1.3,4.5c-0.7,1.3-1.7,2.5-3,3.4C314.8,524.2,313.1,524.8,311.1,525.1z"/>
				<path class="st1" d="M346.3,514.2l0.8,2.9l-17.3,4.5L323,496l17-4.4l0.8,2.9l-13.8,3.6l2.2,8.3l12-3.1l0.7,2.7l-12,3.1l2.3,8.8
					L346.3,514.2z"/>
				<path class="st1" d="M361.9,511.8l-9.4-24.7l3.1-1.2l9.4,24.7L361.9,511.8z"/>
				<path class="st1" d="M366.5,488.3l8.7,18.3l-3,1.4l-11.3-23.8l2.6-1.2l23.4,11.7L378,476l3-1.4l11.3,23.8l-2.8,1.3L366.5,488.3z
					"/>
				<path class="st1" d="M401.6,468.5c-0.4-0.1-0.9-0.2-1.5-0.2c-0.6,0-1.2,0-1.9,0.1c-0.7,0.1-1.4,0.3-2.1,0.5
					c-0.7,0.2-1.4,0.6-2.1,1c-1.7,1.1-2.8,2.2-3.2,3.3s-0.3,2.3,0.4,3.4c0.5,0.8,1.1,1.3,1.8,1.5c0.7,0.2,1.6,0.2,2.6-0.1
					c1.1-0.2,2.4-0.6,3.9-1.1c1.8-0.6,3.4-1,4.8-1.3c1.4-0.2,2.7-0.1,3.8,0.3c1.1,0.4,2.1,1.3,2.9,2.7c0.7,1.1,1,2.1,1.1,3.2
					c0.1,1-0.1,2-0.5,3s-1.1,1.9-1.9,2.7c-0.8,0.9-1.8,1.6-3,2.4c-1.1,0.7-2.3,1.3-3.6,1.7c-1.2,0.4-2.5,0.7-3.7,0.8
					c-1.3,0.1-2.5,0.1-3.8-0.1l-0.1-3.2c0.6,0.2,1.2,0.2,2,0.3c0.8,0,1.6,0,2.4-0.2c0.9-0.1,1.8-0.3,2.7-0.7s1.8-0.7,2.6-1.3
					c1.6-1,2.7-2,3.2-3.2s0.5-2.2-0.2-3.4c-0.5-0.8-1.2-1.4-2-1.6c-0.8-0.2-1.8-0.2-3,0.1s-2.6,0.7-4.2,1.2
					c-1.8,0.6-3.3,0.9-4.6,1.1c-1.3,0.2-2.5,0.1-3.4-0.4s-1.8-1.2-2.5-2.4c-0.9-1.4-1.3-2.9-1.2-4.3c0.1-1.4,0.6-2.8,1.5-4
					c0.9-1.3,2.1-2.4,3.7-3.3c1-0.6,2-1.1,3-1.4c1-0.3,2-0.5,3-0.6s2-0.1,2.9,0.1L401.6,468.5z"/>
				<path class="st1" d="M419.8,481.4l-15.9-21.1l8.8-6.6c0.9-0.7,1.9-1.2,3-1.4c1.1-0.2,2.1-0.2,3.2,0c1.1,0.2,2.1,0.6,3,1.2
					s1.7,1.3,2.3,2.1c0.9,1.1,1.4,2.4,1.7,3.9c0.3,1.4,0.2,2.8-0.3,4.2c-0.4,1.3-1.3,2.5-2.5,3.4l-6.3,4.8l5.7,7.6L419.8,481.4z
					 M414.9,469.5l6.1-4.6c0.7-0.6,1.2-1.2,1.5-2c0.2-0.8,0.3-1.7,0.1-2.6c-0.2-0.9-0.6-1.8-1.2-2.5c-0.6-0.8-1.4-1.4-2.2-1.8
					c-0.9-0.4-1.7-0.6-2.6-0.5c-0.9,0.1-1.6,0.3-2.3,0.9l-6,4.5L414.9,469.5z"/>
				<path class="st1" d="M438.8,466.4l-17.3-19.9l2.5-2.2l17.3,19.9L438.8,466.4z"/>
				<path class="st1" d="M447,459.3l-18.7-18.6l8-8c0.8-0.8,1.7-1.4,2.8-1.8c1-0.3,2.1-0.5,3.2-0.4c1.1,0.1,2.1,0.3,3.1,0.7
					c1,0.4,1.9,1,2.6,1.7c0.9,0.9,1.5,1.8,2,2.9c0.4,1.1,0.7,2.2,0.6,3.3c0,1.1-0.4,2.2-0.9,3.2l11.7,2.6l-2.7,2.7l-11-2.4l-4.9,5
					l6.7,6.7L447,459.3z M440.5,448.1l5.6-5.7c0.6-0.6,1-1.4,1.2-2.2c0.1-0.8,0-1.7-0.3-2.6c-0.3-0.9-0.8-1.6-1.5-2.3
					c-0.7-0.7-1.5-1.2-2.4-1.5c-0.9-0.3-1.8-0.3-2.6-0.2c-0.9,0.2-1.6,0.5-2.2,1.2l-5.5,5.5L440.5,448.1z"/>
				<path class="st1" d="M449.7,417.7l1.8-2.2l27.3,8.2l-2.2,2.8l-7.9-2.6l-7.1,8.8l4.1,7.2l-2.2,2.8L449.7,417.7z M466,423.1
					l-12.4-4l6.5,11.3L466,423.1z"/>
			</g>
		</g>
		<circle class="st2" cx="273" cy="273" r="212.4"/>
		<g>
			<g>
				<path class="st1" d="M184.4,192.1c0,0-43.2,43.9-27.9,84.8c0,0-2.1-8.2,5.2-21.4c0,0,7.1,72.1,83.4,116c0,0,54.3,20.6,55.5,56.6
					c0,0,0.3,15.2-7.4,19.5c0,0,8.7-21.5-30.4-40.9c0,0-63.3-29.2-71.2-47.4c0,0-5.2,17.8,23.2,32.8c0,0,19,11.2,24.5,11.2
					c0,0-37.7,1.9-68.5-35.5c0,0-24.5-32.8-21.4-70.8c0,0-8.7,5.6-26.2,5.8c0,0,6.7-11.1,9.3-35.1
					C132.6,267.8,141.9,204.9,184.4,192.1z"/>
				<path class="st1" d="M282.9,175.2c0,0-129.9,52.5-40.2,174.9c0,0-114.6-71.8-34.4-175.7c0,0-26.5,9.9-41.4-5.1
					c0,0,26.3,3.5,42.8-26.2c0,0,16.4-31.1,79.3-5c0,0-8.6-11.3-27.5-17.7c0,0-14.3-3.7-12.7-22.1c0,0,4,15.1,47.4,16.6
					c0,0,19.7,2.6,32.7,18.4c0,0-0.3-10.8-7.3-17.7c0,0-5.3-4.8-4.6-15.3c0,0,15.8,22.2,30.5,20.7c0,0,44.4-1.3,59.2,62
					c0,0,2.7,7.5-1.4,18.7c0,0-1.3,2.7-6.6-11.3c0,0-18.2-32.6-44.2-37c0,0-2.7,0.6,4.8,8.8c0,0,6.8,9.2,7.2,13.6
					c0,0-3.8,0.5-8.4-3.6c0,0-29.3-18.7-70.9-14.1c0,0-54.7,3.4-65.3,42.7c0,0,1.2,0.9,9.7-10.3
					C231.7,190.5,260.7,166.4,282.9,175.2z"/>
				<path class="st1" d="M305.4,252.1c0,0-59.7-30.3-67.2,36.5c0,0-4.7-10.9,4.5-32.4c0,0-35.9,37.6-0.9,71.4
					c0,0,57.2,42.4,57.1,56.7c0,0,1.2,6.8-0.3,8.7c0,0,22.8-28.8-32.7-64.3c0,0-28.8-23.8,4-46.4c0,0-16-6.3-7.2-20.9
					C262.7,261.5,273,245.2,305.4,252.1z"/>
				<path class="st1" d="M401.2,328.9c0,0,0,0.4,0,1.2c-0.3,5.9-2.7,32.9-25,33c0,0,14.1-14.4,10.9-22.7s4.7,0.8,4.7,0.8
					S394.9,343.3,401.2,328.9z"/>
				<path class="st1" d="M356.2,297c0,0-16.6-13.7-26.4,6.1c0,0-0.7,18.5,14.6,15.3c0,0,24.6-8.7,42.6-21.9c0,0,15.2-13.9,21.7,2.8
					c0,0,5.2,3.3,0-9.4c0,0-9.4-11.2,5.2-26.7c0,0,12-13.1,7.8-15.8c0,0-1.8-2.1-11.2,6.3c0,0-2.6,1.9-7.2-3.9c0,0-2.8-2.7-6-1.3
					c0,0-4.4,1.1-12.4-3.6c0,0-10.9-5.7-7.5,3.9c0,0,3.3,8.5,13.9,9.1c0,0,14.6-1.4,13.8,17c0,0,0.2,9.6-17.5,17.4
					C387.6,292.3,369.1,304.6,356.2,297z"/>
				<path class="st1" d="M359.2,219.6l-7.3-7.9c0,0-31.4-6.3-28.5-0.7l21.8,13.2c0,0,2.5,2.3,7,0
					C356.6,221.9,359.4,221.1,359.2,219.6z"/>
				<path class="st1" d="M402.6,219.5l-7.8-0.2c0,0-4.1,6.1,0,6.2c0,0,1.9,1.3,5.4-1.6C403.5,221.1,406.3,219.5,402.6,219.5z"/>
			</g>
			<path class="st1" d="M123.3,447.6"/>
		</g>
	</g>
</g>
</svg>
