<svg xmlns="http://www.w3.org/2000/svg" width="46" height="46" viewBox="0 0 46 46">
  <path id="icons8-whatsapp" d="M25,2A22.9,22.9,0,0,0,4.984,36.209L2.037,46.73a1,1,0,0,0,1.2,1.24l10.971-2.719A22.977,22.977,0,1,0,25,2Zm0,2A21,21,0,1,1,14.762,43.334a1,1,0,0,0-.728-.1L4.426,45.617,7,36.426a1,1,0,0,0-.1-.779A21,21,0,0,1,25,4Zm-8.357,9a3.18,3.18,0,0,0-2.309,1.049A7.789,7.789,0,0,0,12,19.594c0,3.361,2.331,6.262,2.613,6.635h0v0c-.027-.035.358.522.871,1.189a31.678,31.678,0,0,0,2.133,2.494,23.158,23.158,0,0,0,7.486,5.436,35.62,35.62,0,0,0,3.459,1.262,9.219,9.219,0,0,0,4.166.266,7.03,7.03,0,0,0,2.621-1.082,4.86,4.86,0,0,0,2.158-2.34,8.25,8.25,0,0,0,.469-2.059,4.719,4.719,0,0,0,.01-.787,1.371,1.371,0,0,0-.221-.785c-.466-.764-.993-.784-1.543-1.057-.306-.151-1.176-.576-2.049-.992s-1.627-.783-2.092-.949a2.356,2.356,0,0,0-1.17-.2,1.99,1.99,0,0,0-1.326.873c-.282.418-1.417,1.758-1.764,2.152,0,0,.026.011-.111-.057-.428-.212-.952-.392-1.727-.8a14.288,14.288,0,0,1-2.8-1.947v0a16.517,16.517,0,0,1-3.033-3.721c.024-.028,0,.006.047-.043l0,0c.357-.351.672-.771.939-1.078a4.987,4.987,0,0,0,.727-1.18,2.211,2.211,0,0,0-.049-1.918v0c.014.029-.113-.252-.25-.576s-.313-.746-.5-1.2c-.375-.9-.793-1.906-1.041-2.5v0A2.6,2.6,0,0,0,18.816,13.2a1.933,1.933,0,0,0-.994-.174h0C17.451,13,17.045,13,16.643,13Zm0,2c.385,0,.766,0,1.084.019s.307.018.244-.012.023-.04.209.4c.243.578.663,1.589,1.039,2.49.188.451.364.873.5,1.205s.216.517.3.693v0l0,0c.087.171.079.062.049.121a2.912,2.912,0,0,1-.453.768c-.325.374-.656.792-.832.965a2.149,2.149,0,0,0-.6.846,1.934,1.934,0,0,0,.185,1.564,18.3,18.3,0,0,0,3.484,4.281,16.357,16.357,0,0,0,3.193,2.217c.888.469,1.612.742,1.774.822a2.246,2.246,0,0,0,1.293.279,1.947,1.947,0,0,0,1.178-.658l0,0c.357-.4,1.417-1.615,1.926-2.361.022.008.014,0,.184.063v0h0c.077.028,1.044.46,1.906.871s1.737.838,2.021.979c.41.2.6.335.654.336a2.344,2.344,0,0,1-.006.328,6.362,6.362,0,0,1-.357,1.553,3.771,3.771,0,0,1-1.346,1.33,6.218,6.218,0,0,1-1.846.793,7.168,7.168,0,0,1-3.273-.2,33.423,33.423,0,0,1-3.274-1.193,21.373,21.373,0,0,1-6.82-4.973,29.723,29.723,0,0,1-2-2.338c-.479-.624-.689-.948-.863-1.178l0,0C15.9,24.61,14,21.971,14,19.594a5.271,5.271,0,0,1,1.8-4.184A1.185,1.185,0,0,1,16.643,15Z" transform="translate(-2 -2)" fill="#0271b6"/>
</svg>
