<?xml version="1.0" encoding="utf-8"?>
<!-- Generator: Adobe Illustrator 25.4.1, SVG Export Plug-In . SVG Version: 6.00 Build 0)  -->
<svg version="1.1" id="Layer_1" xmlns="http://www.w3.org/2000/svg" xmlns:xlink="http://www.w3.org/1999/xlink" x="0px" y="0px"
	 viewBox="0 0 462.3 539.4" style="enable-background:new 0 0 462.3 539.4;" xml:space="preserve">
<style type="text/css">
	.st0{fill:#FFFFFF;}
</style>
<g>
	<g>
		<g>
			<path class="st0" d="M94.4,144.9c0,0-66.7,67.7-43.1,131c0,0-3.2-12.6,8.1-33c0,0,11,111.4,128.8,179.1c0,0,83.8,31.9,85.8,87.3
				c0,0,0.5,23.4-11.5,30.1c0,0,13.5-33.2-46.9-63.1c0,0-97.8-45.1-109.9-73.3c0,0-8,27.4,35.8,50.6c0,0,29.3,17.4,37.8,17.4
				c0,0-58.2,2.9-105.7-54.8c0,0-37.9-50.7-33.1-109.3c0,0-13.4,8.6-40.5,9c0,0,10.3-17.2,14.4-54.2
				C14.4,261.7,28.8,164.6,94.4,144.9z"/>
			<path class="st0" d="M246.5,118.7c0,0-200.5,81.1-62,270c0,0-177-110.9-53.2-271.3c0,0-40.9,15.3-64-7.8c0,0,40.7,5.4,66.1-40.5
				c0,0,25.3-48.1,122.5-7.7c0,0-13.3-17.5-42.5-27.3c0,0-22.1-5.8-19.6-34.2c0,0,6.2,23.3,73.2,25.6c0,0,30.4,4.1,50.5,28.4
				c0,0-0.5-16.7-11.3-27.3c0,0-8.2-7.5-7.1-23.7c0,0,24.4,34.3,47.1,31.9c0,0,68.5-2.1,91.5,95.7c0,0,4.2,11.5-2.1,28.8
				c0,0-1.9,4.1-10.2-17.4c0,0-28-50.4-68.2-57.1c0,0-4.2,1,7.4,13.6c0,0,10.5,14.2,11,21c0,0-5.8,0.8-12.9-5.6
				c0,0-45.2-28.9-109.4-21.7c0,0-84.4,5.3-100.9,66c0,0,1.9,1.3,15.1-15.8C167.4,142.4,212.3,105.2,246.5,118.7z"/>
			<path class="st0" d="M281.3,237.5c0,0-92.2-46.8-103.7,56.4c0,0-7.2-16.8,6.9-50c0,0-55.5,58.1-1.4,110.3
				c0,0,88.3,65.4,88.1,87.6c0,0,1.8,10.5-0.4,13.4c0,0,35.2-44.5-50.5-99.3c0,0-44.5-36.8,6.1-71.6c0,0-24.7-9.8-11.2-32.3
				C215.3,252,231.2,226.8,281.3,237.5z"/>
			<path class="st0" d="M429.2,356.1c0,0,0,0.6-0.1,1.8c-0.4,9.2-4.2,50.8-38.6,50.9c0,0,21.7-22.2,16.9-35.1
				c-4.8-12.9,7.2,1.2,7.2,1.2S419.5,378.4,429.2,356.1z"/>
			<path class="st0" d="M359.7,306.9c0,0-25.6-21.2-40.8,9.4c0,0-1.1,28.6,22.6,23.7c0,0,38-13.5,65.9-33.8c0,0,23.5-21.5,33.5,4.3
				c0,0,8.1,5.1,0-14.4c0,0-14.5-17.3,8-41.3c0,0,18.5-20.2,12.1-24.5c0,0-2.8-3.3-17.3,9.7c0,0-4.1,3-11.1-6.1c0,0-4.4-4.2-9.3-2
				c0,0-6.8,1.7-19.2-5.6c0,0-16.9-8.8-11.6,6c0,0,5,13.2,21.4,14c0,0,22.6-2.2,21.3,26.3c0,0,0.2,14.9-27.1,26.9
				C408.2,299.5,379.7,318.6,359.7,306.9z"/>
			<path class="st0" d="M364.3,187.3L353,175.1c0,0-48.5-9.8-44.1-1.1l33.7,20.4c0,0,3.8,3.5,10.8,0S364.6,189.6,364.3,187.3z"/>
			<path class="st0" d="M431.3,187.2l-12.1-0.2c0,0-6.3,9.4,0,9.5c0,0,3,2.1,8.3-2.4C432.8,189.7,437.1,187.1,431.3,187.2z"/>
		</g>
		<path class="st0" d="M0,539.4"/>
	</g>
</g>
</svg>
